<svg xmlns="http://www.w3.org/2000/svg" viewBox="0 0 1600 1200"><style>.prefix__st0{fill:#161616}.prefix__st1{fill:#e8e8e8}.prefix__st2{opacity:7.000000e-002;fill:#353535}.prefix__st3{fill:#fff}.prefix__st4,.prefix__st5{opacity:6.000000e-002;fill:#353535}.prefix__st5{opacity:.1}.prefix__st9{fill:#515151}.prefix__st10{fill:#424242}.prefix__st11{fill:#474747}.prefix__st12,.prefix__st13{opacity:9.000000e-002;fill:#353535}.prefix__st13{opacity:8.000000e-002}</style><g id="prefix__background"><path class="prefix__st0" d="M494.2 982.2H238.3c-1.9 0-1.9 3 0 3h255.9c1.9 0 1.9-3 0-3zM799.8 967.2h274.1c1.9 0 1.9-3 0-3H799.8c-1.9 0-1.9 3 0 3zM1090.4 967.2h164.1c1.9 0 1.9-3 0-3h-164.1c-1.9 0-1.9 3 0 3zM1278.6 967.2h28.6c1.9 0 1.9-3 0-3h-28.6c-1.9 0-2 3 0 3z"/><path class="prefix__st1" d="M1143.9 963.8V862.9c0-1.9-3-1.9-3 0v100.9c0 1.9 3 1.9 3 0z"/><path class="prefix__st1" d="M1143 864.4h181c1.9 0 1.9-3 0-3h-181c-1.9 0-1.9 3 0 3z"/><path class="prefix__st1" d="M1323.1 865.4v96c0 1.9 3 1.9 3 0v-96c0-2-3-2-3 0zM1159.8 874.5v72.1c0 1.9 3 1.9 3 0v-72.1c0-1.9-3-1.9-3 0zM1183.1 875.1v65.4c0 1.9 3 1.9 3 0v-65.4c0-1.9-3-1.9-3 0zM1208.8 873.3v64.8c0 1.9 3 1.9 3 0v-64.8c0-1.9-3-1.9-3 0zM1235.1 877.6v66c0 1.9 3 1.9 3 0v-66c0-1.9-3-2-3 0zM1260.7 878.8v67.9c0 1.9 3 1.9 3 0v-67.9c0-1.9-3-1.9-3 0zM1292.5 879.4v64.2c0 1.9 3 1.9 3 0v-64.2c0-1.9-3-1.9-3 0zM1313.9 882.5V940c0 1.9 3 1.9 3 0v-57.5c0-2-3-2-3 0zM1075.5 379.2h297.2c1.9 0 1.9-3 0-3h-297.2c-2 0-2 3 0 3z"/><path class="prefix__st1" d="M1077 376.8v-19.7c0-1.9-3-1.9-3 0v19.7c0 2 3 2 3 0z"/><path class="prefix__st1" d="M1075.5 359.5H1370c1.9 0 1.9-3 0-3h-294.5c-2 0-2 3 0 3z"/><path class="prefix__st1" d="M1369.4 358.9v19.7c0 1.9 3 1.9 3 0v-19.7c0-1.9-3-1.9-3 0zM1106.8 280.8c.9 6.8 1.9 13.8.9 20.7-.9 6.6-3.8 12.5-6.3 18.6-4.8 11.5-7.3 23.5-7.2 35.9 0 1.9 3 1.9 3 0 0-14.2 3.6-26.8 9.1-39.7 2-4.7 3.8-9.5 4.5-14.6.9-7 0-13.9-.9-20.9-.4-1.9-3.4-1.9-3.1 0z"/><path class="prefix__st1" d="M1109.2 282.1c3.3-1.6 7-2.2 10.7-1.4 2.1.5 2.5 1.7 3.1 3.5.3.9.4 1.3 1 2.1 1.2 1.5 3.3-.6 2.1-2.1-.8-1 0-3-1.1-4.2-1.1-1.4-3.3-1.9-4.9-2.2-4.3-.8-8.6-.1-12.5 1.8-1.7.7-.2 3.3 1.6 2.5z"/><path class="prefix__st1" d="M1123.1 283c-.9 12.1 2.2 22.8 7.8 33.4 6.7 12.7 7.8 25.9 8.2 40.1.1 1.9 3.1 1.9 3 0-.4-12.1-.8-24.6-5.8-35.8-2.6-5.9-6.1-11.2-8-17.4-2.1-6.6-2.7-13.4-2.2-20.3.2-1.9-2.9-1.9-3 0zM1170.5 355.6c1.4-2.7.1-5.6 1.9-7.9 2.8-3.4 11.7-3.3 15.7-3.7 8.9-.9 17.7-.8 26.6-.1 8.9.7 17.8 1.9 26.8 2.3 4.4.2 8.8.1 13.2 0 4.4-.1 16.5 1.3 11.9 8.8-1 1.6 1.6 3.2 2.6 1.5 4.1-6.6-2.7-12.5-9-13.3-5.5-.7-11.2.2-16.8 0-6.7-.2-13.4-.9-20.1-1.6-12.7-1.2-25.3-1.9-38-.4-4.4.5-11 .5-14.8 3-3.8 2.5-.9 6.3-2.6 9.7-.9 1.9 1.7 3.5 2.6 1.7z"/><path class="prefix__st1" d="M1207.1 340.9c.9-2.2.4-4.4 1.1-6.6 1.8-5.6 8.9-3.9 13.2-3.9 8 0 15.9 0 23.9.1 15.9 0 31.8.1 47.8.1-.5-.4-1-.7-1.4-1.1 1.1 5.1 2 10.2 2.7 15.4.2 1.9 3.2 1.9 3 0-.7-5.5-1.6-10.9-2.8-16.2-.1-.6-.8-1.1-1.4-1.1-19.2-.1-38.5-.1-57.7-.2h-13.9c-3.5 0-7.5-.6-11 .2-6.5 1.5-4.2 7.8-6.1 12.5-1 1.8 1.9 2.6 2.6.8z"/><path class="prefix__st1" d="M1268.2 348.6c8.7.5 17.4.3 26-.7 1.9-.2 1.9-3.2 0-3-8.7 1-17.3 1.2-26 .7-1.9-.2-1.9 2.8 0 3z"/><path class="prefix__st1" d="M1267.9 329.3c2 5.2 2.9 10.6 2.7 16.2-.1 1.9 2.9 1.9 3 0 .2-5.9-.8-11.5-2.8-17-.7-1.8-3.6-1-2.9.8zM1332.3 265.4v25c0 7.9.6 16.2-.9 24-1.4 7.5-5.4 13.6-9.4 19.9-4.3 7-8.2 14.2-11.8 21.6-.8 1.7 1.8 3.3 2.6 1.5 3.8-7.9 8-15.6 12.7-23.1 3.8-6 7.4-12 8.7-19.1 1.3-7.2 1-14.6 1-21.8v-28c.1-1.9-2.9-1.9-2.9 0z"/><path class="prefix__st1" d="M1334.8 267.3c4.9-2.7 10.4-2.6 15.2.2 1.7 1 3.2-1.6 1.5-2.6-5.7-3.4-12.5-3.5-18.2-.2-1.7.9-.2 3.5 1.5 2.6z"/><path class="prefix__st1" d="M1347.6 266.4c0 9.2-.1 18.5-.1 27.7 0 7.4-.7 15.2.3 22.6 1 7 4.8 12.2 8.9 17.7 5.1 6.7 8.7 13.7 10.5 22 .4 1.9 3.3 1.1 2.9-.8-1.4-6.7-4-13-7.8-18.7-4.2-6.3-9.9-11.6-11.3-19.4-1.5-8.2-.5-17.2-.5-25.4 0-8.6.1-17.2.1-25.8 0-1.8-3-1.8-3 .1zM1189.3 411.2v112.9c0 1.9 3 1.9 3 0V411.2c0-2-3-2-3 0z"/><path class="prefix__st1" d="M1193 411.5h156.3c1.9 0 1.9-3 0-3H1193c-1.9 0-1.9 3 0 3zM1191.2 525.4h149.5c1.9 0 1.9-3 0-3h-149.5c-2 0-2 3 0 3z"/><path class="prefix__st1" d="M1346 412.1v111.8c0 1.9 3 1.9 3 0V412.1c0-1.9-3-1.9-3 0z"/><path class="prefix__st1" d="M1339.8 525.9h6.1c1.9 0 1.9-3 0-3h-6.1c-1.9 0-1.9 3 0 3zM1203 445.2l130.3.3c1.9 0 1.9-3 0-3l-130.3-.3c-1.9 0-1.9 3 0 3zM1207.1 474.5l125.9-.3c1.9 0 1.9-3 0-3l-125.9.3c-1.9 0-1.9 3 0 3zM1209.5 503.7h125.1c1.9 0 1.9-3 0-3h-125.1c-1.9 0-1.9 3 0 3z"/><path class="prefix__st1" d="M1229.6 444.1v58.5c0 1.9 3 1.9 3 0v-58.5c0-1.9-3-1.9-3 0zM1264.9 445v55.6c0 1.9 3 1.9 3 0V445c0-2-3-2-3 0zM1299.8 443.7v56.5c0 1.9 3 1.9 3 0v-56.5c0-1.9-3-1.9-3 0zM1331.5 444.6v56.5c0 1.9 3 1.9 3 0v-56.5c0-2-3-2-3 0zM1214.4 479c-3.9 3.2-8 8.3-5.2 13.6 1 1.9 2.7 3.4 4.9 3.7 2.8.4 5-1.5 6.9-3.3 1.4-1.3-.7-3.5-2.1-2.1-1.5 1.4-3.2 3.1-5.3 2.1-1.5-.7-2.3-2.5-2.3-4.1 0-3.2 2.9-5.8 5.2-7.7 1.5-1.3-.6-3.4-2.1-2.2zM1248.6 490.9c-3.7-1.7-4.5-6.9-.4-8.8 2.5-1.1 3.4 1.9 3.7 3.8.3 1.6-.5 5.7-3.1 4-1.6-1-3.1 1.6-1.5 2.6 2.8 1.8 6.3-.1 7.4-3 .8-2.3.1-4.7-.7-6.9-.6-1.7-1.3-3.2-3.1-3.8-3.5-1-7.2 2.1-8.2 5.3-1.2 3.7.9 7.7 4.3 9.3 1.8.9 3.3-1.7 1.6-2.5zM1221.1 478.7c-.2-.3-.2-.7.2-.8-.3-.2-.6-.3-.9-.5.4 1.1-.3 2.3-.3 3.5 0 .8.4 1.6 1.1 2.1 1.5 1.1 3.5.5 4.3-1.1.4-.9-.9-1.6-1.3-.8-.8 1.6-2.8.9-2.6-.8.1-1.1.6-2.1.2-3.3-.1-.4-.5-.7-.9-.5-1.2.4-1.9 1.9-1.1 3 .5.8 1.8 0 1.3-.8zM1256 478.1c1-.2 1.9-.5 2.9-.7.9-.2.5-1.7-.4-1.4-1 .2-1.9.5-2.9.7-.9.2-.5 1.7.4 1.4z"/><path class="prefix__st1" d="M1255.5 478.1c.2.5.3 1.1.5 1.6.1.3.4.6.7.6.5-.1 1.2-.2 1.6 0 .2.1.4.3.4.5s-.2 0-.1.1c-.6-.7-1.7.3-1.1 1.1.9 1 2.7.2 2.7-1.1 0-1.9-2.1-2.2-3.5-2 .2.2.5.4.7.6-.2-.5-.3-1.1-.5-1.6-.2-1.2-1.6-.8-1.4.2zM1241.7 451.1c.4 4.1.4 8.1-.1 12.2-.1 1 1.4 1 1.5 0 .4-4.1.5-8.1.1-12.2-.1-1-1.6-1-1.5 0z"/><path class="prefix__st1" d="M1243.2 458.1c3-.3 5-2.9 4.4-5.9-.2-.9-1.4-.6-1.5.2-.4 3.7-.5 7.5-.3 11.2 0 1 1.5 1 1.5 0-.2-3.8-.1-7.5.3-11.2-.5.1-1 .1-1.5.2.4 2-1 3.8-3 4-.8.1-.8 1.6.1 1.5zM1251.7 450c.1-.2.1-.3.2-.5-.2.1-.5.1-.7.2.6.2.7 1.2.2 1.6-.5.3-.5 1.2.2 1.4.6.1 1.1.2 1.7.3-.1-.4-.3-.7-.4-1.1-.4.7-.9 1.3-1.6 1.6-.9.4-.5 1.8.4 1.4 1.1-.5 2-1.2 2.5-2.3.2-.4.1-1-.4-1.1-.6-.1-1.1-.2-1.7-.3.1.5.1.9.2 1.4 1.7-1.1 1.3-3.7-.6-4.3-.2-.1-.5 0-.7.2-.6.6-.7 1.2-.6 1.9 0 1 1.4.6 1.3-.4zM1285.3 452.7c-4.6-3.2-11.4 4.4-8.9 8.9 1.1 2 3.7 3 5.8 2 2-.9 2.8-3.7.5-4.8-.1.5-.1.9-.2 1.4l3.3-.6c.9-.2.5-1.6-.4-1.4l-3.3.6c-.6.1-.8 1.1-.2 1.4.5 1.4.2 2.2-.8 2.3-.4.2-.9.2-1.3.1-.5-.1-1.1-.4-1.4-.7-1.4-1.3-1.1-3.3-.2-4.7 1.2-2 4-4.6 6.4-3 .7.3 1.5-1 .7-1.5zM1289.6 452.7c.2 1.5.4 3.1.6 4.6.1.8.3 1.6.3 2.3 0 .5-.1.9-.1 1.4-.3 1.4-1.2 1.5-2.4.5.1-.9-1.3-1.4-1.4-.4-.3 2.3 2.1 3.8 4 2.4 1.1-.8 1.5-2.1 1.6-3.4.1-2.4-.5-5-.8-7.4-.4-1-1.9-1-1.8 0z"/><path class="prefix__st1" d="M1287.8 451.7c1.7.4 3.3.6 5.1.5 1-.1 1-1.6 0-1.5-1.6.1-3.1 0-4.7-.4-1-.3-1.4 1.2-.4 1.4zM1272.9 481.7c.4 3.2.4 6.3 0 9.5-.1 1 1.4.9 1.5 0 .4-3.3.4-6.6-.1-9.9-.1-.9-1.5-.5-1.4.4z"/><path class="prefix__st1" d="M1274 488.6c3.7 1.2 4.8-3.1 4.8-5.8 0-1-1.4-.9-1.5 0-.3 3.3-.5 6.7-.6 10.1 0 1 1.5 1 1.5 0 .1-3.4.3-6.7.6-10.1h-1.5c0 1.7-.2 5.2-2.9 4.4-1-.3-1.4 1.2-.4 1.4zM1279.8 490.3c.1 1 .2 2 .1 2.9 0 .4.4.7.8.8.5 0 1.1.1 1.6.1 1 0 1-1.5 0-1.5-.5 0-1.1-.1-1.6-.1l.8.8c0-1 0-2-.1-2.9-.1-.4-.3-.7-.8-.8-.5 0-.9.3-.8.7zM1288.7 492c-1-1.4-1.5-3-1.6-4.8 0-1.1.1-3.8 1.1-4.6 2.1-1.8 3 3.3 3.1 4.5.1.9.1 1.9-.1 2.8-.1.7-1.1 4-2.7 1.9-.6-.8-1.6.3-1.1 1.1 1.6 2 4.1.6 4.9-1.3 1.1-2.9.7-7.4-1.1-9.9s-3.9-1-4.8 1.3c-1.3 3.2-.8 6.9 1.1 9.7.4.9 1.7.1 1.2-.7zM1314.9 454.2c-1.6-1.3-3.7-1.3-5.4-.2-2.1 1.4-2.7 4.1-2.9 6.4-.1 2.2.5 4.4 3 4.7 2.5.3 4.2-1.7 5.6-3.6.6-.8-.7-1.5-1.3-.8-.9 1.2-2 2.7-3.7 2.8-2.2.1-2.2-2.3-2.1-3.8.2-2.4 2.5-7.1 5.6-4.6.8.8 1.9-.3 1.2-.9zM1319.9 461.6c-.6-.8-1.1-1.7-1.3-2.7-.2-.8-.5-2.6 0-3.3.5-.2 1-.5 1.5-.7.4.3.7.8.9 1.3.2.4.3.9.4 1.3.1.6.3 1.2.2 1.8-.1.7-.9 2.2-1.9 1.2-.7-.7-1.7.4-1.1 1.1 1.3 1.3 3.4.7 4.2-.9.9-1.9 0-5.2-1.4-6.6-1.6-1.5-3.6-.7-4.2 1.3-.7 2.5 0 5.1 1.5 7.1.5.6 1.8-.1 1.2-.9zM1322.7 450.8c0 .1 0 .1 0 0 .1 0 .3-.1.5-.1-.2 0 0 1.4.1 1.7l.3.6c.3.4.7.6 1.2.7.9.2 1.9-.2 2.3-1.1.4-.9-.9-1.6-1.3-.8-.2.5-.9.5-1.1 0-.3-.8-.3-1.6-1.4-1.8-.8-.1-1.4.6-1.2 1.3.2.7 1.1 1 1.7.5.7-.6-.4-1.6-1.1-1zM1208.4 451.8c-.5 5.2-.6 10.5-.3 15.7 0 1 1.5 1 1.5 0-.2-5.2-.1-10.5.3-15.7 0-1-1.5-1-1.5 0z"/><path class="prefix__st1" d="M1209.7 455c2-.2 3 .4 2.9 1.7 0 .6 0 1.1-.2 1.7-.3 1.4-.9 2.6-2.4 3.2-.6.2-.8 1.3 0 1.4 2.9.6 5.3 2 7 4.4.6.8 1.9 0 1.3-.8-2-2.7-4.6-4.4-7.9-5.1v1.4c3.6-1.4 5.3-7.6 2.2-10.4-2.6-2.3-6.6.8-4 3.4.7.8 1.8-.2 1.1-.9zM1220.4 464.6c-.1.4 0 1.1.1 1.6.1.6.3 1.1.8 1.4.9.7 2.1.2 3.1-.2.9-.4.1-1.7-.8-1.3-.3.2-.7.4-1.1.4-.5 0-.5-.4-.5-.9 0-.7-.1-1.4-.5-2-.7-.8-2.3-.6-2.5.5-.2 1 1.2 1.4 1.4.5zM1306.6 481.8c.1 4.7.1 9.4-.2 14-.1.8 1.3 1 1.5.2.1-.4.2-.8.3-1.1.2-.9-1.2-1.3-1.4-.4-.1.4-.2.8-.3 1.1.5.1 1 .1 1.5.2.3-4.7.4-9.4.2-14-.2-1-1.7-1-1.6 0z"/><path class="prefix__st1" d="M1306.6 482.3c.8 4 2 7.9 3.6 11.7.3.8 1.4.7 1.5-.2.6-4.4 1.1-8.7 1.7-13.1.1-1-1.4-.9-1.5 0-.6 4.4-1.1 8.7-1.7 13.1.5-.1 1-.1 1.5-.2-1.6-3.8-2.8-7.7-3.6-11.7-.3-1-1.7-.6-1.5.4zM1316 493.5c-.4-.7-.9-1.6-.8-2.4.1-.4.6-1.2 1.1-.9.5.2.4 1.7.3 2.2-.1.5-.7 1.5-1.3.8-.6-.7-1.7.3-1.1 1.1.9 1 2.6.7 3.4-.4.8-1.2.9-3.6-.1-4.7-.9-1-2.5-.5-3.2.4-1.2 1.4-.3 3.3.4 4.7.5.8 1.8 0 1.3-.8zM1320 480.7c.6 4.8.8 9.5.5 14.3-.1 1 1.4 1 1.5 0 .3-4.8.1-9.5-.5-14.3-.2-.9-1.7-.9-1.5 0z"/><path class="prefix__st1" d="M1321.7 483.7c-.1-.8-.2-1.9.8-2.1 1-.2 1.5 1 1.6 1.8.2 1.6-.8 3.2-2.1 4.1-.8.5-.1 1.8.8 1.3 2.5-1.6 4.1-5.4 1.8-7.9-.8-.9-2.2-1.3-3.2-.6-1.2.8-1.2 2.4-1 3.7 0 1 1.5.6 1.3-.3zM1325.1 477.3c-.5 1.1-.1 2.4.7 3.2.8.7 2.4 1 3-.2.4-.9-.9-1.6-1.3-.8-.1.2.1.1 0 .1h-.3c-.2-.1-.4-.3-.5-.5-.3-.5-.3-1-.1-1.5.2-.4-.2-.8-.5-.9-.5 0-.8.3-1 .6zM1202 443.7v58.1c0 1.9 3 1.9 3 0v-58.1c0-1.9-3-1.9-3 0z"/><path class="prefix__st1" d="M1203.9 503.7h130.2c1.9 0 1.9-3 0-3h-130.2c-1.9 0-1.9 3 0 3zM245.4 749.4v78.8c0 1.9 3 1.9 3 0v-78.8c0-1.9-3-1.9-3 0z"/><path class="prefix__st1" d="M250.2 750.9h153.2c1.9 0 1.9-3 0-3H250.2c-2 0-2 3 0 3zM250.2 830.8h145.7c1.9 0 1.9-3 0-3H250.2c-2 0-2 3 0 3z"/><path class="prefix__st1" d="M400.8 751.6v72.3c0 1.9 3 1.9 3 0v-72.3c0-1.9-3-1.9-3 0zM316.7 708.4v24.8c0 1.9 3 1.9 3 0v-24.8c0-1.9-3-1.9-3 0z"/><path class="prefix__st1" d="M319.2 709.9h99.3c1.9 0 1.9-3 0-3h-99.3c-1.9 0-1.9 3 0 3zM320.3 735.8h96c1.9 0 1.9-3 0-3h-96c-1.9 0-1.9 3 0 3z"/><path class="prefix__st1" d="M415.9 712.7v20.5c0 1.9 3 1.9 3 0v-20.5c0-1.9-3-1.9-3 0zM487.9 207.7c6.9-.3 13.7-1.1 20.4-2.4 1.9-.4 1.1-3.3-.8-2.9-6.5 1.2-13 2-19.6 2.3-2 .1-2 3.1 0 3z"/><path class="prefix__st1" d="M508.3 203.4c-2.9-10.8-2.9-22.1.4-32.8 2.8-9.3 11.2-25.5 23.5-19.7 10.4 4.9 11.8 19.6 13.5 29.6 2.1 11.9 3.1 24 3.3 36.1 0 1.9 3 1.9 3 0-.3-15.2-1.9-30.3-5-45.2-2.1-9.9-6.1-23.4-18.2-24.6-10.7-1-17.8 9.6-21.3 18.2-5 12.5-5.6 26.3-2.1 39.2.5 1.9 3.4 1.1 2.9-.8z"/><path class="prefix__st1" d="M488.9 203.4c-3.7-16.2-2-33.5 5.3-48.5 6.5-13.2 19.2-26.1 34.8-26.4 17.2-.3 28.7 15 33.5 29.9 5.4 16.7 6.7 35.1 6.6 52.6 0 1.9 3 1.9 3 0 .1-16.2-1.2-32.8-5.3-48.5-3.2-12.3-9.2-24.4-20.1-31.6-22.9-15.2-47.6 4.7-56.7 26-6.4 15-7.7 31.5-4.1 47.4.5 1.8 3.4 1 3-.9z"/><path class="prefix__st1" d="M549.4 218.9c7.9 4.9 18.6 1.1 22-7.4.7-1.8-2.2-2.6-2.9-.8-2.7 6.8-11.4 9.5-17.5 5.6-1.7-1-3.2 1.6-1.6 2.6zM484 245.4v76.1c0 1.9 3 1.9 3 0v-76.1c0-1.9-3-1.9-3 0z"/><path class="prefix__st1" d="M486.6 247.6c29.9-5.1 59.3-12.3 88.1-21.6 1.8-.6 1-3.5-.8-2.9-28.8 9.4-58.2 16.6-88.1 21.6-1.9.3-1 3.2.8 2.9zM575.3 227.8v71.3c0 1.9 3 1.9 3 0v-71.3c0-1.9-3-1.9-3 0zM487.4 324.9c29.7-4.7 59-11.8 87.6-21.2 1.8-.6 1-3.5-.8-2.9-28.6 9.4-57.9 16.5-87.6 21.2-1.9.3-1.1 3.2.8 2.9zM530.2 272.1c-1-2.6-2.2-5.5-2.3-8.3-.1-3.4 2.2-7.9 6.2-6.9 6.1 1.5 4.4 11.3 2.2 15.1-1 1.7 1.6 3.2 2.6 1.5 3.3-5.6 4.2-18.4-4.6-19.8-3.5-.5-6.8 1.9-8.4 5-2.3 4.6-.4 9.9 1.3 14.3.8 1.7 3.7.9 3-.9z"/><path class="prefix__st1" d="M527.8 271.8c.4 7.2.8 14.5 1.2 21.7.2 3.2 1.8 5 5.4 4.2 3.4-.8 5.1-3.7 5.5-6.9.4-3.3-.5-6.7-.8-9.9-.3-3.8-.3-7.6 0-11.5.1-1.9-2.9-1.9-3 0-.2 3.8-.3 7.6 0 11.5.2 2.6 2.7 12.7-1.4 13.5-4.2.8-3.1-8.2-3.3-10.7-.2-3.9-.4-7.9-.7-11.8 0-2-3-2-2.9-.1zM750 215.9v64.5c0 1.9 3 1.9 3 0v-64.5c0-1.9-3-1.9-3 0zM690.3 286.8h112.4c1.9 0 1.9-3 0-3H690.3c-1.9 0-1.9 3 0 3zM788 290.3v51.2c0 1.9 3 1.9 3 0v-51.2c0-1.9-3-1.9-3 0zM252.2 508.4h109.1c1.9 0 1.9-3 0-3H252.2c-1.9 0-1.9 3 0 3z"/><path class="prefix__st1" d="M313.3 503.6v-28.1c0-1.9-3-1.9-3 0v28.1c0 1.9 3 1.9 3 0zM346.6 511.8v33.1c0 1.9 3 1.9 3 0v-33.1c0-1.9-3-1.9-3 0zM1121.8 700.1h135.6c1.9 0 1.9-3 0-3h-135.6c-1.9 0-1.9 3 0 3z"/><path class="prefix__st1" d="M1206 697v-29.8c0-1.9-3-1.9-3 0V697c0 1.9 3 1.9 3 0z"/><path class="prefix__st1" d="M1187.9 668.7h105.8c1.9 0 1.9-3 0-3h-105.8c-1.9 0-1.9 3 0 3zM332.3 1091.7h197c1.9 0 1.9-3 0-3h-197c-2 0-2 3 0 3zM416.4 1075.6h214.9c1.9 0 1.9-3 0-3H416.4c-1.9 0-1.9 3 0 3zM557.9 1127.5h132.5c1.9 0 1.9-3 0-3H557.9c-2 0-2 3 0 3zM729.8 1070.2h82.4c1.9 0 1.9-3 0-3h-82.4c-2 0-2 3 0 3zM955.4 1039.8h177.3c1.9 0 1.9-3 0-3H955.4c-2 0-2 3 0 3zM1080.7 998.6H1292c1.9 0 1.9-3 0-3h-211.3c-1.9 0-1.9 3 0 3zM1204.2 1038h211.3c1.9 0 1.9-3 0-3h-211.3c-1.9 0-1.9 3 0 3zM1121.9 1102.4h94.9c1.9 0 1.9-3 0-3h-94.9c-2 0-2 3 0 3z"/></g><g id="prefix__machine"><path class="prefix__st2" d="M648.5 1064.2c-50.2 39.2-100.3 78.4-150.5 117.6-67.5-29.4-134.9-58.8-202.4-88.2L510.1 976c11.1-1.4 20.9-1.1 29.4 0 65.5 8.8 101.9 74.7 109 88.2z"/><path class="prefix__st3" d="M497.6 529.1l-3 453.8 147.6 93c52.2-36.7 104.4-73.4 156.7-110.2-.3-127.3-.7-254.7-1-382-43.5-37.7-86.9-75.5-130.4-113.2-56.7 19.5-113.3 39-169.9 58.6z"/><path class="prefix__st0" d="M641.2 657.3v419.1c0 1.9 3 1.9 3 0V749.1v-91.8c0-1.9-3-2-3 0zM796.6 584.7c.2 99.5.3 199.1.5 298.6 0 27.9.1 55.7.1 83.6 0 1.9 3 1.9 3 0-.2-99.5-.3-199.1-.5-298.6 0-27.9-.1-55.7-.1-83.6-.1-1.9-3.1-1.9-3 0z"/><path class="prefix__st0" d="M496.8 529.7c43.2-14.5 86.5-29 129.7-43.5 10.7-3.6 21.3-7.1 32-10.7 2.3-.8 5.1-2.4 7.6-1.6 1.9.6 4.5 3.8 6.1 5.2 4.5 3.9 9.1 7.7 13.6 11.6 17.2 14.6 34.3 29.2 51.5 43.8 19.7 16.8 39.4 33.5 59.1 50.3l.3-2.4c-50.6 25.4-101.6 49.7-153.2 73.1.6.1 1.2.2 1.8.2-16.6-14.4-33.2-28.9-49.8-43.3-26.6-23.1-53.2-46.3-79.8-69.4-6.1-5.3-12.1-10.6-18.2-15.9-1-.8-2.6-.3-2.6 1.1V980.5c0 2-.4 3.7 1 5.1 1.2 1.3 3.3 2.1 4.8 3.1 3.4 2.2 6.8 4.3 10.1 6.5 42.6 27.1 85.1 54.1 127.7 81.2 1.1.7 2.2 1.4 3.2 2.1.4.3 1.1.3 1.5 0 51.9-36.9 103.8-73.7 155.6-110.6 1.6-1.1.1-3.7-1.5-2.6l-81.9 58.2c-13.8 9.8-27.6 19.6-41.3 29.4-6.8 4.8-13.5 9.6-20.3 14.4-2.9 2.1-7.4 4.2-9.7 6.9-.7.8-.6 1.6-1.2 1.6-1.4 0-4.5-2.9-5.6-3.6-4-2.6-8-5.1-12.1-7.7l-36.3-23.1c-25.7-16.4-51.4-32.7-77.2-49.1-3.6-2.3-7.1-4.5-10.7-6.8-.9-.6-1.9-1.4-2.9-1.8-.7-.3-1.3-1.3-.7 0 .7 1.5.3-.7.4-1.3.1-1.8 0-3.6 0-5.4v-50.5-84-99-97.2-77.1-25.3c0-4.4.6-9.3 0-13.7-.1-.6 0-1.2 0-1.8-.9.4-1.7.7-2.6 1.1 16.6 14.4 33.2 28.9 49.8 43.3 26.6 23.1 53.2 46.3 79.8 69.4 6.1 5.3 12.1 10.6 18.2 15.9.6.5 1.2.5 1.8.2 51.5-23.4 102.6-47.7 153.2-73.1.8-.4 1-1.8.3-2.4l-106.8-90.9c-4.3-3.7-8.6-7.3-12.9-11-2-1.7-4-3.4-6.1-5.2-1.6-1.3-4.4-4.7-6.4-5.4-1.4-.5-2.6.3-4 .8-2.8.9-5.6 1.9-8.5 2.8-5.6 1.9-11.3 3.8-16.9 5.7-21.9 7.3-43.9 14.7-65.8 22-25.1 8.4-50.1 16.8-75.2 25.2-1.6.6-.8 3.5 1.1 2.9z"/><path class="prefix__st0" d="M517.5 994.6v-59c0-1.9-3-1.9-3 0v59c0 1.9 3 1.9 3 0z"/><path class="prefix__st0" d="M515.3 934.2c23.4 13.1 46.5 26.8 69.2 41.1 1.6 1 3.1-1.6 1.5-2.6-22.7-14.3-45.8-28-69.2-41.1-1.7-.9-3.2 1.7-1.5 2.6z"/><path class="prefix__st0" d="M584 974.6c-1.3 20.5-2.6 41.1-3.9 61.6-.1 1.9 2.9 1.9 3 0 1.3-20.5 2.6-41.1 3.9-61.6.1-1.9-2.9-1.9-3 0zM527.1 956c-1.7 13.8-2.7 27.6-2.9 41.4 0 1.9 3 1.9 3 0 .2-13.9 1.2-27.7 2.9-41.4.3-2-2.7-1.9-3 0zM543 963.1c-1.8 14.3-3.1 28.6-3.8 42.9-.1 1.9 2.9 1.9 3 0 .8-14.3 2-28.7 3.8-42.9.3-1.9-2.7-1.9-3 0zM559.4 973.7c-2.2 14.5-3.8 29.1-4.7 43.7-.1 1.9 2.9 1.9 3 0 .9-14.4 2.4-28.7 4.6-42.9.3-1.9-2.6-2.7-2.9-.8zM571.6 980.7c-.9 12.9-1.8 25.7-2.6 38.6-.1 1.9 2.9 1.9 3 0 .9-12.9 1.8-25.7 2.6-38.6.1-1.9-2.9-1.9-3 0zM517.3 924.1c25.5 13.3 50.6 27.4 75.2 42.3 1.7 1 3.2-1.6 1.5-2.6-24.6-14.9-49.7-29.1-75.2-42.3-1.7-.9-3.3 1.7-1.5 2.6z"/><path class="prefix__st0" d="M519.1 921.8v-15.5c0-1.9-3-1.9-3 0v15.5c0 2 3 2 3 0z"/><path class="prefix__st0" d="M517.4 905.9c26.7 12.8 52.5 27.4 77.2 43.6 1.6 1.1 3.1-1.5 1.5-2.6-24.7-16.3-50.5-30.8-77.2-43.6-1.7-.8-3.2 1.7-1.5 2.6z"/><path class="prefix__st0" d="M593 950.4c-.5 4.5-1 9.1-1.5 13.6-.2 1.9 2.8 1.9 3 0 .5-4.5 1-9.1 1.5-13.6.2-1.9-2.8-1.9-3 0zM652.7 669.2c38.9-17.1 77-36.1 114-57 1.7-.9.2-3.5-1.5-2.6-37.1 20.8-75.1 39.8-114 57-1.8.8-.3 3.4 1.5 2.6z"/><path class="prefix__st0" d="M650.3 667.7v24.9c0 1.9 3 1.9 3 0v-24.9c0-1.9-3-1.9-3 0z"/><path class="prefix__st0" d="M653.1 692.6c27.1-12 53.6-25.3 79.5-39.8 1.7-.9.2-3.5-1.5-2.6-25.9 14.5-52.4 27.7-79.5 39.8-1.7.8-.2 3.4 1.5 2.6zM651.9 803.6v217.7c0 1.9 3 1.9 3 0V803.6c0-1.9-3-1.9-3 0zM660.3 921.8V1040c0 1.9 3 1.9 3 0V921.8c0-1.9-3-1.9-3 0zM501 551.8v153.1c0 1.9 3 1.9 3 0V551.8c0-1.9-3-1.9-3 0zM509.6 662.5v177.1c0 1.9 3 1.9 3 0V662.5c0-1.9-3-1.9-3 0z"/><path class="prefix__st4" d="M495.2 529v455.1c49.2 31 98.3 62 147.5 93V655.5c-49.2-42.1-98.3-84.3-147.5-126.5z"/><path class="prefix__st5" d="M499.4 582.7c14.9 72.2 29.5 132.2 41.1 176.8 18 69.4 27.2 96.4 39.4 124 20.9 47.3 44.5 83.4 62 107.3.6-69.6 1.1-139.1 1.7-208.7 4.9 97.3 48.9 158.4 83.8 157.6 28.2-.7 55.8-41.6 71.2-91.4v119c-51.7 36-103.4 72.1-155 108.1-48.9-30.7-97.8-61.5-146.7-92.2.8-133.5 1.6-267 2.5-400.5z"/></g><g id="prefix__holograme"><path d="M819.3 535.4c-46.2 26.1-92.3 52.2-138.5 78.3-27.4-37.1-54.9-74.3-82.3-111.4 52.8-20.7 105.7-41.5 158.5-62.2 20.8 31.8 41.6 63.5 62.3 95.3z" opacity=".39" fill="#6b6b6b"/><path d="M615.8 510.7c5.1 3.4 10.2 6.8 15.4 10.2.8.5 2 0 2.2-.9 2.2-10.2 5.7-19.8 10.7-28.9.9-1.7-1.7-3.2-2.6-1.5-5.1 9.4-8.7 19.3-11 29.7.7-.3 1.5-.6 2.2-.9-5.1-3.4-10.2-6.8-15.4-10.2-1.6-1.2-3.1 1.4-1.5 2.5z" fill="#3f3f3f" opacity=".39"/><path class="prefix__st9" d="M656.9 489.6c1.7-2.6 4-4.6 6.9-5.8.9-.4.1-1.7-.8-1.3-3.1 1.4-5.6 3.6-7.4 6.4-.5.8.8 1.5 1.3.7z"/><path class="prefix__st9" d="M657 495.9c2-6.2 7.6-10.7 14.1-11.4 1-.1 1-1.6 0-1.5-7.2.7-13.3 5.5-15.5 12.5-.3.9 1.1 1.3 1.4.4z"/><path class="prefix__st9" d="M658.7 501c2.2-8.8 8.4-15.2 17.9-12.1.9.3 1.3-1.1.4-1.4-10.2-3.4-17.3 3.5-19.7 13.1-.3.9 1.1 1.3 1.4.4z"/><path class="prefix__st9" d="M661.7 505.9c.3-4.9 1.1-10.7 5.8-13.5 4.6-2.7 9.8-.8 13.2 2.8.7.7 1.7-.4 1.1-1.1-3.6-3.8-8.9-5.8-13.9-3.6-6 2.6-7.2 9.4-7.6 15.3-.1 1 1.4 1 1.4.1z"/><path class="prefix__st9" d="M666.2 511.6c1-5.7-3.7-10.9 1.4-15.8 3.7-3.5 8.4-1.7 11.4 1.5 2.7 3 3.8 6.9 4.3 10.8.1.9 1.6 1 1.5 0-.8-6.6-5-17-13.6-15.9-3.1.4-5.8 3.1-7 5.9-1.9 4.5 1.4 8.5.6 13-.2 1 1.3 1.4 1.4.5z"/><path class="prefix__st9" d="M669.5 513.9c3.1-5.1-3.4-10-.8-14.7 2.7-5.1 8-1.7 9.8 1.9 1.9 4 1.9 8.5.8 12.7-.2.9 1.2 1.3 1.4.4 1.5-5.8.9-18.7-7.5-19.1-2.7-.1-5.4 1.8-6.2 4.3-1.6 4.8 4.1 9.2 1.3 13.7-.6.9.7 1.7 1.2.8z"/><path class="prefix__st9" d="M673 515c1.6-3.8 1.2-7.4-.7-10.9-.4-.6-.7-1.3-1-2 2.2-1.5 3.5-1.1 3.9 1 .4 1 .7 2 .8 3.1.5 3.1 0 6.1-1.1 9-.4.9 1.1 1.3 1.4.4 1.4-3.5 1.8-7.2.9-10.8-.5-2.3-1.8-6.1-4.7-6.2-1.9-.1-3 1.4-2.9 3.2.1 1.6 1.3 3 1.9 4.4 1.2 2.8 1.1 5.7-.1 8.5-.2.8 1.2 1.2 1.6.3z"/><path class="prefix__st10" d="M740.7 569c.3-1.8.4-3.8-1.3-4.9-1.7-1.1-4.6 0-6.6-.1-3.2-.2-6.4-1.4-9.4-2.4-6.1-2-12.3-4.8-16.7-9.8-2-2.3-4.6-6-4.8-9.2-.4-7.5 3.9-1.7 6.9-.9 1.6.4 2.9.3 3-1.5.1-1.2-.9-1.8-1.7-2.7-2.1-2.2-4.1-4.3-6-6.7-3.8-5-6.8-10.6-8.6-16.6-.7-2.3-3-11.3 1.5-10.7 2.1.2 5.7 5.1 7 6.7l1.1-1.1c-2.9-3.7-7.7-9.2-7.4-14.2.5-9.6 11.6-.4 13.6 3.1l1.2-.9c-1.3-1.5-3.3-4.4-3.3-6.6-.2-6.1 3.2-3.8 5.6-2.2 3.2 2.2 5.5 5.6 7.8 8.7.6.8 1.7.1 1.3-.8-.7-1.3-1.2-2.7-1.6-4.2-.9-1.9-.1-2.9 2.6-3.1 3.7-1.9 3.4-1.4 5.8 1.2 2.7 2.9 4.8 6.3 7 9.6 3.6 5.6 7.7 10.6 11.7 15.8 2.6 3.4 4.7 7 5.8 11.2 1.1 4.1 1 8.3 1.6 12.4.7 4.8 2.7 9.1 7.3 11.3.9.4 1.6-.9.8-1.3-9.4-4.5-6.1-19.2-9.9-27.6-1.7-3.8-4.3-7.1-7-10.3-3.5-4.2-6.4-8.5-9.4-13.1-2.9-4.5-8-14.1-14.2-14.3-6.9-.2-3.3 9.5-1.8 12.8.4-.3.9-.5 1.3-.8-2.5-3.5-9-13.3-14.7-11.4-5 1.7.4 11.1 2.3 13.3.6.7 1.6-.2 1.2-.9-1.8-3.1-4.3-5.6-7.5-7.1-2-.9-6.2-2.5-8.1-.5-1.9 2-.9 6.4-.1 8.7 1.4 4.4 4.3 8.2 7.2 11.8.6.8 1.6-.3 1.1-1.1-1.6-2-6.9-9-10.2-7.9-2.8 1-2.1 7-1.9 8.9.8 6.1 3.8 12.2 7 17.3 1.5 2.4 3.2 4.7 5 6.8.9 1.1 2.8 2.3 3.4 3.6 1.9 1.3 1.5 1.7-1.3 1.2-.8-.5-1.7-.9-2.5-1.4-2.5-1.3-4.1-1.3-4.6 1.9-.6 4.3 2.4 9.5 5 12.6 3.6 4.4 8.6 7.2 13.8 9.3 3.1 1.2 6.4 2.3 9.6 3.1 2.4.6 11.2.2 10.7 3.9-.2 1.7 1.3 2.1 1.4 1.1z"/><path class="prefix__st11" d="M702.8 508.5c4.2 5.1 7.6 10.9 11.3 16.4.5.8 1.8 0 1.3-.8-3.8-5.6-7.3-11.5-11.6-16.7-.6-.7-1.6.3-1 1.1zM709 494.8c4.1 5.6 7.9 11.3 11.5 17.2.5.8 1.8.1 1.3-.8-3.6-5.9-7.4-11.6-11.5-17.2-.5-.7-1.8 0-1.3.8z"/><path class="prefix__st10" d="M598.1 502.5c26.9 37.3 54.4 74.2 82.6 110.5.6.8 1.6-.3 1.1-1.1-28.1-36.3-55.5-73-82.4-110.2-.5-.7-1.8 0-1.3.8z"/></g><g id="prefix__guy"><g id="prefix__leg_back"><path class="prefix__st0" d="M980.5 1020.8c1.6 18.9 3.2 37.7 4.8 56.6-37.7 16.7-55.9 27.4-54.5 32 1.7 5.6 31.8 2.4 90.2-9.6-1.2-32-2.5-64.1-3.7-96.1-12.2 5.7-24.5 11.4-36.8 17.1z"/><path class="prefix__st3" d="M1017.2 615.4c5.7 3.8 6.7 12.3 8.7 29.2 1 8.1 1.5 18.1-1 47.1-.3 3.1-1.1 13-3.6 34.3-3.6 31.2-4.6 34.9-5.6 48.1-.8 10.3-1.3 21.2-1 44.6.3 22.3.6 52.8 4.1 95.3 2.6 31.5 7 70.7 14.9 115.7-7.8 4.1-15.1 6.6-21 8.2-13.1 3.5-23.7 3.6-32.8 3.6-8.7 0-16.3-.7-22.5-1.5-2.9-15.1-6.7-37.8-9.7-65.6-1.6-14.4-2.6-30.3-4.6-61.5-2.8-43.7-4.2-65.5-4.6-84-.2-8.2-.2-15 1-71.2 1.8-84.3 2.5-94.6 11.3-108.1 17.5-27 53-43.2 66.4-34.2z"/><path class="prefix__st0" d="M1024.7 618.2c1.7 27.2 1.2 54.4-1.5 81.5-2.7 26.4-7.2 52.5-8.9 78.9-3.5 54.2.1 108.7 6.1 162.6 3.4 30.1 7.5 60.2 11.7 90.2.3 1.9 3.2 1.1 2.9-.8-7.5-54.1-15-108.3-17.9-162.9-1.4-26.7-1.7-53.6-.4-80.3 1.4-26.6 5.3-52.7 8.5-79.1 3.6-29.9 4.4-60.1 2.5-90.2-.1-1.9-3.1-1.9-3 .1zM938 748.5c-2.4 76 .5 152.1 9 227.7 2.3 21 5.1 41.9 8.3 62.8.3 1.9 3.2 1.1 2.9-.8-11.3-74.7-17.3-150.2-17.9-225.8-.2-21.3.1-42.6.8-63.9 0-2-3-2-3.1 0z"/><path class="prefix__st0" d="M956.2 1041.2c26 5.2 52.9 1.8 76.8-9.8 1.7-.8.2-3.4-1.5-2.6-23.1 11.2-49.3 14.6-74.5 9.5-1.9-.4-2.7 2.5-.8 2.9z"/><path class="prefix__st12" d="M948.3 674.5c-2.7 18.9-5.2 40.4-6.9 64.2-1 13-2.4 35.3-2.6 63.3-.2 23.3.7 43 2.6 81.6 2.1 43.6 3.2 65.9 6.1 90.2 3.3 28 7.4 50.8 10.4 65.9 7 1.5 16.6 2.6 27.8 1.7 7.4-.6 13.8-2 19.1-3.5-8.5-31.8-16.3-65.1-23.4-99.8-19.5-94.8-29.3-183.5-33.1-263.6z"/><path class="prefix__st12" d="M940.5 772.6c4.3 35.8 8.1 66.6 11.3 91.1 8.2 64.1 10.8 80.2 16.5 100.6 9.4 33.8 21.7 59.9 30.4 76.3-6.1 1.5-16 3.1-27.8.9-5.5-1-10.2-2.7-13.9-4.3-4.1-24.3-7.6-49.8-10.4-76.3-7.3-68.3-8.4-131.5-6.1-188.3z"/></g><g id="prefix__leg_front"><path class="prefix__st0" d="M866.8 1031.5c-1.4 19.9-2.8 39.9-4.3 59.8-47 11.6-70.1 20-69.4 25.1.8 6.1 35.5 7.5 104.1 4.3 2.1-28.8 4.3-57.7 6.4-86.5-12.3-1-24.6-1.9-36.8-2.7z"/><path class="prefix__st3" d="M908.3 619.2c-5.9 6.3-9.8 14.3-9.8 14.3-2.4 4.9-3.9 9.1-4.5 12.5-1.1 7.5-2.7 17.9-4.5 30.3-3.9 27.1-6.6 48.3-8 59.7-5 39.5-7.8 65.1-13.4 112.4-8.3 69.9-10.7 85-16.9 141.8-2.3 21.1-4.2 38.5-5.4 49.9 1.7 2.7 4.6 6.5 9.2 9.9 1.1.8 3.2 2.3 9.5 5.3 5.8 2.7 11.7 5.1 14.3 6 15.5 5 43.5-2.5 45-2.9 0-10.9.2-25.6 1-43.1.3-7 1.3-25.9 5.2-62.2 3.5-32.5 6.2-58.2 12.3-92.8 4.4-25.3 8.7-44.6 12.6-61.4 5.9-26.4 11.7-48.9 16.5-66.4l20.7-40.5c2-2.9 20.3-30 9.9-54.6-15.6-37.4-80.8-32-93.7-18.2z"/><path class="prefix__st0" d="M904.9 608.2c-18.7 51.4-22.7 106.9-29 160.8-6.8 57.8-13.6 115.6-20.3 173.5-3.8 32.4-7.6 64.8-11.4 97.1-.2 1.9 2.8 1.9 3 0 6.7-57.5 13.5-115 20.2-172.5 6.6-56.5 12.4-113.1 20.1-169.4 4.1-30.1 9.8-60.1 20.3-88.7.6-1.8-2.3-2.6-2.9-.8zM991.4 691c-15.8 24.9-28.3 51.7-37.1 79.9-.6 1.8 2.3 2.6 2.9.8 8.7-27.9 21.1-54.5 36.8-79.2 1-1.6-1.6-3.2-2.6-1.5z"/><path class="prefix__st0" d="M971.6 727.3c-24.2 83.6-39.7 169.7-45.9 256.5-1.8 24.9-2.8 49.8-3.1 74.7 0 1.9 3 1.9 3 0 1-87.1 11.2-174 30.4-258.9 5.4-24 11.6-47.8 18.5-71.4.5-1.9-2.3-2.7-2.9-.9z"/><path class="prefix__st0" d="M844.5 1041.2c19.7 23.3 52.2 30.4 80 17.9 1.8-.8.2-3.4-1.5-2.6-26.6 11.9-57.6 4.7-76.4-17.5-1.3-1.4-3.4.7-2.1 2.2z"/><path class="prefix__st4" d="M928.3 627.7c11.9 10.9-6.9 46.8-18.2 74.6-16.5 40.6-20 107.7-26.9 242.1-1.5 28.4-3.1 68.2-3.5 116.3-3.5-.5-7.7-1.5-12.1-3.5-11.7-5.1-18.5-13.6-21.7-18.2 2.8-19.9 6.8-50 11.3-86.8 10.3-84.4 12.4-119 20-179.6 4.3-34.3 11-83.5 21.7-143.2-.1 0-.1 0 29.4-1.7z"/><path class="prefix__st4" d="M879.7 759.6c5.3 74.9-.3 122.8-6.9 153.6-5.7 26.4-4.4 53.9-7.8 80.7-1.7 13.1-4 29.6 5.2 45.1 6.6 11.1 16.4 17.4 23.4 20.8-4.1.8-14.8 2.3-26.9-2.6-11.8-4.8-18.4-13-20.8-16.5 4.8-41.6 9.8-83.3 14.7-124.9 6.3-52.2 12.7-104.2 19.1-156.2z"/></g><g id="prefix__hand_back"><path class="prefix__st3" d="M994.3 389.5c-2.1 1.2-1.2 12.9.7 36 .2 1.9.3 4.1.6 7.1.7 6.8 1.6 13.4 2.7 20.5 8.3 53.9 20.1 93.9 20.1 93.9 5.7 19.3 13.8 43.1 25.3 69.6 1.9 3.4 5.7 8.9 12.1 12.1 6.9 3.5 13.1 2.5 22.3.8 17.8-3.3 29.2-11.4 33.3-14.6 6-4.6 13.9-10.7 13.2-17.8-.3-2.5-1.7-6.2-4.8-7.3-2.7-1-6.1.3-8.4 3.2 4.7-6.5 8-12.5 10.2-17 5.1-10.4 5.1-14 4-16.6-.2-.4-1.4-3.2-4-4.5-.7-.3-2.1-.9-6.6 0-5.3 1-6.1 2.3-9.5 2.4-3.2.1-4.2-1-6.6-1.2-3.1-.3-7.7.9-13.9 8.1-1-.8-2.5-1.7-4.4-1.6-3.2.1-5.7 3.1-12.1 14.2-2 3.4-4.5 7.9-7.3 13.4-1.4-6.2-3.5-15.8-5.9-27.5-8.2-41.2-7-49.2-13.2-79.3-8.7-42.8-17.9-60.7-26-72.8-7.8-12.2-18.1-23.3-21.8-21.1z"/><path class="prefix__st0" d="M994.6 391.7c4.5-2.1 9.9 5.9 12.3 8.8 3 3.7 5.8 7.5 8.3 11.5 4.7 7.3 8.6 15.1 11.9 23.2 7.4 17.9 11.7 36.9 15.1 55.9 3.5 19.8 6.3 39.7 9.4 59.5 2.7 17.2 4.5 35.5 14.1 50.5 1 1.6 3.6.1 2.6-1.5-8.5-13.2-10.6-28.9-12.9-44-2.6-17-5.2-34-7.9-51-4.9-30.9-11.1-62.6-27.1-89.9-3.8-6.4-8.1-12.5-12.9-18.2-3.6-4.1-8.3-10.2-14.3-7.4-1.9.8-.4 3.4 1.4 2.6zM994 433.8c3.5 30.8 9.1 61.3 16.9 91.3 7.6 29.2 16.5 59.3 29.3 86.7 5.4 11.4 15.6 24 29.8 20.3 1.9-.5 1.1-3.4-.8-2.9-19.9 5.3-28.5-23.2-33.7-36.7-6.4-16.8-12.1-33.8-17.1-51-10.2-35.2-17.3-71.2-21.5-107.6-.1-2-3.1-2.1-2.9-.1z"/><path class="prefix__st0" d="M1062.9 592.1c2.6-5.3 5.1-10.7 7.7-16 2.7-5.5 6-13.2 13.3-12.5 1.9.2 1.9-2.8 0-3-5.7-.5-9.8 3.2-12.6 7.7-4.3 6.9-7.4 14.9-11 22.2-.8 1.8 1.7 3.3 2.6 1.6z"/><path class="prefix__st0" d="M1077.9 579.4c4.3-7.2 12.5-27.2 23.7-21.1 1.7.9 3.2-1.7 1.5-2.6-13.7-7.5-22.6 13.4-27.8 22.1-1 1.8 1.6 3.3 2.6 1.6z"/><path class="prefix__st0" d="M1086.6 583.1c3.6-5.1 7.3-10.2 10.9-15.3 3.9-5.5 9.1-12.2 16.7-11.1 1.9.3 2.7-2.6.8-2.9-6.3-1-11.4 2-15.5 6.6-5.8 6.4-10.5 14.2-15.5 21.2-1.2 1.5 1.4 3 2.6 1.5zM1095.1 585.3c4.3-5.1 8.5-10.3 12.8-15.4 2.5-3 12.5-18.5 16.7-9.3 1.1 2.3-.7 7-1.5 9.3-1.1 3-2.7 5.8-4.2 8.6-3.4 6.2-6.9 12.3-11.3 17.8-1.2 1.5.9 3.6 2.1 2.1 5.5-7 10.1-14.8 14.1-22.8 2.5-5 6.4-14.1 2.5-19.4-3.9-5.3-10.6-.1-13.6 3.3-6.8 7.7-13.2 15.8-19.7 23.7-1.2 1.4.9 3.5 2.1 2.1z"/><path class="prefix__st0" d="M1113.5 556.6c1.5.2 2.9.6 4.3 1.1.8.3 1.6-.3 1.8-1 .2-.9-.3-1.5-1-1.8-1.6-.6-3.3-1-5.1-1.2-.8-.1-1.5.8-1.5 1.5 0 .8.7 1.3 1.5 1.4zM1114.8 592.4c2.3-2.9 6.8-.9 7.7 2.3.4 1.4.4 3.1.1 4.5-.7 3.3-2.8 6.2-5.1 8.6-4.1 4.4-9 8.2-14.2 11.2-10.4 6-22.2 9-34.1 9.9-1.9.1-1.9 3.1 0 3 18-1.3 35.7-7.5 48.8-20.3 4.8-4.7 9.6-11.3 7.2-18.4-1.8-5.4-8.6-7.9-12.5-3-1.3 1.6.9 3.7 2.1 2.2z"/><path class="prefix__st13" d="M995.5 391.2c2.2 7.9 5.4 20.1 9.1 35.1 9.5 38.9 15.7 71.6 27.3 119.8 11.7 48.6 16.1 59.6 26.9 63.8 12 4.6 35.7 2.3 50.5-10 4.7-3.9 9.4-9.5 11.8-8.2 2.5 1.4 1.8 9.6-1.4 15.9-6 12-20.1 16.1-33.7 20-11.1 3.2-16.7 4.8-23.7 2.7-10.3-3.1-16.2-11.7-19.1-15.9-3.6-5.3-4.2-8.4-9.1-21.9-5-13.9-5.4-13.5-9.1-23.7-7.4-20.3-11.8-38.1-14.6-49.2-5.7-22.8-10.9-43.9-13.7-72.4-1.2-14.2-2.2-33.3-1.2-56z"/><path class="prefix__st4" d="M1041.5 603.8c2.8 2.9 16 16 37.3 16.8 24.2.9 39.6-14.9 41.9-17.3-2.6 4.4-7.7 11.4-16.4 16.8-5.5 3.5-10.2 4.9-15.5 6.4-13.7 4-22.6 6.5-31 2.7-12.8-5.7-15.8-22.6-16.3-25.4z"/></g><g id="prefix__torso"><path d="M986.9 381.2c-10.7-1.3-20.8 6-26.3 10-15.3 11.1-21.2 26.8-23.9 33.6-16.5 41.3-21.3 91.3-23.4 110.1-2.7 23.6-8 58-20 99.8 7 5.7 34.7 27 75.3 25.7 34.7-1.2 58.4-18.3 66.1-24.5 2.2-40.1 2.5-73.9 2.3-99.2-.5-46.2-2.1-67.4-9.1-91.8-5.4-18.8-17.5-60.9-41-63.7z" fill="#4c4c4c"/><path class="prefix__st13" d="M978.4 384.3c-10 9.8 13.9 48 17.8 56.9 18 41 26.3 107.3-16.7 218.3 5.9-1.1 12.5-2.7 19.5-5.2 14.6-5 26.1-11.8 34.5-17.8.7-7.3 1.6-17.1 2.3-28.7 1.1-18.5 1.2-33.7 1.1-46.5-.2-39-.3-58.5-3.4-84.4-1.6-12.9-5.1-37-16.7-64.3-6.9-16.1-14-27.3-25.3-29.9-1.4-.4-9.2-2.2-13.1 1.6z"/><path d="M1034.7 499.2c-2-.2-4.6 18.1-9.2 41.9-9.7 50.1-21.8 89.2-30.4 114.3 5.7-2.2 11.7-4.7 17.8-7.5 7.5-3.4 14.6-6.9 21.3-10.3 4.3-114.6 2.8-138.2.5-138.4z" opacity=".05" fill="#353535"/></g><g id="prefix__hand_front"><path class="prefix__st3" d="M964 395.8c-3.2-1.3-6.2-1.1-8-.8-3 3.6-7.7 9.3-13.4 16.3-25.1 31.3-27.3 38.6-44.8 58.6-16.8 19.2-28.4 28.2-37 34-9.7 6.5-16.9 9.8-19.1 10.8-15.9 7.1-30.3 9.3-39.8 10.1-2.9-1.4-7.1-3.7-11.3-7.5-5.4-5-7.9-9.8-10.5-14.2-9.9-16.7-12.6-21.5-16.3-21.4-1.3 0-3.4.7-6 4.6-1-.7-2.7-2-4.6-3.7-4.7-4.2-6-6.7-9.9-8.4-1.7-.7-3.9-1.7-5.8-.6s-2.3 3.7-2.4 4.3c-1.7-1.8-5.8-5.5-11.6-5.8-1.6-.1-3.9-.2-5 1.2-1.7 2-.1 6.8 4.1 11.8-1-.3-5.8-1.9-7.8.3-2.2 2.3.1 7.4 1.6 10.7 3 6.7 6.9 10.1 15 19.1 3.3 3.7 5.9 6.7 7.6 8.6-1.7-.2-4.4-.6-7.4-1.8-4.5-1.8-6-3.9-8-3.3-2.2.7-3.4 4.4-3 7.3.5 3.3 3.6 5.3 5.5 6.4 11.5 7 25.7 10.5 30.1 11.6 10.9 2.7 16.4 4 20.5 4.5 7.1.9 14.2 1.3 24.8.8 29.4-1.4 52.3-7.4 57.2-8.7 10.6-2.8 19.9-5.3 31.6-10.6 10.9-4.9 34.9-16 55.9-41.1 11.5-13.7 16.4-25 26.3-47.5 1.2-2.8 3.6-8.3 4-15.7.5-10.4-2.4-25.9-12.5-29.9z"/><path class="prefix__st0" d="M963.2 393.7c-6.9-2.6-12.1 3.9-16 8.7-5.6 6.8-10.9 13.8-16.2 20.9-11.5 15.5-22.6 31.4-35.3 46.1-24 28-55.6 52.7-94.1 53.6-1.9 0-1.9 3 0 3 34.8-.8 64.8-20.7 87.9-45.3 12-12.8 22.6-26.8 33-40.9 5.5-7.5 11-15 16.6-22.4 3.3-4.3 6.7-8.6 10.1-12.8 3.1-3.8 7.4-10 13.1-7.9 1.9.5 2.6-2.4.9-3z"/><path class="prefix__st0" d="M974.8 423.4c-13.2 90.8-117.8 132.2-199.7 123-13.4-1.5-27-4.6-39.3-10.3-3.1-1.4-6.2-3-9-4.9-1.2-.8-2.4-1.5-3.3-2.6-2.3-1.7-2.5-3.5-.8-5.5.2-2.7 1.5-3.5 4-2.5 4.9 1.1 8 5.3 13.3 5.4 1.9 0 1.9-3 0-3-5.4-.1-8.9-5.2-14.2-5.6-3.8-.3-7 1.8-7.5 5.7-1 9.2 12.9 14.3 19.5 17.1 24.5 10.2 51.9 11.6 78 9.4 48.2-4.1 97.3-21.5 129.9-58.5 16.6-18.9 28.3-41.9 31.9-66.9.4-1.9-2.5-2.7-2.8-.8z"/><path class="prefix__st0" d="M740.8 523.5c-2.4-4.4-6.2-7.2-9.7-10.6-5-4.9-9.1-11.8-12.5-18-.9-1.7-1.8-3.4-2.3-5.2-1.3-2.5-.5-3.4 2.2-2.6 1.7-.7 3-.3 4 1 2.5 1.5 4.9 4.4 6.9 6.5 4.9 5 9.2 10.6 13 16.5 1 1.6 3.6.1 2.6-1.5-3-4.6-26.1-36.6-31.5-25.3-3.2 6.5 4.8 15.8 7.9 20.8 2.3 3.6 4.5 7 7.6 10 3.3 3.2 7 5.8 9.3 10 .8 1.6 3.4.1 2.5-1.6z"/><path class="prefix__st0" d="M726.5 486.7c-1.3-1.3-11-13.2-4.8-13.9 1.4-.2 5 2.8 6.2 3.6 2 1.4 4 3 5.8 4.8 6.6 6.1 11.8 13.5 16.9 20.8 1.1 1.6 3.7.1 2.6-1.5-7.7-10.9-16.5-24.3-29.2-29.9-3.1-1.4-7.3-1.6-7.7 2.7-.5 5.5 4.4 12.1 8 15.6 1.5 1.3 3.6-.8 2.2-2.2z"/><path class="prefix__st0" d="M738.6 481.7c-.3-.6-1.7-3.5-1.5-4.2 1.1-.9 2.2-1.9 3.3-2.8.7.4 1.5.7 2.2 1.1 2.9 1.7 5.4 4.2 7.7 6.7 4.6 5.2 8.6 11 12.8 16.5 1.2 1.5 3.8 0 2.6-1.5-6.4-8.3-13-20.4-23-25-2.2-1-5.3-1.8-7.3 0-3 2.6-.8 7.3.4 10.1.6 1.7 3.5.9 2.8-.9z"/><path class="prefix__st0" d="M760.1 488.1c-.8-2.5-1.5-3.1 1.7-3.4 2.8-.2 2.9.4 4.6 2.2 2.1 2.4 4 4.9 5.9 7.4 3.2 4.4 6.2 9 9.5 13.5 5.1 6.9 11.8 16.6 21 17.9 1.9.3 2.7-2.6.8-2.9-8.3-1.2-14.6-10.2-19.2-16.5-4.2-5.7-8.1-11.8-12.4-17.4-2.5-3.1-6.3-9.5-11-9.3-5 .2-4.7 5.9-3.6 9.3.4 1.8 3.3 1 2.7-.8z"/><path class="prefix__st13" d="M974.4 406.8c-2.4-.7-6.3 9.5-13.8 22.7-12.3 21.8-24.7 36.1-37.8 49.1-31.1 30.8-46.7 46.3-73.9 54.4-9.7 2.9-54.5 14.9-95.9-11-19.6-12.3-30.9-28.4-36.6-38.2-1 1-2.2 2.5-2.4 4.5-.4 2.9 1.5 5.1 3.7 8.1 3 4.3 3.2 5.4 4.3 7.6 0 0 .9 1.6 2.2 3.4 3.4 4.7 15.4 15.6 14.6 16.7-.3.4-2.6-.7-7.3-2.8-4.6-2.1-5.4-2.7-6.9-2.4-2.7.5-5.4 3.5-5.3 6.5.1 2.7 2.4 4.5 4.5 6.1 2.4 1.9 4.7 2.6 5.3 2.8 8.8 3 11 5 18.7 7.3 22.5 6.7 47.9 7.3 47.9 7.3 37.3.9 65.9-8.5 71.9-10.6 12.4-4.2 36.7-12.7 61.3-33.7 12.2-10.4 30.8-26.6 40.6-53.6 7.5-20.5 8.3-43.3 4.9-44.2z"/><path class="prefix__st4" d="M740.4 537.2c16 3.5 35.5 6.1 57.7 5.7 54.3-1 96.2-19.8 119.8-32.9-12.6 10.4-33.9 25.3-63.8 33.7-52.9 14.9-97.6-.2-113.7-6.5z"/></g><g id="prefix__head"><path class="prefix__st3" d="M904 258c-.1.2-3.6 6.1-10.5 18-8 13.7-11.3 19.4-14.6 27.5-2.3 5.7-3.8 10.4-4.7 13.6l13.2 5.4c1.2 9.8 4.1 17.3 6.4 22 3.7 7.6 9 18.7 21 24.1 1.8.8 7.2 3.1 14.6 3.1 9.2 0 16-3.6 19-5.4.6 3.8 1.8 8.6 4.1 13.9 1.9 4.5 4.1 8.1 6.1 10.9 9.4-3.6 18.8-7.2 28.1-10.9-2.6-3.9-6-10.1-8.1-18.3-.7-2.8-2.3-9.8-1.7-19.7.7-12.1 4.1-18.4 7.8-29.8 5.7-17.8 9.1-28.2 7.5-39.3-2.1-14.4-12.9-31-29.5-37-23.8-8.7-48.5 8.2-58.7 21.9z"/><path d="M887.4 269.6c-6.2-2.4-7.6-14.6-6.4-22.7.4-2.7 1.9-10.7 9.2-18.7 9.9-10.9 20.4-10.8 35.6-17.3 8.4-3.6 20.4-10.1 33.2-22.7-1.9 5.7-3.8 11.3-5.8 17 2.9.2 10.1.5 17.6-3.7 9.3-5.1 12.9-13.5 13.9-15.9 1.6 2.5 8.2 13.4 4.7 25.8-1 3.5-2.6 6.3-4.1 8.5 5.2-1.4 12.5-4.1 18.7-10.2 6.8-6.7 7.7-12.8 10.5-12.5 5.4.5 7.4 22.5 8.5 34.6.7 8 1.8 13.6-.3 20.3-1.9 6.2-5.5 10.9-5.1 11.2.7.4 10.8-16.2 13.6-14.9 1.7.8-1.3 7.2-2.4 19.3-1.3 14.8 1.7 17.6-1 28.1-1.6 6.1-3.9 10.4-6.4 15.3-3.1 5.7-6.9 12.9-13.9 19.3-6.5 6-14.5 13.3-24.4 11.9-12.9-1.9-18.9-17.2-19.3-18.3 1.1 0 11-.5 15.9-8.1 6.2-9.7 0-24.1-7.1-26.5-5.2-1.8-9.3 3.5-14.2 1-4-2-4.5-6.9-6.1-11.5-2.1-6.1-6.7-14.2-18-22.4-7.1-.3-17.6.3-28.5 5.4-9.6 4.3-13.7 9.5-18.4 7.7z" fill="#494949"/><path class="prefix__st0" d="M886.5 286.7c-5.2 8-9.5 16.5-12.5 25.6-.7 2.1-1.9 4.3-.4 6.1 1.1 1.3 3.8 1.7 5.3 2.3 2.5.9 5 1.9 7.5 2.8 1.8.7 2.6-2.2.8-2.9-1.7-.6-3.3-1.2-5-1.9-1-.4-4.3-1.1-5-1.9-2.1-2.1.9-7.3 1.8-9.5 2.7-6.7 6.1-13 10.1-19.1 1.1-1.6-1.5-3.1-2.6-1.5z"/><path class="prefix__st0" d="M885.8 322.4c5.5 19.2 12.4 40.6 32 49.7 1.7.8 3.3-1.8 1.5-2.6-18.8-8.8-25.3-29.4-30.6-47.9-.6-1.9-3.5-1.1-2.9.8z"/><path class="prefix__st0" d="M918.3 372.4c17.5 3.9 37.1-5.5 48.8-18 1.3-1.4-.8-3.5-2.1-2.1-11 11.7-29.5 20.9-45.9 17.2-1.9-.5-2.7 2.4-.8 2.9z"/><path class="prefix__st0" d="M947 367c1.2 8.8 4.4 16.7 9.9 23.7 1.2 1.5 3.3-.6 2.1-2.1-4.9-6.3-7.9-13.7-9-21.6-.2-1.9-3.2-1.9-3 0zM975.6 354.1c.6 9.9 4.2 18.9 10.6 26.5 1.2 1.5 3.4-.7 2.1-2.1-5.9-7-9.2-15.3-9.8-24.4-.1-1.9-3.1-1.9-2.9 0zM960.8 294.3c2.9-4.4 8.4-5 12.7-2.2 3.9 2.5 5.8 7.3 6.1 11.7.5 7.1-4.1 21.5-14.1 17.2-1.8-.8-3.3 1.8-1.5 2.6 13 5.6 19.9-11.5 18.4-21.8-.9-5.9-4.3-11.7-10.2-13.7-5.3-1.9-10.8.1-13.9 4.7-1.2 1.6 1.4 3.1 2.5 1.5z"/><path class="prefix__st0" d="M949.7 371c5.8-3.7 10.8-8.2 15.1-13.5 1.2-1.5-.9-3.6-2.1-2.1-4.1 5.1-9 9.5-14.5 13.1-1.6 1-.1 3.6 1.5 2.5zM895 342.2c6.9.6 13.8-1.9 18.6-7 3.1-3.4 4.3-9.1-2-8.9-1.6.1-2.1 2.5-.4 2.9 2.3.6 4.2 1.5 6.1 3.1 1.5 1.2 3.6-.9 2.1-2.1-2.3-1.9-4.5-3.1-7.4-3.8-.1 1-.3 2-.4 2.9 3.4-.1-1.1 4.8-1.5 5.2-1.6 1.4-3.3 2.4-5.2 3.2-3.2 1.4-6.4 1.8-9.9 1.5-1.9-.1-1.9 2.9 0 3zM908.2 297c-1.7-3-2.3-6.3-1.5-9.6-.7.3-1.5.6-2.2.9 2.7 2.1 2.1 6 1.7 8.9.9-.1 1.8-.2 2.7-.4-1.2-1.7-1.8-3.5-1.8-5.6 0-1.9-3-1.9-3 0 0 2.6.7 5 2.2 7.1.7.9 2.5 1 2.7-.4.7-4.5.9-9.2-3.1-12.3-.8-.6-2 0-2.2.9-1 4.1-.4 8.3 1.8 11.9 1.1 1.8 3.7.3 2.7-1.4zM902.2 275.8c4.9-5.8 12-1.4 14.6 4.1.8 1.7 3.4.2 2.6-1.5-3.4-7.2-13.2-11.8-19.3-4.7-1.3 1.5.8 3.6 2.1 2.1z"/><path class="prefix__st2" d="M950.4 274.1c.4 2.3.9 5.9 1.7 10.1 2.2 11.9 4.1 18.7 4.8 21.9 2.6 12.2-.8 31-13.2 43.3-13.7 13.5-32.4 13.2-37.1 13 2.1 2.5 5.4 5.7 10.2 7.8 14.6 6.4 29.4-2.9 31-4-.2 6.5 1.2 8.7 2.6 9.4 4.3 1.9 13.9-7 18.1-16.6 4.5-10.4 2.2-20.4 1-24.5-5.6-7.7-5.9-10.4-5.1-11.3 1.2-1.3 4.5 1.1 8.2-.2 3.9-1.5 5.5-6.2 6.5-9.1 1.3-3.9 4.8-14.5-1.7-20.7-4.1-3.9-10.8-4.6-17.1-2.4-1.3-.2-3-.8-4.3-2.2-1.7-1.8-1.7-3.9-2.6-7.5-.6-1.8-1.4-4.2-3-7z"/><path class="prefix__st5" d="M964.4 341.7c-.8 8.6-2.9 15.6-4.8 20.7 3.5-1 7.1-2.1 10.6-3.1 3 7.9 5.9 15.9 8.9 23.8 2.2-1.1 4.3-2.2 6.5-3.4-2.5-5.6-5-12.5-7-20.5-1.7-6.8-2.6-13.1-3.1-18.5-1.7-1.7-3.7-3.8-5.5-6.5-3.1-4.5-4.9-8.7-6-12 .6 5.1 1.1 11.8.4 19.5z"/><path d="M1021 216.3c-1.4 0-.5 13.8-6.4 30.6-2.5 7.1-7.1 19.7-18.9 30.3-8.4 7.5-17.1 11.2-22.6 13 1.5.9 3.9 2.6 5.7 5.5 4.4 7 1.6 14.9.8 17.2-1.1 3.2-2.6 7.4-6.8 9.6-3.9 2-7.9 1.2-9.3.8.3.9 6.6 17.5 19.7 18.9 5.5.6 10-1.8 13.4-3.6 8.9-4.6 13.4-11.5 18.9-20 7.3-11.3 12.4-19.3 13.1-30.6.5-8.9-2.2-11.2-.3-19.7.6-2.7 2.2-8.1 1.9-15.6-.1-1.6-.2-2.9-.3-3.8-4.1 4.7-8.2 9.5-12.3 14.2 1.4-2.7 3.2-6.9 4.4-12.3 1.3-5.9 1.1-10.5.8-18.1-.1-4.3-.5-16.4-1.8-16.4z" opacity=".13" fill="#353535"/></g></g></svg>