<svg xmlns="http://www.w3.org/2000/svg" viewBox="0 0 1600 1200"><style>.prefix__st0{fill:#161616}.prefix__st1{fill:#e8e8e8}.prefix__st2{fill:#191919}.prefix__st3{fill:#fff;stroke:#191919;stroke-width:2;stroke-miterlimit:10}.prefix__st5,.prefix__st7,.prefix__st8{opacity:.22;fill:#6c6d6d}.prefix__st7,.prefix__st8{opacity:.25}.prefix__st8{opacity:.29}.prefix__st13,.prefix__st14{fill:#161616;stroke:#161616;stroke-width:2;stroke-miterlimit:10}.prefix__st14{fill:#fff}.prefix__st15{fill:#4f4f4f}</style><g id="prefix__ground"><path class="prefix__st0" d="M303.7 885.1c5.8.5 11.6 1.1 17.4 1.6 1.9.2 1.9-2.8 0-3-5.8-.5-11.6-1.1-17.4-1.6-1.9-.2-1.9 2.8 0 3zM226.2 889.9h43.2c3.9 0 3.9-6 0-6h-43.2c-3.8 0-3.8 6 0 6z"/><path class="prefix__st0" d="M301.3 887.6h104.6c3.9 0 3.9-6 0-6H301.3c-3.9 0-3.9 6 0 6z"/><path class="prefix__st0" d="M398.1 888.6c17.6-1.9 31.9 10.9 41.7 24.1 9.3 12.4 17 26.4 29.2 36.3 12.7 10.3 28.8 13.4 44.7 14.7 19.7 1.6 39.5 2.1 59.3 2.1 22.8 0 45.5-1 68.2-2.8 3.8-.3 3.9-6.3 0-6-40.1 3.2-80.5 3.7-120.7 1.2-17.6-1.1-36-3.2-49.7-15.4-12-10.6-19.3-25.2-29.3-37.4-10.6-13-25.9-24.7-43.6-22.7-3.5.3-3.6 6.3.2 5.9zM678.7 957.1c18.5-.1 33.5 12.5 43.5 27.1 10.5 15.3 18 32.8 26.3 49.3 7.2 14.3 13.8 29.7 30.1 35.2 7.5 2.6 15.7 2.9 23.6 3 10 .2 20 0 30-.4 3.8-.1 3.9-6.1 0-6-10 .4-20 .5-30 .4-8.6-.1-17.8-.4-25.7-4.3-7.9-3.9-12.5-11.2-16.5-18.8-4.6-8.7-8.9-17.5-13.3-26.3-14-27.8-31.2-65.4-67.8-65.3-4.1.1-4.1 6.1-.2 6.1zM864 1069.5h105.7c3.9 0 3.9-6 0-6H864c-3.8 0-3.8 6 0 6zM1002.7 1067.2h68.2c3.9 0 3.9-6 0-6h-68.2c-3.8 0-3.8 6 0 6zM1048.7 1091.2h205c3.9 0 3.9-6 0-6h-205c-3.8 0-3.8 6 0 6z"/></g><g id="prefix__background"><path class="prefix__st1" d="M1320.5 1053.3c-11.3-27.4-12-58.1-1.9-86 .7-1.8-2.2-2.6-2.9-.8-10.3 28.3-9.6 59.7 1.9 87.6.7 1.8 3.6 1 2.9-.8z"/><path class="prefix__st1" d="M1315.3 965.7c.3 5.6 2.8 10.7 7 14.4 1.5 1.3 3.6-.9 2.1-2.1-3.7-3.2-5.9-7.4-6.1-12.3-.1-1.9-3.1-1.9-3 0z"/><path class="prefix__st1" d="M1326.1 977.7c-8.2-36.5 16.6-70.4 33.9-100.2-.9-.1-1.8-.2-2.7-.4 10.9 30.1 20.9 61.5 15 93.8-5.3 29.6-20.6 56.2-35.5 81.9-1 1.7 1.6 3.2 2.6 1.5 15.3-26.4 31.1-53.8 36.1-84.3 5.3-32.3-4.4-63.6-15.3-93.7-.4-1.2-2.1-1.5-2.7-.4-17.8 30.6-42.7 65.1-34.2 102.5.4 2 3.3 1.2 2.8-.7z"/><path class="prefix__st1" d="M1375.3 926.5c3.5-8.4 7.3-16.6 11.6-24.6 2-3.8 4.1-7.5 6.4-11.2.9-1.5 1.4-3.4 3.4-3.5 1.3-.1 4.5 2.3 5.7 2.9 1.7.9 3.2-1.7 1.5-2.6-2.4-1.2-6.5-4.6-9.3-3.4-3.3 1.4-5.4 7.7-7.1 10.6-5.7 10-10.6 20.3-15.1 30.9-.7 1.9 2.2 2.6 2.9.9z"/><path class="prefix__st1" d="M1403.5 889.6c2.3-3 3.4-6.5 2.2-10.2-.3-.9-1.1-1.8-1.3-2.8-.8-3.2 1.1-4.6 2.8-6.9l6.6-8.4c8.9-11.5 17.9-23 26.8-34.5-.9-.4-1.7-.7-2.6-1.1 2.5 22.5 12.1 43.5 14.7 66 1.4 11.9 0 23.5-3.3 34.9-1.6 5.6-3.4 11.1-5.5 16.5-2 5.2-5.1 11.4-11.2 12.2-1.1.1-2 1.2-1.3 2.3 2 3.1 4.1 6.1 4.3 9.9.2 3.5-.9 7-2.3 10.2-2.3 5.2-5.5 10.1-8.7 14.8-6.8 9.9-14.9 18.7-24 26.4-16.1 13.6-34.6 24.4-47.3 41.5-1.2 1.6 1.5 3 2.6 1.5 14.6-19.6 37-30.8 54.3-47.7 8.8-8.6 16.5-18.4 22.6-29.1 2.5-4.4 5-9.2 5.7-14.3.8-5.8-1.4-10-4.5-14.7-.4.8-.9 1.5-1.3 2.3 8.9-1.1 12.5-9.9 15.2-17.4 4.4-12.5 8.3-25.3 8.4-38.7.2-26.4-12.5-50.6-15.3-76.6-.1-1.1-1.7-2.2-2.6-1.1-8.7 11.2-17.5 22.5-26.2 33.7-2 2.6-4 5.1-6 7.7-1.6 2.1-4.2 4.4-5.1 7-.5 1.3-.5 2.3-.1 3.6 1.2 4.1 3.7 6.5.3 10.9-1.2 1.5 1 3.6 2.1 2.1z"/><path class="prefix__st1" d="M1432.5 867.3c-12.6 64.8-52.9 118.9-79.4 178.1-.8 1.7 1.8 3.3 2.6 1.5 26.6-59.5 67-113.8 79.7-178.9.4-1.8-2.5-2.6-2.9-.7zM1351.3 914c-2.1 45.5-14.9 89.3-27.6 132.7-.5 1.9 2.4 2.6 2.9.8 12.8-43.7 25.5-87.8 27.7-133.5.1-1.9-2.9-1.9-3 0z"/><path class="prefix__st1" d="M1330.7 928.6c7.3 15.3 11.1 31.8 11.1 48.8 0 1.9 3 1.9 3 0-.1-17.5-4-34.5-11.5-50.3-.8-1.7-3.4-.2-2.6 1.5zM1368.4 913.8c-4.7 8.2-9.4 16.5-14.2 24.7-3.9 6.8-7.8 13.3-8.6 21.2-.2 1.9 2.8 1.9 3 0 .9-8.5 6-15.9 10.1-23.1 4.1-7.1 8.1-14.2 12.2-21.3 1.1-1.7-1.5-3.2-2.5-1.5zM1412.9 861c1.8 23.6 3.5 47.5-.9 70.9-.4 1.9 2.5 2.7 2.9.8 4.5-23.7 2.9-47.8 1-71.7-.2-1.9-3.2-1.9-3 0zM1389.3 978.4c21.1-24.7 52.6-40.6 66.7-71.1.8-1.7-1.8-3.3-2.6-1.5-14 30.2-45.3 45.9-66.3 70.5-1.2 1.4.9 3.6 2.2 2.1zM526.8 884.7c51.6-3.5 103.2-7 154.8-10.4 25.8-1.7 51.6-3.5 77.4-5.2 25.4-1.7 51.2-4.7 76.7-3.7 48.3 1.9 91.5 25.2 134.4 45.1 42.8 19.8 87.4 35.7 133.2 47.1 51.8 13 105 20.3 158.4 22 1.9.1 1.9-2.9 0-3-97-3.1-193.4-25.1-281.9-65-41.2-18.6-81.8-41.7-127.3-47.8-24.8-3.3-49.8-.7-74.6.9-25.8 1.7-51.6 3.5-77.4 5.2l-173.7 11.7c-1.9.2-1.9 3.2 0 3.1zM1025.7 901.2c82 3.2 161.6-19.5 242.5-28.3 22.8-2.5 45.8-3.8 68.8-3.2 1.9.1 1.9-2.9 0-3-82-2.2-161.5 20.7-242.5 29-22.8 2.3-45.8 3.4-68.7 2.5-2-.1-2 2.9-.1 3zM999.3 953.3c46.4 14.6 94.5 23.5 143 26.5 1.9.1 1.9-2.9 0-3-48.3-3-96.1-11.8-142.2-26.4-1.9-.6-2.7 2.3-.8 2.9zM551 694.6c45.4-.6 89.7-11.6 134.7-15.4 46.5-4 91.7 4.2 137.2 13.1 90.3 17.5 179.8 38.5 268.5 62.8 24.8 6.8 49.5 14.3 74.4 21 23.9 6.4 48.1 11.5 72.9 11.9 1.9 0 1.9-3 0-3-45.7-.7-89.8-17-133.3-29.1-44.6-12.4-89.4-24-134.5-34.7-44.7-10.6-89.7-20.4-134.8-29.3-43.9-8.7-88.4-18.4-133.3-16.7-51 1.9-100.8 15.8-151.8 16.5-1.9 0-1.9 3 0 2.9zM1039.3 713.5c80.5 31.8 168.8 29.2 253.3 19.3 24.1-2.8 48.2-6.2 72.2-9.7 1.9-.3 1.1-3.2-.8-2.9-84.1 12.2-170.9 24.6-255.5 9.6-23.4-4.1-46.3-10.4-68.4-19.2-1.8-.7-2.6 2.2-.8 2.9zM1222.8 357.7c-25.6-8.9-36.3-40.8-30.2-65.4 6-24.2 28.2-42.4 52.9-44.8 24.2-2.3 48.7 11.3 60.2 32.6 11.6 21.7 8.8 51-8.7 68.7-22.7 23-58.3 21.7-84.6 6.1-1.7-1-3.2 1.6-1.5 2.6 25.2 15 58 17.3 82.1-1.2 21.1-16.1 27.8-45.5 18.7-70.1-9-24.4-33.6-41.5-59.6-42s-51.3 16.3-60.4 40.7c-10.2 27.4.8 65.4 30.3 75.6 1.9.8 2.6-2.1.8-2.8zM661.4 370.7c101.6-11.4 189.9 51.9 281.3 84.7 25.1 9 50.8 15.8 77.3 18.8 1.9.2 1.9-2.8 0-3-99.5-11-181.6-76.5-278.2-98.1-26.4-5.9-53.6-8.4-80.5-5.3-1.8.1-1.8 3.1.1 2.9zM981.5 435.5c60.4 12.6 122.7 15 183.9 7 1.9-.2 1.9-3.3 0-3-60.9 8-122.9 5.7-183.1-6.9-1.9-.4-2.7 2.5-.8 2.9zM332.8 550.1c120.5 33.5 242.8 67.3 368.4 72.3 35.3 1.4 70.6.4 105.7-3.4 1.9-.2 1.9-3.2 0-3-124.8 13.6-249.6-9.9-370.2-40.9-34.5-8.9-68.8-18.4-103.2-27.9-1.7-.5-2.5 2.4-.7 2.9z"/></g><g id="prefix__viruses"><path class="prefix__st0" d="M263.3 415.3c3.9 0 3.9-6 0-6s-3.9 6 0 6zM275.7 479.1c-5.1-2.6-8.6-8.1-7.2-14 1.6-6.3 8.1-10.4 14.4-8.5 6.9 2.1 9.8 10.1 6.4 16.3-3.3 6.2-10.4 8.2-16.7 5.4-1.8-.8-3.3 1.8-1.5 2.6 7.6 3.3 16 1.4 20.5-5.9 4.3-7.2 1.9-16.9-5.8-20.5-7.4-3.5-16.1 0-19.3 7.5-3.3 7.6.6 16 7.8 19.7 1.6.9 3.1-1.7 1.4-2.6z"/><path class="prefix__st0" d="M271.9 464.2c2.3 1.5 4.7 3 7 4.5 1.6 1.1 3.1-1.5 1.5-2.6-2.3-1.5-4.7-3-7-4.5-1.6-1-3.1 1.6-1.5 2.6zM285.3 465.7l3.5-3.5c1.4-1.4-.8-3.5-2.1-2.1l-3.5 3.5c-1.4 1.4.8 3.5 2.1 2.1zM267.5 474c-1.1 1-2.2 2-3.3 3.1-1.4 1.3.7 3.4 2.1 2.1 1.1-1 2.2-2 3.3-3.1 1.5-1.3-.7-3.5-2.1-2.1zM272.4 478.9c-.8 1.4-1.5 2.7-2.3 4.1-.9 1.7 1.7 3.2 2.6 1.5.8-1.4 1.5-2.7 2.3-4.1 1-1.7-1.6-3.2-2.6-1.5zM258.1 467.7c1.5.8 3 1 4.6.7.8-.1 1.2-1.1 1-1.8-.2-.9-1-1.2-1.8-1-.8.1-1.6 0-2.3-.4-.7-.4-1.6-.2-2.1.5-.4.6-.2 1.7.6 2zM267.6 449.5c1 1.2 1.9 2.3 2.9 3.5.5.6 1.6.5 2.1 0 .6-.6.5-1.5 0-2.1-1-1.2-1.9-2.3-2.9-3.5-.5-.6-1.6-.5-2.1 0-.6.6-.5 1.5 0 2.1zM282.1 454.5c.8-1.3 1.5-2.7 2.3-4 1-1.7-1.6-3.2-2.6-1.5-.8 1.3-1.5 2.7-2.3 4-.9 1.6 1.6 3.1 2.6 1.5zM292.6 459c1.5-1.2 3.1-2.3 4.6-3.5.6-.5 1-1.3.5-2.1-.4-.6-1.4-1-2.1-.5-1.5 1.2-3.1 2.3-4.6 3.5-.6.5-1 1.3-.5 2.1.4.6 1.4 1 2.1.5zM293.9 470.6c1.5.8 3.1 1.6 4.6 2.4 1.7.9 3.2-1.7 1.5-2.6-1.5-.8-3.1-1.6-4.6-2.4-1.7-.9-3.2 1.7-1.5 2.6zM291.3 481.9c.9 1.2 1.9 2.3 2.8 3.5.5.6 1.6.5 2.1 0 .6-.6.5-1.5 0-2.1-.9-1.2-1.9-2.3-2.8-3.5-.5-.6-1.6-.5-2.1 0-.6.6-.5 1.5 0 2.1zM321.7 647.6c-10-6.4 2.7-22.3 11.7-13.8 3.3 3.1 2.9 8.3.1 11.6-3.6 4.4-9.9 4-14.4 1.2-1.6-1-3.1 1.5-1.5 2.6 5.8 3.7 13.9 3.6 18.4-2.1 3.9-4.9 3.6-12.4-1.6-16.3-12.5-9.5-27.2 11-14.2 19.4 1.7 1.1 3.2-1.5 1.5-2.6z"/><path class="prefix__st0" d="M319.7 636.7c2.1 1.1 4.2 2.3 6.2 3.4 1.7.9 3.2-1.7 1.5-2.6-2.1-1.1-4.2-2.3-6.2-3.4-1.7-.9-3.2 1.7-1.5 2.6zM332.8 638.5c.7-1.7 2.1-3 3.7-3.8 1.7-.9.2-3.5-1.5-2.6-2.4 1.2-4.1 3.2-5.1 5.6-.3.7.3 1.6 1 1.8.9.3 1.5-.2 1.9-1zM316.8 649.3c0-.3-.1.2-.1.3.1-.2-.1.1-.1.2.1-.2-.1.1-.1.1-.1.1-.1.1 0 0-.1.1-.2.1-.3.1-.7.4-.9 1.4-.5 2.1.4.7 1.3.9 2.1.5 1.3-.7 2-2 2.1-3.4.1-.8-.7-1.5-1.5-1.5-.9.1-1.5.7-1.6 1.6zM324.5 650v3.5c0 1.9 3 1.9 3 0V650c0-1.9-3-2-3 0zM316.3 642.2h-2.8c-1.9 0-1.9 3 0 3h2.8c1.9 0 1.9-3 0-3zM322.5 630.2c-.2-1.2-.5-2.3-.7-3.5-.2-.8-1.1-1.3-1.8-1-.8.2-1.2 1-1 1.8.2 1.2.5 2.3.7 3.5.2.8 1.1 1.3 1.8 1 .7-.2 1.1-1 1-1.8zM332.7 631.3c.7-1.2 1.4-2.3 2.1-3.5 1-1.7-1.6-3.2-2.6-1.5-.7 1.2-1.4 2.3-2.1 3.5-1 1.6 1.6 3.1 2.6 1.5zM337 639h2.8c1.9 0 1.9-3 0-3H337c-1.9 0-1.9 3 0 3zM170.2 603c-14.9-9.3-3-35.2 13.8-28.7 8.2 3.1 10.2 13.4 7.6 21-3.6 10.5-15.6 10-24.3 7.2-1.8-.6-2.6 2.3-.8 2.9 9.8 3.2 22.7 3.2 27.4-7.8 4-9.2 1.3-22.2-8.7-26.1-20.2-7.8-34.5 22.9-16.5 34.1 1.6 1.1 3.1-1.5 1.5-2.6z"/><path class="prefix__st0" d="M168.4 579.6c3.6 3.1 7.2 6.2 10.9 9.3 1.5 1.2 3.6-.9 2.1-2.1-3.6-3.1-7.2-6.2-10.9-9.3-1.4-1.2-3.6.9-2.1 2.1zM186.4 587.3c2.1-2.3 4.2-4.6 6.2-6.9 1.3-1.4-.8-3.6-2.1-2.1-2.1 2.3-4.2 4.6-6.2 6.9-1.3 1.4.8 3.6 2.1 2.1zM159.3 588.9c-2.1.6-4 1.7-5.5 3.2-1.3 1.4.8 3.5 2.1 2.1 1.2-1.2 2.5-2 4.1-2.5 2-.4 1.2-3.3-.7-2.8zM164.2 601.1c-1.2 1.1-2.3 2.3-3.5 3.4-1.4 1.3.7 3.5 2.1 2.1 1.2-1.1 2.3-2.3 3.5-3.4 1.4-1.3-.8-3.5-2.1-2.1zM174.8 606.1c.3 1.8.6 3.7.8 5.5.1.8 1.1 1.2 1.8 1 .9-.2 1.2-1 1-1.8-.3-1.8-.6-3.7-.8-5.5-.1-.8-1.1-1.2-1.8-1-.8.2-1.2 1-1 1.8zM162.6 580.1c-1.4-.7-2.8-1.4-4.1-2.1-1.7-.9-3.2 1.7-1.5 2.6 1.4.7 2.8 1.4 4.1 2.1 1.7.9 3.2-1.7 1.5-2.6zM174.4 573.4c-.6-1.7-.8-3.4-.7-5.1.1-1.9-2.9-1.9-3 0-.2 2 .1 4 .8 5.9.6 1.8 3.5 1 2.9-.8zM185.3 572.5c.9-1.6 1.8-3.2 2.8-4.9 1-1.7-1.6-3.2-2.6-1.5-.9 1.6-1.8 3.2-2.8 4.9-1 1.6 1.6 3.1 2.6 1.5z"/><path class="prefix__st0" d="M191.6 582.2c2 .1 4-.4 5.6-1.6.7-.5 1-1.3.5-2.1-.4-.6-1.4-1-2.1-.5-1.2.9-2.5 1.3-4.1 1.2-1.8-.1-1.8 2.9.1 3zM194.7 592.9c1.2.9 2.3 1.8 3.5 2.8.6.5 1.5.6 2.1 0 .5-.5.6-1.6 0-2.1-1.2-.9-2.3-1.8-3.5-2.8-.6-.5-1.5-.6-2.1 0-.5.5-.6 1.6 0 2.1zM189.5 604.4c.9 2.1 2.7 3.8 4.7 4.7.7.3 1.6.2 2.1-.5.4-.6.2-1.7-.5-2.1-1.7-.7-2.9-1.9-3.7-3.6-.3-.7-1.4-.9-2.1-.5-.7.3-.8 1.2-.5 2zM207 311c-14.3-8 1.3-32.1 15.1-22 5.3 3.9 6.5 11.2 3.3 16.8-3.7 6.5-12.1 7.8-18.3 4.2-1.7-1-3.2 1.6-1.5 2.6 7.4 4.3 17.4 2.8 22.1-4.7 4.5-7.2 2.8-17.2-4.4-21.9-17.2-11.2-35.3 17.8-17.8 27.5 1.7 1.1 3.2-1.5 1.5-2.5z"/><path class="prefix__st0" d="M206.3 294.8c3.5 1.7 6.9 3.5 10.4 5.2 1.7.9 3.2-1.7 1.5-2.6-3.5-1.7-6.9-3.5-10.4-5.2-1.7-.8-3.2 1.8-1.5 2.6zM221.9 297.9l5.7-4.8c1.5-1.3-.7-3.4-2.1-2.1l-5.7 4.8c-1.5 1.2.6 3.3 2.1 2.1zM197.3 306.1c-1.9 1.4-3.8 2.7-5.7 4.1-1.6 1.1-.1 3.7 1.5 2.6 1.9-1.4 3.8-2.7 5.7-4.1 1.6-1.2.1-3.8-1.5-2.6zM206.5 310.7c-1.1 1.9-2.1 3.8-3.2 5.7-1 1.7 1.6 3.2 2.6 1.5 1.1-1.9 2.1-3.8 3.2-5.7.9-1.7-1.7-3.2-2.6-1.5zM197.3 297.1c-2.1-.1-4.1-.4-6.1-.9-1.9-.5-2.7 2.4-.8 2.9 2.2.6 4.5 1 6.9 1 1.9 0 1.9-3 0-3zM204.5 287.5c-.8-2-2.3-3.5-4.4-4.2-1.8-.6-2.6 2.3-.8 2.9 1 .3 1.9 1.1 2.3 2.1.3.8 1 1.3 1.8 1 .8-.1 1.4-1 1.1-1.8zM215.7 285.9l1.5-5.7c.5-1.9-2.4-2.7-2.9-.8l-1.5 5.7c-.5 1.9 2.4 2.7 2.9.8zM214.7 314.7c1.1 1.6 2.2 3.3 3.2 4.9 1.1 1.6 3.7.1 2.6-1.5s-2.2-3.3-3.2-4.9c-1-1.7-3.6-.2-2.6 1.5zM224.2 309.4c1.4.8 2.7 1.6 4.1 2.4 1.7 1 3.2-1.6 1.5-2.6-1.4-.8-2.7-1.6-4.1-2.4-1.6-1-3.1 1.6-1.5 2.6zM230.2 300.1c1.4-.3 2.7-.6 4.1-.9 1.9-.4 1.1-3.3-.8-2.9-1.4.3-2.7.6-4.1.9-1.9.4-1.1 3.3.8 2.9zM228 288.8c.1-1.1.5-2.1 1.3-3 1.3-1.4-.8-3.6-2.1-2.1-1.3 1.4-2 3.2-2.1 5.1-.1.8.7 1.5 1.5 1.5.7 0 1.3-.7 1.4-1.5zM116.4 422c-2.5-4.3-1.6-10.3 3.1-12.6 4.2-2.1 9.9-.7 11.9 3.8 1.6 3.8.5 8.9-3.3 10.9-4 2.2-9.1.5-11.4-3.2-1-1.7-3.6-.1-2.6 1.5 3 5 9.8 7.2 15.1 4.5 5.4-2.8 7.3-10.1 4.7-15.4-2.8-5.6-10-7.5-15.5-4.8-6.3 3-8 11.1-4.6 16.9 1 1.6 3.6.1 2.6-1.6z"/><path class="prefix__st0" d="M114.4 413.8c2.5 1.5 5.1 3 7.6 4.6 1.7 1 3.2-1.6 1.5-2.6-2.5-1.5-5.1-3-7.6-4.6-1.6-1-3.1 1.6-1.5 2.6zM126.7 415.1c1.3-1.2 2.5-2.5 3.8-3.7 1.4-1.4-.7-3.5-2.1-2.1-1.3 1.2-2.5 2.5-3.8 3.7-1.4 1.3.7 3.4 2.1 2.1zM116.8 426c-.3 1.2-.7 2.5-1 3.7-.5 1.9 2.4 2.7 2.9.8.3-1.2.7-2.5 1-3.7.5-1.9-2.4-2.7-2.9-.8zM114.3 421.5c-1.3 1.1-2.9 1.6-4.5 1.5-1.9-.1-1.9 2.9 0 3 2.5.1 4.8-.7 6.7-2.4 1.3-1.3-.8-3.4-2.2-2.1zM111.1 414.5c-.9-.3-1.9-.6-2.8-.9-.8-.3-1.6.3-1.8 1-.2.8.3 1.6 1 1.8.9.3 1.9.6 2.8.9.8.3 1.6-.3 1.8-1 .2-.7-.3-1.5-1-1.8zM121.6 408.5v-4.7c0-1.9-3-1.9-3 0v4.7c0 1.9 3 1.9 3 0z"/><path class="prefix__st0" d="M129 408.9c.3-.8.9-1.5 1.8-1.8.8-.2 1.3-1 1-1.8-.2-.8-1.1-1.3-1.8-1-1.9.6-3.3 2-3.9 3.9-.2.8.3 1.6 1 1.8.9.1 1.7-.3 1.9-1.1zM132.7 418.4c1.1-.3 2.3.2 3 1.2 1.1 1.6 3.7.1 2.6-1.5-1.4-2.1-3.9-3.1-6.4-2.5-1.9.4-1.1 3.3.8 2.8zM129.9 424.1c-.8 2.3.6 4.8 2.9 5.5.8.3 1.6-.3 1.8-1 .2-.8-.3-1.6-1-1.8-.8-.3-1-1.2-.8-1.8.7-2-2.2-2.8-2.9-.9zM353.8 336.4c-1.2-5.1.4-10.6 5.4-12.9 5.2-2.4 10.9.7 12 6.3 2 10.4-15.1 16.2-17.7 5.2-.4-1.9-3.3-1.1-2.9.8 3.5 14.9 27 7.2 23.5-7.2-1.6-6.6-8.2-10.5-14.7-8.4-7.3 2.3-10 10.1-8.4 17 .4 1.9 3.3 1.1 2.8-.8z"/><path class="prefix__st0" d="M352.8 327.5c2.3 1.4 4.5 2.9 6.8 4.3 1.6 1 3.1-1.6 1.5-2.6-2.3-1.4-4.5-2.9-6.8-4.3-1.7-1-3.2 1.6-1.5 2.6zM366.4 329.8c1.1-1.7 2.1-3.4 3.2-5.1 1-1.6-1.6-3.2-2.6-1.5-1.1 1.7-2.1 3.4-3.2 5.1-1 1.6 1.6 3.2 2.6 1.5zM354.3 341.3c-.6.8-1.2 1.5-1.8 2.3-.5.6-.6 1.5 0 2.1.5.5 1.6.6 2.1 0 .6-.8 1.2-1.5 1.8-2.3.5-.6.6-1.5 0-2.1-.5-.6-1.6-.7-2.1 0zM351 338c-.9 1-2.1 1.7-3.4 2-1.9.5-1.1 3.4.8 2.9 1.8-.4 3.5-1.4 4.7-2.8 1.4-1.4-.8-3.5-2.1-2.1zM350.8 331.2c-1 .1-1.9-.1-2.8-.4-.8-.3-1.6.3-1.8 1-.2.8.3 1.6 1 1.8 1.1.4 2.4.6 3.6.5.8-.1 1.5-.7 1.5-1.5 0-.7-.7-1.5-1.5-1.4zM357.7 322.9c-.7-.9-1.3-2-1.7-3.1-.3-.8-1-1.3-1.8-1-.7.2-1.3 1.1-1 1.8.6 1.6 1.4 3.1 2.5 4.5.5.6 1.6.5 2.1 0 .5-.7.4-1.5-.1-2.2zM366.8 320.6c.2-1.2.3-2.4.5-3.7.1-.8-.2-1.6-1-1.8-.7-.2-1.7.2-1.8 1-.2 1.2-.3 2.4-.5 3.7-.1.8.2 1.6 1 1.8.6.2 1.6-.2 1.8-1zM371 330c1.5.2 3.1.4 4.6.6.8.1 1.5-.8 1.5-1.5 0-.9-.7-1.4-1.5-1.5-1.5-.2-3.1-.4-4.6-.6-.8-.1-1.5.8-1.5 1.5 0 .9.7 1.4 1.5 1.5zM369.6 339.2c1 1.2 2.1 2.5 3.1 3.7.5.6 1.6.5 2.1 0 .6-.6.5-1.5 0-2.1-1-1.2-2.1-2.5-3.1-3.7-.5-.6-1.6-.5-2.1 0-.6.5-.5 1.4 0 2.1zM364 343.2l1.2 6.9c.3 1.9 3.2 1.1 2.9-.8l-1.2-6.9c-.3-1.9-3.2-1.1-2.9.8zM403.5 532.5c-3.4-2.8-5.7-6.9-5.4-11.4.4-5.3 5.5-9.8 10.9-9 6.1.9 8.8 8.3 8.3 13.8-.7 7.4-8.8 10.8-14.6 5.9-1.5-1.2-3.6.9-2.1 2.1 5.4 4.5 13.5 4.4 17.7-1.7 4.4-6.3 1.9-17.3-4.4-21.5-5.6-3.7-13.4-1.3-16.9 4.2-4.2 6.5-1.3 15 4.3 19.6 1.5 1.4 3.6-.7 2.2-2z"/><path class="prefix__st0" d="M398.3 517.3c3 1.9 6 3.9 9 5.8 1.6 1.1 3.1-1.5 1.5-2.6-3-1.9-6-3.9-9-5.8-1.6-1.1-3.1 1.5-1.5 2.6zM413 521.3c1.4-2.2 2.9-4.4 4.3-6.6 1.1-1.6-1.5-3.1-2.6-1.5-1.4 2.2-2.9 4.4-4.3 6.6-1 1.6 1.6 3.1 2.6 1.5zM397.3 532.4l-4.1 4.1c-1.4 1.4.8 3.5 2.1 2.1l4.1-4.1c1.4-1.4-.7-3.5-2.1-2.1zM403 536.5c-.4 2-.8 4.1-1.3 6.1-.4 1.9 2.5 2.7 2.9.8.4-2 .8-4.1 1.3-6.1.4-1.9-2.5-2.7-2.9-.8zM395 523.2h-5.4c-1.9 0-1.9 3 0 3h5.4c2 0 2-3 0-3zM400.5 508.6c-1-.6-1.4-1.7-1.3-2.8.1-.8-.7-1.5-1.5-1.5-.9 0-1.4.7-1.5 1.5-.2 2.2.9 4.2 2.7 5.4 1.7 1.1 3.2-1.5 1.6-2.6zM412.1 508.9c.4-1.8 1-3.5 1.8-5.1.9-1.7-1.7-3.2-2.6-1.5-1 1.8-1.7 3.8-2.1 5.8-.4 1.9 2.5 2.7 2.9.8z"/><path class="prefix__st0" d="M417.8 516.8c1.6-.3 3.1-.1 4.6.5 1.8.7 2.6-2.2.8-2.9-2-.8-4.1-.9-6.2-.5-1.9.3-1.1 3.2.8 2.9zM419 527.6c1.5.6 2.6 1.8 3.2 3.3.3.7 1.4.9 2.1.5.8-.5.9-1.3.5-2.1-.9-2.2-2.8-3.8-5-4.7-.8-.3-1.6.3-1.8 1-.3 1 .2 1.7 1 2zM417.2 534.9c-.3 2.9.5 5.8 2.1 8.3 1 1.6 3.6.1 2.6-1.5-1.3-2.1-1.9-4.3-1.6-6.8.1-2-2.9-1.9-3.1 0zM205.9 694.3c-1.9-1.9.4-5.6 2.9-3.8 2.7 1.9-.1 5.5-2.7 4-1.7-1-3.2 1.6-1.5 2.6 2.4 1.4 5.6.7 7.3-1.5 1.9-2.4 1.1-5.7-1.3-7.4-2.3-1.7-5.6-1.4-7.3 1-1.6 2.2-1.5 5.4.4 7.4 1.4 1.2 3.5-1 2.2-2.3z"/><path class="prefix__st0" d="M203.7 688.4c-1-.3-2-.7-3-1-.8-.3-1.6.3-1.8 1-.2.8.3 1.6 1 1.8 1 .3 2 .7 3 1 .8.3 1.6-.3 1.8-1 .3-.8-.2-1.6-1-1.8z"/><path class="prefix__st0" d="M203.7 691.2c3.3-.7 5.8-3.9 5.6-7.3-.1-1.9-3.1-1.9-3 0 .1 2.2-1.3 4-3.4 4.4-1.8.4-1.1 3.3.8 2.9zM212.7 692.4c1.3-.3 2.6-.7 3.9-1 1.9-.5 1.1-3.4-.8-2.9-1.3.3-2.6.7-3.9 1-1.9.5-1.1 3.4.8 2.9zM210 697.5c.7 1 1.3 2 2 3 .4.7 1.3 1 2.1.5.7-.4 1-1.4.5-2.1-.7-1-1.3-2-2-3-.4-.7-1.3-1-2.1-.5-.7.4-1 1.4-.5 2.1zM206.5 692.4c-2.1 1.5-3.6 3.5-4.6 5.9-.3.8.3 1.6 1 1.8.9.2 1.5-.3 1.8-1 .7-1.6 1.8-3.1 3.2-4.1.7-.5 1-1.3.5-2.1-.2-.6-1.2-.9-1.9-.5zM345.8 272.1c9.7 10.2 20.2 19.4 31.5 27.7 1.6 1.1 3.1-1.5 1.5-2.6-11.1-8.2-21.4-17.3-30.9-27.3-1.3-1.3-3.4.8-2.1 2.2zM249.7 509.9c29.9-1.6 59.8 3.5 87.4 15.2 1.8.7 3.3-1.8 1.5-2.6-28.1-11.9-58.4-17.3-88.9-15.6-1.9.2-1.9 3.2 0 3zM391.7 663.1c11.6-6.8 23.1-13.6 34.7-20.5 1.7-1 .2-3.6-1.5-2.6-11.6 6.8-23.1 13.6-34.7 20.5-1.7 1-.2 3.6 1.5 2.6zM261.5 699.2c16.9-16.2 36.7-28.8 58.6-37.1 1.8-.7 1-3.6-.8-2.9-22.3 8.5-42.6 21.3-59.9 37.9-1.4 1.3.7 3.5 2.1 2.1zM299.6 611.9c11.6-1.8 23.2-3.6 34.9-5.5 1.9-.3 1.1-3.2-.8-2.9-11.6 1.8-23.2 3.6-34.9 5.5-1.9.3-1.1 3.2.8 2.9zM102.5 562.4c14.7 6.1 30.4 8.5 46.3 7.2 1.9-.2 1.9-3.2 0-3-15.6 1.3-31-1.1-45.5-7.1-1.8-.7-2.6 2.2-.8 2.9zM102.3 363.6c25.4 4.3 49.2 15.1 69 31.6 1.5 1.2 3.6-.9 2.1-2.1-20.2-16.9-44.4-28.1-70.4-32.4-1.8-.3-2.6 2.6-.7 2.9zM160.8 411.8c10 5.6 20.5 9.9 31.6 12.9 1.9.5 2.7-2.4.8-2.9-10.8-2.9-21.1-7.1-30.9-12.6-1.6-1-3.1 1.6-1.5 2.6zM212.3 252c19.2 9.4 35.8 23.1 48.6 40.2 1.1 1.5 3.7 0 2.6-1.5-13.1-17.5-30-31.7-49.6-41.3-1.8-.8-3.3 1.8-1.6 2.6zM294.7 340.4c8.6 4.2 17.2 8.5 25.7 12.7 1.7.9 3.2-1.7 1.5-2.6-8.6-4.2-17.2-8.5-25.7-12.7-1.7-.9-3.3 1.7-1.5 2.6z"/></g><g id="prefix__guy"><g id="prefix__leg_back"><path class="prefix__st2" d="M845.7 996.7c6.4 12.3 12.8 24.7 19.2 37-8.1 4.2-19.8 10.2-34.3 17.1-19.3 9.2-28.6 13-28.1 16.5.6 3.9 13.3 4.8 23.3 5.5 7.7.5 22.6 1.2 69.9-8.2 10.2-2 15.1-3.2 17.8-7.5 4.7-7.5-.9-18.2-7.5-32.9-5.3-11.8-12.5-28.8-19.9-50.7-13.4 7.6-26.9 15.4-40.4 23.2z"/><path class="prefix__st3" d="M628.1 598.9c15 54.6 31.2 98.8 44.5 131.5 11 26.9 20.5 47.4 24.5 55.8 19.4 40.9 36.3 69.7 43.3 82 18 31.3 43.8 78.9 76.1 148.5 7.7 1 26.7 2.4 47.3-7.6 25.7-12.4 36.7-34.2 39.7-40.7-22.7-41.9-37.8-77.5-47.3-102.1-25.9-66.8-29.2-104.2-55.8-191.1-13-42.4-25.8-78.3-36.3-106-45.2 10-90.6 19.8-136 29.7z"/><path d="M694.8 586.6c40.8 97.2 80.8 197.7 119.7 301.4 15.6 41.7 30.8 83 45.4 124 7-3.8 16.1-9.6 25.3-18.3 8.9-8.5 15.1-16.9 19.2-23.6-9.1-15.2-23-39.8-36.7-71.6-10.5-24.3-18.9-48.4-60.3-203.5-4.4-16.5-13.8-51.9-33.2-96.1-5.3-12.1-10-21.8-13.1-28-22 5.2-44.1 10.4-66.3 15.7z" opacity=".09" fill="#6c6d6d"/><path class="prefix__st5" d="M742.9 575.2c17.1 43.9 33.8 90 49.8 138 33.8 102 59.7 199.2 79.5 290 4.7-2.9 10.2-6.8 15.7-12.2 8-7.8 13.3-15.8 16.6-21.8-18-32.5-30.4-60.2-38.4-79.5-30.2-72.6-47.7-145.5-57.7-186.9-1.6-6.6-2.5-10.6-4.4-17.5-10.2-37.1-19.7-51.5-32.3-90.9-1.6-5.1-4.2-13.3-7-23.6-7.3 1.5-14.5 2.9-21.8 4.4z"/></g><g id="prefix__leg_front"><path class="prefix__st2" d="M621.6 895.9c8.9 11.4 17.8 22.8 26.7 34.3-50.7 17.5-62.5 25.5-61.7 29.5 2 9.2 72.5-6.8 102.8-2.7 2.4.3 10.1 1.5 13.7-2.7 3.1-3.7 1.7-9.8.7-13-15.8-24-31.5-48-47.3-72-11.6 8.8-23.3 17.7-34.9 26.6z"/><path class="prefix__st3" d="M775.4 601.2c6.6 17.5 26.9 77.1-2.8 118.3-2.9 4.1-11.6 15.3-49.2 36.1-37.5 20.7-71.8 33.4-98.5 41.3 8.1 13.8 18.2 29.1 30.8 44.9 9.9 12.4 19.7 23.2 29 32.5-19.3 16.7-38.7 33.4-58 50.1-17.9-8.1-47.6-24.4-73.9-55.4-17-20-37.1-43.8-36.9-74.8.2-28.8 18-48 51-83.5 22.4-24.1 58.9-62.5 121.4-87.9 34.8-14.2 65.9-19.5 87.1-21.6z"/><path d="M706.1 616.3c4 8.9 8.6 23 7 39.8-2.1 22.3-14.3 39.5-34.9 60-20.3 20.2-56.8 51.5-115.1 79.5 30 34.2 60 68.3 90 102.5 10.2-7.4 20.5-14.9 30.7-22.3-9.5-10-19.4-21.3-29.3-34.2-11.9-15.4-21.8-30.2-30-43.9 29.6-9.7 53.8-19.7 71.8-27.9 0 0 21.9-9.9 49.5-27.2 12.3-7.7 20.2-13.4 27.2-23 8.3-11.4 11.1-22.2 12.6-27.9 9.7-37.7-8-80.9-11.9-90-11.2.4-24.7 1.9-39.8 5.6-10.5 2.5-19.9 5.7-27.8 9z" opacity=".17" fill="#6c6d6d"/><path class="prefix__st5" d="M783.5 690.2c-17.8 14.9-38 30.3-60.7 45.3-41.4 27.5-81 47.5-115.8 62.1 21.2 28.6 42.3 57.2 63.5 85.8 4.4-3 8.8-6 13.3-9.1-10.4-11.5-21.2-24.5-32.1-39.1-10.1-13.6-18.9-26.7-26.5-39.1 8.4-2.2 20-5.6 33.5-10.5 29.4-10.7 49.1-21.9 70.4-34.2 30-17.3 36.5-24.2 41.1-30.7 8.1-11.1 11.6-22.6 13.3-30.5z"/></g><g id="prefix__hand_back"><path class="prefix__st3" d="M725.3 358.1c-14.8-6.1-32.2 22-33.8 24.6-5.9 9.8-7.3 16.9-12.8 35.9-13.5 46.5-20.5 70-33.8 82.2-11.9 10.9-24.4 11.4-27.7 11.3-14-.1-25.5-9.8-48-29.3-18.9-16.4-20.9-21.4-31.8-25.5-5.6-2.1-21.8-8.3-34.5 3.8-8.1 7.7-13 21.9-10.8 25.5 2.8 4.6 17.9-6.3 18-5.9.1.2-4.3 2-8.4 6.9-2 2.4-5.5 7.6-4.7 9.4 1.5 3.5 14.9-12.6 26.9-6.6 8.2 4.1 8.6 14.9 18.1 19.1 5.6 2.5 10.9 1.1 14.3-.2 4.6 9.6 12.3 23.4 24.3 35.9 7.1 7.5 32.4 33.1 67.6 29.3 37.2-4.1 59.9-38.5 66.9-49.1 4-6.1 33.5-52.3 29.1-112.5-.7-9.7-3.6-48.4-18.9-54.8z"/><path class="prefix__st7" d="M723.6 358.1c-5.6 2.5 1.4 30.6-4.3 67.3-5.4 35.3-19.6 59.1-26 69.9-8.6 14.6-19.9 33.6-39.2 43.3-25.9 13.1-54.9 3.9-74.3-13.3-5.8-5.1-10.7-18.5-23.6-28.9-5.6-4.5-10.2-6.9-15.5-9.6-13-6.6-24.7-12.6-36.6-7.4-5.7 2.5-10.8 7.2-10.5 8.1.3.9 6.9-2.1 12.8-4.9-7.9 10.4-9.4 13.6-9 14.4.4.8 2.8-1.3 8.4-4.1 6-3 10.3-5 15.1-3.3 2.5.9 4.2 2.4 5.3 3.3 4 3.6 4.7 6.9 8.7 11 2.5 2.5 4.7 3.7 5.8 4.3 2.4 1.3 7.6 3.5 14.9 1.7 5 10.1 28.3 55 69.2 63.2 21 4.2 37.7-3 44.3-6 36.1-16.4 54.3-55.4 59.1-66.2 14.7-33.5 24.6-85.8 9.5-123.5-3.6-9.1-10.2-21-14.1-19.3z"/><path class="prefix__st8" d="M741.8 402.5c-2.5 10.8-6.6 26.3-12.6 44.2-11.9 35.5-22.6 67.4-43.5 90-25.8 28-56.7 30.3-74.1 29.2 12.2 6.9 22.3 8.4 28.8 8.5 49 1.5 83.2-63.3 93.8-92.5 1.9-5.2 5.7-15.9 7.9-31.2 3-20.4 1.3-37.8-.3-48.2z"/></g><g id="prefix__torso"><path d="M647.1 378.1c-16 17-19.9 36-26.1 66.3-9.4 45.6-4.8 83.2-.5 116.8 3.6 28.1 8.9 50.9 12.9 66.2 5.5 4.3 37.7 28.6 82.4 22.1 40-5.9 62.9-32.4 68.1-38.8 1.7-9.5 4.1-23.5 6.9-40.5 15.9-98.6 24.9-148.1 12.9-171.5-7-13.7-22.5-34-61.3-48.6-11.2-1.2-63.1-6.2-95.3 28z" fill="#3d3d3d"/><path d="M650.6 374.7c31.7 11.7 47.4 29 54.8 39.2 41 56.3 15.8 139.7-13.7 186.1-11.9 18.7-24.9 32.1-34.4 40.7 8.8 4.2 31.3 13.4 60 9.1 38.6-5.9 60.7-32.2 65.8-38.6 4.1-40.4 10.4-72.1 15.7-94 4.6-19.2 6.7-36.5 11-71.1 1.5-12.2 3.3-28-4.6-44.5-4.5-9.4-10.4-15.5-14.8-20-6.6-6.7-19.9-18.1-41.6-25.1-10.2-2.5-27.7-5.3-49.1-1.7a121.2 121.2 0 00-49.1 19.9z" opacity=".19" fill="#6c6d6d"/><path d="M801.3 391c-1.8.1 2 27.8-3.9 66-10.9 70.7-45.9 119.7-59.4 137.1-11.3 14.5-29 34.5-54.9 54.2 9.3 1.4 21.7 2 35.9-.7 33.7-6.3 55.1-27 63.3-35.9 2.1-12.2 5.5-31.3 9.8-54.9 10.1-55.2 12.1-61.8 13.7-79 4.4-46.9-2.4-86.8-4.5-86.8z" opacity=".18" fill="#6c6d6d"/></g><g id="prefix__hand_front"><path class="prefix__st3" d="M787.1 378.4c-18.6-6.1-40.3 21.9-42.3 24.5-7.4 9.7-9.2 16.8-16.1 35.7-16.9 46.3-25.6 69.7-42.3 81.8-14.9 10.9-30.5 11.3-34.7 11.3-17.5-.1-31.9-9.8-60-29.2-23.7-16.3-26.1-21.3-39.7-25.4-7-2.1-27.2-8.2-43.1 3.8-10.1 7.7-16.3 21.8-13.5 25.4 3.5 4.6 22.4-6.2 22.5-5.9.1.2-5.4 1.9-10.5 6.8-2.5 2.4-6.9 7.5-5.9 9.4 1.9 3.5 18.7-12.5 33.7-6.6 10.2 4.1 10.8 14.8 22.7 19 7 2.5 13.7 1.1 17.9-.2 5.8 9.5 15.4 23.3 30.4 35.7 8.9 7.4 40.6 33 84.5 29.2 46.6-4 74.9-38.3 83.7-48.9 5.1-6.1 42-52.1 36.4-111.9-.9-9.7-4.5-48.2-23.7-54.5z"/><path class="prefix__st7" d="M785.1 378.3c-7 2.5 1.8 30.4-5.3 67-6.8 35.1-24.5 58.8-32.6 69.5-10.8 14.5-24.9 33.4-49.1 43.1-32.4 13-68.7 3.8-93-13.2-7.2-5.1-13.3-18.4-29.5-28.8-7-4.5-12.7-6.8-19.4-9.5-16.3-6.6-30.9-12.5-45.8-7.3-7.2 2.5-13.5 7.2-13.2 8 .3.9 8.6-2.1 16-4.9-9.9 10.4-11.8 13.6-11.3 14.4.6.8 3.5-1.3 10.5-4.1 7.5-3 12.9-5 18.9-3.3 3.1.9 5.3 2.4 6.6 3.3 5.1 3.5 5.9 6.9 10.9 10.9 3.1 2.5 5.9 3.7 7.3 4.3 3 1.3 9.6 3.5 18.7 1.7 6.3 10.1 35.4 54.7 86.6 62.9 26.3 4.2 47.1-3 55.4-6 45.2-16.3 68-55.1 73.9-65.9C809 487 821.5 435 802.6 397.5c-4.4-9-12.7-20.9-17.5-19.2z"/><path class="prefix__st8" d="M807.9 422.5c-3.2 10.7-8.2 26.2-15.7 44-14.9 35.3-28.3 67.1-54.4 89.6-32.3 27.8-70.9 30.1-92.7 29 15.3 6.9 27.9 8.3 36 8.5 61.3 1.4 104.1-63 117.4-92.1 2.4-5.1 7.2-15.8 9.9-31 3.6-20.4 1.5-37.6-.5-48z"/></g><g id="prefix__shield"><path class="prefix__st13" d="M504.2 362c-19.5 58.2-20.1 106.9-18 136.6 5.3 78.1 36.3 135.7 54.8 169.2 12.9 23.4 25.7 42 35.4 55 3.3.3 6.7.5 10 .8 1-12.8 2.6-30.3 5.4-50.8 2-14.9 10.4-74.1 34.1-150.4 12.1-39.1 29.5-86.7 54.6-139.1-10.9-3.1-21.9-6.1-32.8-9.2-8.1 32.5-27.8 50.8-38.9 48.2-10.6-2.5-19.4-25.3-15.6-54.6-6.8-1.1-13.7-2.2-20.5-3.3-12.4 29.3-29.9 45.4-39.1 42.3-8.3-2.8-11.9-21.9-9.4-44.5-6.6-.1-13.3-.2-20-.2z"/><path class="prefix__st14" d="M497.9 361.7c-10.8 29.1-24 76.5-21.2 135.2 1.2 24.6 7.3 96.2 54.8 169.2 16.1 24.8 32.9 43.3 45.5 55.8 1-12.8 2.6-30.3 5.4-50.8 2-14.9 10.4-74.1 34.1-150.4 12.1-39.1 29.5-86.7 54.6-139.1-9.5-3.3-18.9-6.6-28.4-9.9-9.4 34.1-31.3 52.2-43.3 49-11.1-3-19.4-26.1-15.6-54.6-6.6-.7-13.2-1.4-19.9-2.1-12.2 29.1-30.2 44.4-39.7 41.2-8.4-2.9-12.2-21.2-9.9-42.6-5.5-.4-11-.6-16.4-.9z"/><path class="prefix__st15" d="M524.6 492.7c1.7-9.8 9.4-17.9 19.2-19.8 14.8-2.8 19.3 14.3 18.2 25.9-.2 1.9 2.8 1.9 3 0 1.3-12.2-3.6-30.2-18.8-29.2-12.1.8-22.4 10.5-24.5 22.4-.4 1.8 2.5 2.6 2.9.7z"/><path class="prefix__st15" d="M521.1 494.6c14.5.2 28.7 2.3 42.6 6.5 1.9.6 2.6-2.3.8-2.9-14.1-4.3-28.6-6.5-43.4-6.6-2 0-2 3 0 3z"/><path class="prefix__st15" d="M518.3 493.5c-3.5 11.1-5 22.4-4.7 34 .1 1.9 3.1 1.9 3 0-.4-11.3 1.2-22.4 4.5-33.2.7-1.8-2.2-2.6-2.8-.8z"/><path class="prefix__st15" d="M514.3 530.1c14.3 6.6 29.9 9.2 45.6 7.2 1.9-.2 1.9-3.2 0-3-15.1 1.9-30.2-.3-44.1-6.7-1.7-.9-3.2 1.7-1.5 2.5z"/><path class="prefix__st15" d="M562.8 500.9c0 11.5-.9 22.9-2.9 34.3-.3 1.9 2.6 2.7 2.9.8 2-11.6 3-23.3 3-35.1 0-1.9-3-1.9-3 0zM538.3 510.7c-.7-.7.7-2.8 1.6-2.4.9.4.5 2.6-.5 2.1-.2-.1-.2-.4-.3-.4.2.1.2 0 .1 0-.2.1-.2.4-.5.5-1.2.5-.6-1.8-.1-1.8s.7 2.3.3 2.5c-.5.1-1-1-1-1.3-.1-.5 0-1 .4-1.3 1-.8 1.8.1 2 1.1.1.5 0 1.2-.3 1.6-.1.1-.6.2-.7.1-.6-1.8-3.5-1-2.9.8 1.2 3.4 5.7 2.6 6.7-.5 1-3.2-1.3-6.9-4.9-6.2-3.3.7-4.2 4.7-2.2 7.2 1.1 1.3 3 2.1 4.5 1.1 1.4-.9 1.7-2.7 1.6-4.2-.2-1.7-1.1-3.4-2.9-3.8-1.8-.4-3.2 1-3.8 2.6-.6 1.5-.4 3.3.8 4.4 1.1 1 2.9 1 4.1.3 1.5-.8 2.4-2.7 1.7-4.3-.6-1.4-2.3-2.1-3.8-1.6-1.6.5-2.3 2.3-1.9 3.8.4 1.6 2 2.6 3.7 2.5 4.1-.4 4.7-6.6.9-8-3.9-1.4-7.5 4.5-4.6 7.4 1.3 1.2 3.4-.9 2-2.2z"/><path class="prefix__st15" d="M537.5 511.3c-.6 3.4-1.3 6.8-1.9 10.2-.4 1.9 2.5 2.7 2.9.8.6-3.4 1.3-6.8 1.9-10.2.3-1.9-2.6-2.7-2.9-.8z"/><path class="prefix__st15" d="M536.4 511.1c-.7 3.6-1.1 7.2-1.1 10.8 0 1.9 3 1.9 3 0 0-3.4.3-6.7 1-10 .4-1.9-2.5-2.7-2.9-.8z"/><path class="prefix__st15" d="M539.1 511.1c-1 3.5-2.1 6.9-3.1 10.4-.5 1.9 2.3 2.6 2.9.8 1-3.5 2.1-6.9 3.1-10.4.5-1.9-2.4-2.7-2.9-.8zM538.3 509.6c1.9 0 1.9-3 0-3s-1.9 3 0 3zM578.3 370c-1.6 13.6.4 27 5.7 39.6.4.9 1.7.1 1.3-.8-5.2-12.3-7.1-25.6-5.5-38.9.1-.9-1.4-.9-1.5.1zM507.2 368.1c-.8 11.4.7 22.6 4.6 33.4.3.9 1.8.5 1.4-.4-3.9-10.6-5.4-21.7-4.6-33 .2-1-1.3-1-1.4 0zM648.5 379.3c3.8 2.2 7.7 4.1 11.8 5.7.9.4 1.3-1.1.4-1.4-3.9-1.6-7.7-3.4-11.4-5.5-.9-.6-1.7.7-.8 1.2z"/></g><g id="prefix__head"><path class="prefix__st14" d="M640.6 204.2c-1.8 5.6-3.6 11.2-5.2 17.1-6.9 23.9-11.5 46.8-14.6 68.1 5 .2 9.9.3 14.9.5-1.2 4.7-5.2 21.8 3.6 40.6 8.2 17.6 22.4 25.7 26.9 28-1.3 6.6-2.5 13.2-3.8 19.8 3.6 1.7 24.4 11.3 48.2 2 19.8-7.7 28.9-23.5 31.2-27.9-9.5-16-12.1-30.1-12.9-38.2-1.4-13.9.9-25.3 2.9-35.5 2.1-10.4 4.8-18.8 7-24.8 6.8-18.6 0-50.5-20.4-64.5-20.1-13.9-53.7-9.2-77.8 14.8z"/><path class="prefix__st0" d="M633.5 290.4c2.6 0 5.3 0 7.9.1 1 0 1-1.5 0-1.5-2.6-.1-5.3-.1-7.9-.1-1 0-1 1.5 0 1.5z"/><path class="prefix__st13" d="M724.4 230c-11.2 1.2-14.5 10.4-31 28.2-16.7 18-27.2 29.3-43.9 34.3-10.8 3.2-15.6 1.3-20.9 6.7-9.2 9.3-6.4 27.2-3 36.6 3.9 10.9 11.1 18.1 17.1 24 5.7 5.7 11.1 9.6 15 12.1-3.5-7.3-3.5-9.5-2.8-10 1.7-1.2 6.7 7.3 14 7.4 2.1 0 6-.7 15.9-12.4 6.7-8 11.3-13.4 15.1-21.6 8-17.7 1-23.8 6.6-47.8.9-3.7 7.4-32 17.8-32.5 3.8-.2 7.1 3.4 8.6 6 3 5.5 1.6 13.3-4.1 19.5 1.7-.8 17.6-8.7 19.7-24.7.3-2.5 1.5-11.8-4.6-18.8-7.2-8.2-18.6-7.1-19.5-7z"/><ellipse transform="rotate(7.915 647.185 253.989)" class="prefix__st0" cx="647.3" cy="254.1" rx="3.8" ry="6.8"/><path class="prefix__st0" d="M640.3 248c4.9-2.2 10-3.6 15.2-4.5 1.9-.3 1.1-3.2-.8-2.9-5.5.9-10.8 2.5-16 4.8-1.7.8-.2 3.4 1.6 2.6z"/><path d="M636 214.5c1.9-6.3 5.8-16.5 14.3-26.5 3-3.5 9.3-11 18.3-15.3 17.2-8.3 41.4-4.1 57.3 11.2 15.5 15 21 38.8 14.1 60.8-34.6-10.1-69.3-20.1-104-30.2z" fill="#515151"/><path class="prefix__st0" d="M577.4 207.5c53.5 14.5 107 29.1 160.5 43.6 5.6 1.5 8-7.2 2.4-8.7-53.5-14.5-107-29.1-160.5-43.6-5.6-1.5-8 7.2-2.4 8.7z"/><path d="M689.4 168.8c13.5 5 22.5 17.7 22.5 31.6 0 12.1-6.9 23.4-17.8 29.4 15.3 4.3 30.5 8.5 45.8 12.8 1.4-4 3-10.2 3-17.7.1-17.5-8.3-29.9-11.1-33.7-3-4.1-13.7-17.8-32-21.4-4.2-1-7.9-1.1-10.4-1z" fill="#2d2d2d"/></g></g></svg>