<svg xmlns="http://www.w3.org/2000/svg" viewBox="0 0 1600 1200"><style>.prefix__st0{fill:#e8e8e8}.prefix__st2{fill:#161616}.prefix__st5,.prefix__st6{opacity:.28;fill:#666}.prefix__st6{opacity:.24}.prefix__st7,.prefix__st8{opacity:.25;fill:#666}.prefix__st8{opacity:.2}.prefix__st10,.prefix__st9{opacity:.23;fill:#666}.prefix__st10{opacity:.27}.prefix__st12,.prefix__st13{fill:#161616;stroke:#161616;stroke-width:2;stroke-miterlimit:10}.prefix__st13{fill:#fff}.prefix__st14{opacity:.31;fill:#666}.prefix__st16,.prefix__st19{opacity:.21;fill:#666}.prefix__st19{opacity:.26}.prefix__st24{fill:#474646}.prefix__st25,.prefix__st26{opacity:.15;fill:#666}.prefix__st26{opacity:.22}.prefix__st27{fill:#232323}</style><g id="prefix__background"><path class="prefix__st0" d="M430.7 928.1h566c1.9 0 1.9-3 0-3h-566c-1.9 0-1.9 3 0 3z"/><path class="prefix__st0" d="M866 924.1v-97.5c0-1.9-3-1.9-3 0v97.5c0 2 3 2 3 0z"/><path class="prefix__st0" d="M865.3 826.6h165.9c1.9 0 1.9-3 0-3H865.3c-1.9 0-1.9 3 0 3z"/><path class="prefix__st0" d="M1032 827.4V918c0 1.9 3 1.9 3 0v-90.6c0-2-3-2-3 0zM995.6 928.1h37c1.9 0 1.9-3 0-3h-37c-1.9 0-1.9 3 0 3zM873 836.8c.2 8.3 0 16.7-.5 25-.4 5.8 8.6 5.8 9 0 .5-8.3.7-16.7.5-25-.1-5.8-9.1-5.8-9 0zM892.1 835.9c-.2 9-.4 17.9-.7 26.9-.1 5.8 8.9 5.8 9 0 .2-9 .4-17.9.7-26.9.1-5.8-8.9-5.8-9 0zM912.2 835.9c.2 9.3.4 18.5.7 27.8.1 5.8 9.1 5.8 9 0-.2-9.3-.4-18.5-.7-27.8-.1-5.8-9.1-5.8-9 0zM996.5 834.5c.9 8.9 1.3 17.9 1 26.9-.2 5.8 8.8 5.8 9 0 .2-9-.1-17.9-1-26.9-.6-5.7-9.6-5.8-9 0zM872.8 893.3c.2 8.3.3 16.7.5 25 0 1.4 2.3 1.5 2.3 0-.2-8.3-.3-16.7-.5-25 0-1.5-2.3-1.5-2.3 0z"/><path class="prefix__st0" d="M873.8 894h135.7c1.4 0 1.5-2.3 0-2.3H873.8c-1.4 0-1.4 2.3 0 2.3z"/><path class="prefix__st0" d="M1008.4 893.8v21.8c0 1.4 2.3 1.5 2.3 0v-21.8c-.1-1.5-2.3-1.5-2.3 0zM874.3 919.4h134.3c1.4 0 1.5-2.3 0-2.3H874.3c-1.5.1-1.5 2.3 0 2.3zM878.4 900.4h126.9c1.4 0 1.5-2.3 0-2.3H878.4c-1.4.1-1.4 2.3 0 2.3zM877.8 887.8c0-.9.7-1.6 1.5-1.8.9-.1 1.5.7 1.5 1.5.2 1.9-2.6 2.1-3 .4-.4-1.4-2.6-.8-2.2.6.5 1.9 2.4 3 4.4 2.8 2-.2 3.3-2 3.1-4-.2-1.9-1.7-3.7-3.8-3.5-2.1.1-3.8 1.9-3.8 4 .1 1.4 2.3 1.4 2.3 0zM887.5 887.7c-.6-.2-.9-.7-1-1.2 0 .3-.1.6-.1.9.9-1.5 3.5-2 3.9.2.3 1.6-2 2.3-2.5.8-.4-1.4-2.6-.8-2.2.6.6 2 3 3 4.9 2.2 2.1-.9 2.5-3.6 1.4-5.5-1.3-2.1-4-2.3-5.9-1.1-.9.6-1.9 1.7-1.6 2.8.4 1.2 1.4 2.1 2.5 2.5 1.3.5 1.9-1.7.6-2.2zM992 887.7c-1.2-1.1 0-3 1.5-2 .6.4.7 1.2.2 1.8-.7.8-1.7.5-2.3-.2-1-1.1-2.5.5-1.6 1.6 1.4 1.6 3.9 1.8 5.4.3 1.4-1.5 1.4-3.8-.2-5.2-1.4-1.2-3.6-1.2-4.9.3-1.2 1.4-1.1 3.8.3 5 1 1 2.6-.6 1.6-1.6zM1001.7 887.7c-.5-.2-.8-.9-.4-1.3.5-.6 1.5-.3 1.9.2.3.3.4.8.4 1.2v.3c0 .2 0 .1.1-.1-.1 0-.3.1-.5.2-.7.1-1.4-.3-1.7-1-.6-1.3-2.5-.2-1.9 1.1.7 1.7 2.9 2.5 4.6 1.9 1.2-.4 1.6-1.2 1.6-2.4 0-1.1-.4-2.1-1.1-2.9-1.3-1.4-3.9-1.5-5.2.1-1.1 1.4-.7 3.9 1 4.6.6.2 1.2.2 1.5-.4.4-.4.3-1.3-.3-1.5zM1032.4 826.6c2.2.3 4.5.6 6.7.9.7.1 7.4.8 5.7 2.6-1 1.1.6 2.7 1.6 1.6 1.6-1.8.8-4.2-1.2-5.3-1.5-.8-3.3-.8-5-1-2.4-.3-4.8-.7-7.2-1-1.4-.2-2.1 2-.6 2.2z"/><path class="prefix__st0" d="M1044.5 828.9v88.4c0 1.4 2.3 1.5 2.3 0v-88.4c-.1-1.4-2.3-1.4-2.3 0z"/><path class="prefix__st0" d="M1032.2 915.8c-.2 3.2-.2 6.3-.1 9.5 0 .6.5 1.1 1.1 1.1 4.4 0 8.8-.2 13.1-.5.8-.1 1.2-.7 1.1-1.4-.7-3.4-.9-6.7-.6-10.1.1-1.4-2.1-1.4-2.3 0-.3 3.6 0 7.1.7 10.7.4-.5.7-.9 1.1-1.4-4.4.3-8.7.5-13.1.5l1.1 1.1c-.1-3.2-.1-6.3.1-9.5.1-1.4-2.1-1.4-2.2 0z"/><path fill="#e8e8e8" stroke="#e8e8e8" stroke-width=".75" stroke-miterlimit="10" d="M1033.5 827.4h12.9v97.5h-12.9z"/><path class="prefix__st0" d="M963.8 822.2c.1-10 2.1-19.8 6.1-29 3.9-9 9.5-18.4 18.7-22.6 1.8-.8.2-3.4-1.5-2.6-9.5 4.3-15.4 13.9-19.5 23.1-4.4 9.8-6.6 20.4-6.7 31.1-.1 1.9 2.9 1.9 2.9 0zM987.1 824.7c2-17.7 7.7-35.6 22.3-46.9 1.5-1.2 0-3.8-1.5-2.6-15.6 12-21.7 30.6-23.8 49.5-.2 1.9 2.8 1.9 3 0zM1010.9 823.9c1.8-14.9 10-28.3 22.4-36.7 1.6-1.1.1-3.7-1.5-2.6-13.4 9.1-22 23.2-23.9 39.3-.2 1.9 2.8 1.8 3 0z"/><path class="prefix__st0" d="M990.1 769.6c5.3-2.7 20.2-6.8 20.6 3.6.1 1.9 3.1 1.9 3 0-.5-13-17.5-10.1-25.1-6.1-1.8.8-.2 3.4 1.5 2.5z"/><path class="prefix__st0" d="M1013.7 774.3c2.9-3.7 7.6-5.4 12.2-5.4 3.5 0 5.8 1.8 7.6 4.6 1.6 2.4 4.6 8.6-.3 10.4-1.8.7-1 3.6.8 2.9 8.7-3.2 4.1-14.5-1.4-18.8-6-4.8-16.7-1.3-21.1 4.2-1.1 1.5 1 3.6 2.2 2.1zM977.9 745.7c-.1 9.2-.1 18.5-.2 27.7 0 1.9 3 1.9 3 0 .1-9.2.1-18.5.2-27.7 0-1.9-3-1.9-3 0z"/><path class="prefix__st0" d="M979.7 745.6c25.3 1.1 50.8.8 76.1 1.2l-1.5-1.5c-1.7 14.5-2.8 29.1-3.2 43.7-.1 1.9 2.9 1.9 3 0 .4-14.6 1.5-29.2 3.2-43.7.1-.8-.8-1.5-1.5-1.5-25.3-.3-50.8-.1-76.1-1.2-2-.1-2 2.9 0 3z"/><path class="prefix__st0" d="M1025.9 793.5c5-.8 10.1-1.1 15.2-.9 3.9.2 7.6.9 11.4-.1 1.9-.5 1.1-3.4-.8-2.9-4.6 1.2-9.8-.1-14.5-.1-4.1 0-8.1.5-12.1 1.1-1.9.3-1.1 3.2.8 2.9zM864.9 1014.9c-4.7 4.3-7.6 9.5-8.9 15.8-.2 1 .4 1.8 1.4 1.9 17.5 1.9 33.3 10.2 47 21 1.5 1.2 3.6-.9 2.1-2.1-14.4-11.4-30.7-19.9-49.1-21.9.5.6 1 1.3 1.4 1.9 1.2-5.7 3.8-10.5 8.1-14.4 1.6-1.4-.6-3.5-2-2.2z"/><path class="prefix__st0" d="M865.5 1017.5c19.7.2 38.4 10 49.6 26.2.1-.6.2-1.2.2-1.8l-9.6 9c-1.4 1.3.7 3.4 2.1 2.1l9.6-9c.5-.4.6-1.3.2-1.8-11.9-17.1-31.4-27.5-52.2-27.7-1.8 0-1.8 3 .1 3zM796.4 962.8c-1.9-.4-4.2-.8-5.9-1.9-3.8-2.4-3.8-7.7.6-9.1 3.6-1.1 8-.7 11.6-.2 1.9.3 4.2.4 5.9 1.4 3.5 2 1.8 6.7-1.8 7.4-4.2.8-8.4.9-12.6.7-1.9-.1-1.9 2.9 0 3 5.2.3 17.7 1.2 20.5-5 3.2-7.1-6.8-9.9-11.6-10.5-5.5-.7-15.5-1.8-18.4 4.6-3.2 7.1 5.4 11.3 10.8 12.4 1.9.5 2.8-2.4.9-2.8zM833.9 1092.6c-.5 4.3-.8 8.6-.6 12.9.1 2.7-.1 6.5 1.1 9.1 2.2 4.7 12.2 5.8 16.5 6.6 11.8 2.2 27.3 3.1 36.1-6.6 1.3-1.4-.8-3.6-2.1-2.1-7.6 8.4-21 7.8-31.3 6.2-5.7-.9-15.3-1.9-16.8-8.5-1.3-5.4-.4-12.1.3-17.5 0-2-3-2-3.2-.1z"/><path class="prefix__st0" d="M887.6 1114c.4-6 .5-12 .4-18 0-1.9-3-1.9-3 0 .1 6 0 12-.4 18-.2 1.9 2.8 1.9 3 0z"/><path class="prefix__st0" d="M835.8 1093.7c7.4-4.3 15.7-5.7 24.1-6 8-.3 20.4-1.2 23.9 7.9.7 1.8 3.6 1 2.9-.8-3.5-9.1-13.3-10.1-21.9-10.2-10.6-.1-21.2 1.1-30.6 6.4-1.6 1.1 0 3.7 1.6 2.7z"/><path class="prefix__st0" d="M842.8 1091.7c-2.4 1.1-3 3.8-1.5 6 2.1 3.2 7.6 3.9 11 4.4 9.1 1.2 21 1.7 27.6-5.8 1.3-1.4-.8-3.6-2.1-2.1-4.1 4.7-9.9 5.4-15.8 5.4-2.6 0-5.3 0-7.9-.3-1.6-.2-3.2-.4-4.8-.8-1-.2-2-.6-3-1-1.6-.2-2.3-1.3-1.9-3.2 1.7-.8.2-3.4-1.6-2.6z"/><path class="prefix__st0" d="M844.2 1096.9c10.3 0 20.5.5 30.7 1.6 1.9.2 1.9-2.8 0-3-10.2-1.1-20.4-1.6-30.7-1.6-1.9 0-1.9 3 0 3z"/><path class="prefix__st0" d="M844.7 1097.8c8.5 3.7 20 2.9 28.9 1.7 1.9-.3 1.1-3.2-.8-2.9-8 1.1-19 2-26.6-1.4-1.8-.8-3.3 1.8-1.5 2.6z"/><path class="prefix__st0" d="M854.2 1098.9c3.4-.1 6.9-.2 10.3-.4 1.9-.1 1.9-3.1 0-3-3.4.1-6.9.2-10.3.4-1.9.1-1.9 3.1 0 3zM448.1 1093.9c-1.9 5.1-.5 10.8 3.4 14.5 1.4 1.3 3.5-.8 2.1-2.1-3.2-3.1-4.2-7.5-2.7-11.6.8-1.8-2.1-2.6-2.8-.8z"/><path class="prefix__st0" d="M450 1095.1c17.7-.5 34.5-6.2 51.1-12.1 1.8-.6 1-3.5-.8-2.9-16.3 5.8-32.8 11.5-50.3 11.9-2 .1-2 3.1 0 3.1zM453.4 1110.1c17.4-3.5 33.9-9.7 49.4-18.4 1.7-.9.2-3.5-1.5-2.6-15.2 8.6-31.5 14.6-48.6 18.1-2 .4-1.2 3.3.7 2.9z"/><path class="prefix__st0" d="M499.4 1083.4c2 1.5 2.9 4.2 2.4 6.7-.4 1.9 2.5 2.7 2.9.8.8-3.9-.7-7.6-3.8-10-1.5-1.3-3 1.3-1.5 2.5z"/><path class="prefix__st0" d="M503.7 1085c8.8-5.1 18-9.7 27.3-13.7 1.8-.8.2-3.3-1.5-2.6-9.4 4-18.5 8.5-27.3 13.6-1.7 1.1-.2 3.7 1.5 2.7z"/><path class="prefix__st0" d="M503.7 1087.5c10.1-4.3 20.2-8.7 30.3-13 .6-.2.9-1.1.7-1.7-.4-1.1-.8-2.3-1.1-3.4-.6-1.8-3.5-1-2.9.8.4 1.1.8 2.3 1.1 3.4.2-.6.5-1.1.7-1.7-10.1 4.3-20.2 8.7-30.3 13-1.7.8-.2 3.4 1.5 2.6zM459.1 989.1c2.6-1.2 7.9 1 7.3 4.3-.6 3.4-4.7 4.1-7.5 4.5-1.9.2-1.9 3.3 0 3 4.7-.6 11.2-2.7 10.5-8.7-.6-5.1-7.6-7.6-11.8-5.7-1.8.8-.2 3.4 1.5 2.6z"/><path class="prefix__st0" d="M458.2 988.1c6.3-2.4 13.5-3.7 18.9 1.3 1.4 1.3 3.5-.8 2.1-2.1-6.2-5.7-14.4-4.9-21.8-2.1-1.7.7-1 3.6.8 2.9zM458.8 1001.4c6.9 2.6 14.6.9 19.9-4.2 1.4-1.3-.7-3.5-2.1-2.1-4.6 4.5-11 5.7-16.9 3.5-1.9-.7-2.7 2.2-.9 2.8z"/><path class="prefix__st0" d="M477.6 990.8c12.5.7 25.3-1.5 37.8-2.7 1.9-.2 1.9-3.2 0-3-12.5 1.2-25.3 3.4-37.8 2.7-2-.1-2 2.9 0 3zM477.1 997c5.5 1.2 10.9.6 16.4-.4 7.4-1.3 14.7-2.1 22.2-2.3 1.9 0 1.9-3 0-3-5.9.1-11.8.6-17.6 1.5-6.8 1-13.4 2.8-20.2 1.3-1.8-.4-2.6 2.5-.8 2.9z"/><path class="prefix__st0" d="M513.4 986.3c-.2 1.7 0 3.4.4 5.1.5 1.9 3.4 1.1 2.9-.8-.4-1.4-.5-2.8-.3-4.3.1-.8-.8-1.5-1.5-1.5-.8 0-1.4.7-1.5 1.5zM461 988.2v-.2c-.2.4-.5.9-.7 1.3h-.9c-.2-.3-.5-.6-.7-.9.2.7 0 1.5.4 2.2.4.8.9 1.4 1.6 1.9 1.3 1 3.6 1.2 4.6 2.6 1.1 1.6 3.7.1 2.6-1.5-.8-1.1-1.8-1.8-3.1-2.3-1-.4-2.8-.9-3.1-2.1-.1-.5.1-1-.1-1.5-.2-.6-.6-1-1.2-1.2-1.3-.4-2.2.6-2.3 1.8-.3 1.8 2.7 1.8 2.9-.1z"/><path class="prefix__st0" d="M461 990.8c1.4.3 2.6 1 3.4 2.2.5.7 1.3 1 2.1.5.6-.4 1-1.4.5-2.1-1.3-1.8-3.1-3.1-5.2-3.6-1.9-.4-2.7 2.5-.8 3zM457.9 1002c3 2.9 7 4.5 11.2 3.9 5.4-.8 8.4-5.4 12.9-7.9 1.7-.9.2-3.5-1.5-2.6-3 1.7-5.1 4.3-8 6.1-4.1 2.5-9 1.7-12.4-1.6-1.4-1.3-3.5.8-2.2 2.1z"/><path class="prefix__st0" d="M464.4 1004c2.9.7 5.3.2 8.1-.9 5-2.1 9-4.3 14.6-4.8 9.3-.8 18.2-1.3 27.4-3.2 1.9-.4 1.1-3.3-.8-2.9-8.8 1.9-17.6 2.4-26.6 3.1-3.2.2-6.3.7-9.2 1.9-4.1 1.7-7.9 5-12.6 3.9-2-.4-2.8 2.5-.9 2.9zM542 963.7c2.4 4.7 7.2 3.1 11 1.2 1.2-.8 2.4-1.4 3.7-1.8 1.9.7 3.7 1.4 5.6 2.1 1.3.7 2.1 1.5 3.6 1.8.8.1 1.6.1 2.4-.1.5-.2 1-.4 1.5-.7 1.5-1.5 3-.9 4.4 1.7-.4 1.9 2.5 2.7 2.9.8.4-2.1.3-4-1.4-5.5-2.4-2.1-4-.7-6.4-.2-1.7 1.6-3.8 1.3-6.1-.9-.5-.4-1.1-.8-1.6-1.2-1.2-.6-2.3-1-3.7-1-3 0-11 6.5-13.2 2.3-1-1.8-3.6-.3-2.7 1.5zM557.5 980c1.6-1.4 6.5-3.9 6.7-.1.1 1.2-.8 2.1-.5 3.5.1.6.8 1.2 1.4 1.1 1.6-.1 3.3-.3 4.9-.4.7-.1 1.4-.1 2.1-.2.6 1.8.2 2.9-1.1 3.4-1.6 1-.1 3.6 1.5 2.6 2.4-1.4 5.2-3.9 3.7-7-1.8-3.6-8.1-1.7-11.1-1.4.5.4 1 .7 1.4 1.1-.3-1.6 1.3-2.9.7-4.7-.4-1.2-1.4-2-2.5-2.5-3.3-1.5-7 .3-9.5 2.5-1.3 1.2.8 3.4 2.3 2.1zM490.1 924.7v-61.6c0-1.9-3-1.9-3 0v61.6c0 1.9 3 1.9 3 0z"/><path class="prefix__st0" d="M488.6 864.6h105.3c1.9 0 1.9-3 0-3H488.6c-1.9 0-1.9 3 0 3z"/><path class="prefix__st0" d="M593.3 864.8v60.7c0 1.9 3 1.9 3 0v-60.7c0-1.9-3-1.9-3 0zM501.1 874.2v46.7c0 1.9 3 1.9 3 0v-46.7c0-2-3-2-3 0zM516 876.7V920c0 1.9 3 1.9 3 0v-43.3c0-1.9-3-1.9-3 0zM535.1 876.7v41.6c0 1.9 3 1.9 3 0v-41.6c0-1.9-3-1.9-3 0zM559.3 876.3v41.6c0 1.9 3 1.9 3 0v-41.6c0-1.9-3-1.9-3 0zM581.4 875v40.3c0 1.9 3 1.9 3 0V875c0-1.9-3-1.9-3 0zM587.5 1037.4h165c1.9 0 1.9-3 0-3h-165c-1.9 0-1.9 3 0 3z"/><path class="prefix__st0" d="M620.7 1034.7c14-13 27.1-26.8 39.5-41.3 1.2-1.5-.9-3.6-2.1-2.1-12.4 14.5-25.6 28.3-39.5 41.3-1.5 1.3.6 3.4 2.1 2.1zM685 1035.4c-17.4 20.6-34.7 41.3-52.1 61.9-1.2 1.5.9 3.6 2.1 2.1 17.4-20.6 34.7-41.3 52.1-61.9 1.3-1.4-.8-3.6-2.1-2.1zM929 976.1c-.1-1.4.5-2.2 1.6-2.3.5-.1.9-.1 1.4-.2.9-.1 1.9-.1 2.8 0 1.5.1 7.8 1.5 4 4.1-3.2 2.1-7.9-.3-10-2.9-1.2-1.5-3.3.6-2.1 2.1 2.7 3.4 7.1 5 11.3 4.2 3.5-.7 6.9-4.2 4-7.6-2.8-3.3-9.2-3.6-13-2.4-3.1 1-5.4 5.8-1.5 7.5 1.8.9 3.3-1.7 1.5-2.5zM949.1 997.8c-.3-.5 1.5-.5 1.6-.4.2 0 1.6.1 1.7.4.1.3-.7.6-.9.6-.9.1-1.8-.5-2.5-.9-1.7-.9-3.2 1.7-1.5 2.6 1.8 1 4.1 2 6.1.7 1.7-1.1 2.4-3.4 1-4.9-1.3-1.4-3.9-1.7-5.7-1.3-2.2.5-3.5 2.8-2.4 4.8.9 1.6 3.5.1 2.6-1.6zM1042.9 926h53.5c1.9 0 1.9-3 0-3h-53.5c-1.9 0-1.9 3 0 3zM1000.6 1071.1c-15.8 18.6-32.7 36.1-50.7 52.6-1.4 1.3.7 3.4 2.1 2.1 18-16.5 34.9-34 50.7-52.6 1.2-1.4-.9-3.6-2.1-2.1z"/><path class="prefix__st0" d="M980.3 1097.3c38.1 3.5 76.2 6.9 114.4 10.4 1.9.2 1.9-2.8 0-3-38.1-3.5-76.2-6.9-114.4-10.4-1.9-.1-1.9 2.9 0 3z"/><path class="prefix__st0" d="M1060.5 1082.6c-4.8 5.2-9.6 10.3-14.4 15.5-1.3 1.4.8 3.5 2.1 2.1 4.8-5.2 9.6-10.3 14.4-15.5 1.3-1.4-.8-3.5-2.1-2.1zM876.5 412.3v26.6c0 1.9 3 1.9 3 0v-26.6c0-2-3-2-3 0z"/><path class="prefix__st0" d="M832.8 440.3h87.7c1.9 0 1.9-3 0-3h-87.7c-1.9 0-1.9 3 0 3z"/><path class="prefix__st0" d="M896.4 440.2v26.6c0 1.9 3 1.9 3 0v-26.6c0-2-3-2-3 0z"/><path class="prefix__st0" d="M846.1 470.9h83.7c1.9 0 1.9-3 0-3h-83.7c-1.9 0-1.9 3 0 3z"/><path class="prefix__st0" d="M855.2 469.4v17.3c0 1.9 3 1.9 3 0v-17.3c0-1.9-3-1.9-3 0zM474.1 444.3h134.2c1.9 0 1.9-3 0-3H474.1c-2 0-2 3 0 3z"/><path class="prefix__st0" d="M496.5 444.1V472c0 1.9 3 1.9 3 0v-27.9c0-1.9-3-1.9-3 0zM534 442.8v-25.2c0-1.9-3-1.9-3 0v25.2c0 1.9 3 1.9 3 0zM490 415.1h93c1.9 0 1.9-3 0-3h-93c-1.9 0-1.9 3 0 3zM551 448.1V468c0 1.9 3 1.9 3 0v-19.9c0-1.9-3-1.9-3 0z"/><path class="prefix__st2" d="M129 1078.8h76.3c3.9 0 3.9-6 0-6H129c-3.8 0-3.8 6 0 6zM467.1 1067.9h76.3c3.9 0 3.9-6 0-6h-76.3c-3.8 0-3.8 6 0 6zM562.2 1072.6H584c3.9 0 3.9-6 0-6h-21.8c-3.9 0-3.9 6 0 6zM568.4 1134.9h98.2c3.9 0 3.9-6 0-6h-98.2c-3.8 0-3.8 6 0 6zM690 1147.4h112.2c3.9 0 3.9-6 0-6H690c-3.9 0-3.9 6 0 6zM831.7 1150.5h17.1c3.9 0 3.9-6 0-6h-17.1c-3.8 0-3.8 6 0 6zM978.2 1041.4h60.8c3.9 0 3.9-6 0-6h-60.8c-3.9 0-3.9 6 0 6zM1187 1081.9h197.9c3.9 0 3.9-6 0-6H1187c-3.9 0-3.9 6 0 6zM1314.8 1041.4h77.9c3.9 0 3.9-6 0-6h-77.9c-3.9 0-3.9 6 0 6zM1090.6 566.9c3.9 0 3.9-6 0-6s-3.9 6 0 6z"/><path class="prefix__st0" d="M868.8 43.4c4 17.6 5 35.5 3.3 53.4-.2 1.9 2.8 1.9 3 0 1.8-18.2.6-36.4-3.4-54.2-.5-1.9-3.4-1.1-2.9.8zM795.3 129.9c57.4-17.2 115.9-30.6 175.1-39.9 1.9-.3 1.1-3.2-.8-2.9-59.2 9.3-117.7 22.6-175.1 39.9-1.9.5-1.1 3.4.8 2.9zM791.9 135c9.2 8.3 19.3 15.3 30.3 21.1 1.7.9 3.2-1.7 1.5-2.6-10.8-5.6-20.7-12.5-29.7-20.6-1.4-1.3-3.5.8-2.1 2.1zM831.5 156.9c53.3-6.6 106.2-16 158.5-28.4 1.9-.4 1.1-3.3-.8-2.9-52 12.3-104.7 21.8-157.7 28.3-1.8.2-1.9 3.2 0 3zM977 94.3c9.8 7.8 17.1 18 21.3 29.8.6 1.8 3.5 1 2.9-.8-4.4-12.3-11.9-23-22.1-31.1-1.5-1.2-3.6.9-2.1 2.1z"/><path class="prefix__st0" d="M793.8 131.7c-7-9.2 12.1-13.2 17.5-14.8 7.7-2.4 15.4-4.6 23.2-6.8 15.2-4.3 30.5-8.2 45.9-11.9 31.1-7.3 62.4-13.3 94-18 1.9-.3 1.1-3.2-.8-2.9-36 5.3-71.8 12.4-107.2 21.2-17.5 4.4-34.9 9.2-52.2 14.4-6.5 2-15.4 3.3-20.8 7.8-3.8 3.2-5.3 8.5-2.2 12.6 1.1 1.5 3.7 0 2.6-1.6z"/><path class="prefix__st0" d="M975.9 80.5c7.7 4.8 14.4 10.9 19.6 18.3 2.3 3.2 4.3 6.7 6 10.3 1.6 3.6 1.9 5.8.1 9.6-.7 1.4-1.5 2.6-2 4.1-.6 1.8 2.3 2.6 2.9.8 1.3-4.1 4.5-6.7 3.4-11.3-1.1-4.8-4.2-9.6-6.9-13.7-5.6-8.4-13-15.4-21.6-20.7-1.7-1-3.2 1.6-1.5 2.6zM821.9 135.1c47.7-10.2 95.1-21.4 142.3-33.7 1.9-.5 1.1-3.4-.8-2.9-47.2 12.3-94.6 23.5-142.3 33.7-1.9.4-1.1 3.3.8 2.9zM830.3 144.6c41.7-7 82.9-16.2 123.7-27.5 1.9-.5 1.1-3.4-.8-2.9-40.7 11.3-82 20.5-123.7 27.5-1.9.4-1.1 3.3.8 2.9zM821.8 155.7c4.6 1.7 9.3 2.2 14.1 1.6 1.9-.2 1.9-3.2 0-3-4.6.6-9 .1-13.3-1.5-1.8-.7-2.6 2.2-.8 2.9z"/><path class="prefix__st0" d="M997.4 122c-2.3 1.6-4.9 2.5-7.7 2.8-1.9.2-1.9 3.2 0 3 3.3-.3 6.4-1.3 9.2-3.2 1.6-1.1.1-3.7-1.5-2.6zM786.8 156.4c-25.6 13.1-50.5 27.3-74.8 42.7-1.6 1-.1 3.6 1.5 2.6 24.3-15.4 49.2-29.6 74.8-42.7 1.8-.9.2-3.5-1.5-2.6zM817.4 178.7c-5.4 6.5-10.5 13.2-15.3 20.1-1.1 1.6 1.5 3.1 2.6 1.5 4.7-6.7 9.6-13.2 14.8-19.5 1.3-1.4-.8-3.6-2.1-2.1zM897.3 190.9c7 28.1 12.9 56.4 17.7 84.9.3 1.9 3.2 1.1 2.9-.8-4.8-28.5-10.7-56.9-17.7-84.9-.5-1.9-3.4-1.1-2.9.8zM989.9 181.5c15.9 21.2 32.7 41.5 50.5 61.1 1.3 1.4 3.4-.7 2.1-2.1-17.7-19.3-34.4-39.5-50.1-60.4-1.1-1.6-3.7-.1-2.5 1.4zM1030.7 132.8c21.2 8.4 42.7 16.1 64.4 23.2 1.8.6 2.6-2.3.8-2.9-21.7-7.1-43.2-14.8-64.4-23.2-1.8-.7-2.6 2.2-.8 2.9z"/></g><g id="prefix__mechanics"><path class="prefix__st2" d="M1059.6 371.1c24.4 36.6 44.9 75.6 61 116.5 1.4 3.6 7.2 2 5.8-1.6-16.3-41.4-36.9-80.9-61.6-117.9-2.1-3.2-7.3-.2-5.2 3zM923.3 373.4c-2.4 14.6 3.9 29.2 16.2 37.5 1.6 1.1 3.1-1.5 1.5-2.6-11.1-7.4-17-20.9-14.8-34.1.3-1.9-2.6-2.7-2.9-.8z"/><path class="prefix__st2" d="M943.6 411.8c35.5-21.3 75.1-35.2 116.1-40.7 3.8-.5 2.2-6.3-1.6-5.8-41.6 5.6-81.6 19.7-117.6 41.3-3.2 2-.2 7.2 3.1 5.2zM928.7 373.2c39.1-31.2 85.2-52.8 134.1-63.3 3.8-.8 2.2-6.6-1.6-5.8-49.9 10.7-96.8 33-136.8 64.8-3 2.4 1.3 6.6 4.3 4.3z"/><path class="prefix__st2" d="M1060.4 311.1c37.4 4.3 69.4 26.1 99.7 46.9 3.2 2.2 6.2-3 3-5.2-31.3-21.5-64.1-43.3-102.7-47.7-3.9-.4-3.8 5.6 0 6z"/><path class="prefix__st2" d="M1161 357.9c24.6 30.8 33.5 70.2 41.9 107.9.8 3.8 6.6 2.2 5.8-1.6-8.6-38.8-18.1-78.8-43.5-110.5-2.4-3.1-6.6 1.2-4.2 4.2zM1121.5 484c0-.5.1-1.1.1-1.6.1-2.2-2.7-3.9-4.5-2.6-4.4 3.1-12.1 6.5-12.1 12.8 0 6.4 1.9 13.4 3.2 19.6 2.8 13.3 7.6 26.1 16.8 36.4 2.6 2.9 6.8-1.4 4.2-4.2-7.6-8.5-11.7-19-14.4-29.9-1.3-5.2-2.2-10.4-3-15.6-.4-2.8-1.7-6 .3-8.2 2-2.2 5.5-4 7.9-5.7-1.5-.9-3-1.7-4.5-2.6 0 .5-.1 1.1-.1 1.6-.1 3.9 5.9 3.8 6.1 0z"/><path class="prefix__st2" d="M1116.4 492.1c34.8 7.8 72.2-2.7 97.7-27.7 2.8-2.7-1.5-6.9-4.2-4.2-23.9 23.4-59.1 33.5-91.8 26.2-3.9-.9-5.5 4.8-1.7 5.7z"/><path class="prefix__st2" d="M1206.8 461.6c5.1-1.9 10.6-3.5 15.1.6 3.4 3.1 5.3 7.6 7 11.7 4.5 10.7 8.8 21.6 8.6 33.4-.1 3.9 5.9 3.9 6 0 .3-14-5.1-28.1-11.3-40.5-2.2-4.5-5.2-9-9.7-11.5-5.6-3.1-11.6-1.6-17.3.5-3.6 1.4-2 7.2 1.6 5.8z"/><path class="prefix__st2" d="M1125 547.7c43.7 12.6 92.8-3.9 120.5-39.8 2.4-3.1-2.9-6-5.2-3-26 33.8-72.8 48.9-113.7 37.1-3.7-1.2-5.3 4.6-1.6 5.7zM1111.5 498.5c39.9 9.7 84.7 1.1 111.3-32.1 2.4-3-1.8-7.3-4.2-4.2-25.3 31.5-67.5 39.8-105.5 30.5-3.7-.9-5.3 4.9-1.6 5.8z"/><path class="prefix__st2" d="M1210.2 461.4c.3.4.2 1.2-.1 1.5-.7.8-1.9.2-2.4-.5-.1-.1-.2-.6-.1-.2v-.7c-.1.2.3-.4.4-.5.1-.1 1-.4.5-.3 1.1.5 2.3.9 3.4 1.4-.2-.3-.1-.1 0 .1-.1-.8 0 .4 0 0s-.1.5 0 .1-.2.7 0-.1c.1-.3.2-.1 0 0 .3-.2.1-.1-.1 0 .4-.2-.1-.1-.3 0-.2.1 0 0 .3 0-.9-1.5-1.7-3-2.6-4.5l-1.5 3h5.2c-.2-.3-.2-.3 0 .1-.1-.3-.1-.3 0 .1 0 1.1 0-.5 0 0-.1.2-.1.2.1-.1-.2.3-.2.3 0 .1-.1.2-.3.3-.5.3.3-.1.3-.1-.1 0-.9-.5-1.7-1-2.6-1.5-.1-.2-.1-.3-.1-.1v-.1V459.8c0 .1-.1.2-.1.3.1-.3.1-.3-.1 0 0-.1.1-.1.1-.2-.3.2-.3.3 0 .1-1.3.9-1.9 2.6-1.1 4.1.8 1.3 2.8 2 4.1 1.1 2.8-2 3.7-5.3 2.3-8.5-.4-.9-1.6-1.5-2.6-1.5-4 .1-7 4.9-4.6 8.4 1.2 1.7 4.1 2.1 5.2 0l1.5-3c1.1-2.2-.3-4.3-2.6-4.5-4.4-.4-7.5 5.2-5.2 8.8.8 1.2 2 1.6 3.4 1.4 3.9-.8 4.7-6.6 1.4-8.6-4-2.4-8.6 2.7-6.3 6.5.8 1.4 2.7 1.9 4.1 1.1 1.3-.6 1.9-2.5 1-3.9zM1143.8 552.2c8.3 18 14.6 36.8 18.9 56.1.8 3.8 6.6 2.2 5.8-1.6-4.4-19.9-10.9-39.1-19.5-57.5-1.7-3.5-6.9-.5-5.2 3z"/><path class="prefix__st2" d="M1169.2 609.8c.3-5.8 5.5-10.8 11.5-9.4 6.5 1.6 8.3 8.1 6.6 13.9-1.5 5.3-5.4 12.2-12 10.2-5.5-1.7-10.5-9.9-6.4-15.1 2.4-3-1.8-7.3-4.2-4.2-6.2 7.8-2.4 19 5.9 23.7 10.1 5.7 18.6-2 22-11.3 3.5-9.6-.1-20.7-10.9-23.1-9.7-2.1-18 5.9-18.4 15.3-.3 3.9 5.7 3.9 5.9 0zM1227.9 529.8c.1-.1.2-.1.3-.2 1.1-.6 1.8-2.1 1.4-3.4-.5-1.5-1.2-2.4-2.8-2.7-1.2-.3-2.8.2-3.4 1.4-2.2 4.4 1.6 10.7 2.9 15 2.1 6.9 4.1 13.9 5.9 20.9 1.7 6.7 3.3 13.5 4.6 20.3.9 4.6.6 12.3 4.6 15.2 1.2.8 2.7.3 3.6-.5.9-.8 1.3-1.7 1.2-2.9-.2-1.8-1.3-2.8-3-3h-.3c-3.8-.5-3.8 5.5 0 6h.3l-3-3c.2-.4.4-.9.6-1.3 1.2-.2 2.4-.3 3.6-.5 1.3 1 .1-1.6-.1-2.4-.2-1.2-.5-2.5-.7-3.7-.5-2.8-1.1-5.6-1.7-8.3-1.2-5.9-2.6-11.7-4.1-17.5-1.4-5.5-2.9-11-4.5-16.4-.8-2.7-1.6-5.4-2.5-8.1-.5-1.5-2.4-6.8-2.4-6.8-1.1.5-2.3.9-3.4 1.4.2 0 .3.1.5.1l-2.1-2.1c.1.2.1.4.2.5.5-1.1.9-2.3 1.4-3.4-.1.1-.2.1-.3.2-3.1 2-.1 7.2 3.2 5.2z"/><path class="prefix__st2" d="M1239 591.9c-13.3 11-29.9 17.1-47.1 17.7-3.9.1-3.9 6.1 0 6 18.9-.6 36.8-7.4 51.4-19.4 2.9-2.6-1.3-6.8-4.3-4.3zM1146.8 556.6c14.4 7.1 30.1 4.3 44.5-1.2 13.5-5.2 27-11.5 36.6-22.6 2.5-2.9-1.7-7.2-4.2-4.2-8.5 9.8-20.3 15.6-32.2 20.3-13.2 5.2-28.2 9.2-41.6 2.5-3.5-1.7-6.6 3.5-3.1 5.2z"/><path class="prefix__st2" d="M1147.2 548c-.1 0-.2 0-.3.1 1.1.5 2.3.9 3.4 1.4.1.5.1 1.1.2 1.6-1 .7-1.9 1.5-2.9 2.2v1.7c1.7-1 3.3-1.9 5-2.9-.4-.9-.9-1.8-1.3-2.7l-3.7 3.7c.7.6 1.4 1.2 2.1 1.7l3.7-3.7c.1 1.1.1 2.2.2 3.3l3.7-3.7c-1.3-.3-2.5-.9-3.6-1.7.4 1.4.7 2.7 1.1 4.1.5.7.6 1.5.3 2.3 1.3-1 2.5-1.9 3.8-2.9-.4.2-.8.3-1.2.5l2.1-2.1c3.9 1.6 4.9 2 2.8 1.1-.7-.3-1.4-.6-2-1.2.2 1.6.4 3.1.6 4.7.7-.7 1.4-1.5 2.1-2.2-.9.1-1.8 0-2.6-.2-1.7-.3-3-.9-4.5-1.8-.8 1.8-1.5 3.7-2.3 5.5 10.4 3.7 21.5 2.8 31.3-2.3 2.7-1.4 1.4-5.6-1.5-5.6-6.4 0-12.5.9-18.6 2.8-3 1-2.7 6.4.8 5.9 5.3-.7 10.3-1.8 15.3-3.5 3-1 2.8-6.3-.8-5.9-4.6.6-9.1.7-13.7.4.3 2 .5 3.9.8 5.9 4.1-1.3 8.3-2.3 12.6-2.9-.3-2-.5-3.9-.8-5.9-5 1.3-9.9 1.9-15 1.8.3 2 .5 3.9.8 5.9 6.4-1.9 12.9-2.8 19.6-2.7-.3-2-.5-3.9-.8-5.9-4.6 1.3-9.1 2.2-13.9 2.5.3 2 .5 3.9.8 5.9l19.8-3.6c-.5-1.9-1.1-3.9-1.6-5.8-4.6 1.4-9.1 2.8-13.7 4.3-3.1 1-2.7 6.1.8 5.9 5.4-.3 10.3-1.6 15.2-3.7 3.1-1.3.9-6.6-2.3-5.5-4.3 1.4-8.5 2.9-12.8 4.3-3 1-2.8 6.3.8 5.9 6.2-.6 12.2-2 18-4.3 3.5-1.4 2.3-6.6-1.6-5.8-5.3 1.1-9.8 3.5-13.7 7.2-2.2 2.1.1 5.8 2.9 5 7.2-2 13.5-5.6 19-10.8 2.2-2.1-.1-5.7-2.9-5-4 1-7.7 2.6-11.1 4.8-2.9 1.9-1 6.2 2.3 5.5 6-1.3 11.1-3.9 15.8-7.8 2.4-2-.2-5.7-2.9-5-6.6 1.6-13 3.9-19.1 6.9-3.5 1.7-.4 6.8 3 5.2 6.3-2.9 12.5-6 18.6-9.3 3.4-1.9.4-6.8-3-5.2-5.6 2.6-11.3 4.8-17.3 6.7.8 1.8 1.5 3.7 2.3 5.5 6.5-3.6 13.3-6.6 20.4-8.8-.8-1.8-1.5-3.7-2.3-5.5-5.7 3.3-11.5 6.6-17.2 9.9-2.9 1.6-1 6.7 2.3 5.5 7.6-2.8 14.6-6.5 21.3-11.1 2.6-1.8 1-6.9-2.3-5.5-6.1 2.6-11.8 5.7-17.1 9.7-2.4 1.8-1.2 6.8 2.3 5.5 6.3-2.3 12.1-5.3 17.5-9.3 3.1-2.2.3-7.3-3-5.2-5.2 3.4-10.1 7.2-14.7 11.5-2.1 2 .1 6.1 2.9 5 5.9-2.3 11.1-5.4 16-9.4 3-2.5-1.3-6.7-4.2-4.2-3.5 2.9-7 5.9-10.6 8.8-2.7 2.2.7 6.3 3.6 4.7 7-3.8 13-8.7 18.2-14.7 2.1-2.4-.6-6.7-3.6-4.7-2.8 1.8-5.5 3.5-8.3 5.3 1 1.7 2 3.5 3 5.2 4-2.9 7.7-6 11.1-9.6 2.3-2.5-.6-6.4-3.6-4.7-3.2 1.8-6 4-8.5 6.6-2.8 2.8 1.3 6.6 4.2 4.2 3.6-2.9 7.2-5.8 10.9-8.6-1.6-1.2-3.1-2.4-4.7-3.6-1.3 2-2.7 4-4 6 1.7 1 3.5 2 5.2 3 1.1-2 2.3-3.6 4.1-5.2-1.6-1.2-3.1-2.4-4.7-3.6-.8 1.6-1.6 2.8-2.9 4.2-2.6 2.9 1.4 6.9 4.2 4.2.7-.7 1.5-1.4 2.2-2.1-1.7-1-3.3-1.9-5-2.9-.3 1.5-1.1 2.6-2.5 3.4 1.2 1.6 2.4 3.1 3.6 4.7 1.3-1.1 2.7-2.2 4-3.3l-4.2-4.2c-2.9 2.7-5.8 5.2-9 7.5-3.1 2.3-.1 7.5 3 5.2 3.6-2.6 6.9-5.4 10.2-8.5 2.9-2.7-1.3-6.7-4.2-4.2-1.3 1.1-2.7 2.2-4 3.3-2.6 2.2.8 6.6 3.6 4.7 2.7-1.8 4.3-3.9 5.2-7 .9-3-2.9-4.9-5-2.9-.7.7-1.5 1.4-2.2 2.1l4.2 4.2c1.5-1.7 2.8-3.4 3.8-5.4 1.6-3-2.2-5.9-4.7-3.6-2.1 1.9-3.7 3.9-5 6.4-1.8 3.4 3 6.2 5.2 3 1.3-2 2.7-4 4-6 2-3.1-2.2-5.6-4.7-3.6-3.6 2.9-7.2 5.8-10.9 8.6l4.2 4.2c2.2-2.3 4.6-4.1 7.3-5.6-1.2-1.6-2.4-3.1-3.6-4.7-3 3.2-6.3 6.1-9.9 8.6-3.1 2.2-.3 7.3 3 5.2 2.8-1.8 5.5-3.5 8.3-5.3-1.2-1.6-2.4-3.1-3.6-4.7-4.8 5.6-10.4 10.2-17 13.8 1.2 1.6 2.4 3.1 3.6 4.7 3.5-2.9 7-5.9 10.6-8.8l-4.2-4.2c-4 3.4-8.5 6-13.3 7.9 1 1.7 1.9 3.3 2.9 5 4.2-3.9 8.6-7.5 13.4-10.6-1-1.7-2-3.5-3-5.2-5 3.6-10.3 6.5-16 8.6.8 1.8 1.5 3.7 2.3 5.5 4.9-3.7 10-6.8 15.7-9.1-.8-1.8-1.5-3.7-2.3-5.5-6.2 4.3-12.8 7.8-19.8 10.5.8 1.8 1.5 3.7 2.3 5.5 5.7-3.3 11.5-6.6 17.2-9.9 2.9-1.7 1-6.5-2.3-5.5-7.6 2.4-14.9 5.5-21.9 9.4-2.9 1.6-1 6.5 2.3 5.5 6.4-2 12.6-4.4 18.7-7.3-1-1.7-2-3.5-3-5.2-6.1 3.3-12.3 6.4-18.6 9.3 1 1.7 2 3.5 3 5.2 5.7-2.7 11.6-4.8 17.7-6.3-1-1.7-1.9-3.3-2.9-5-3.9 3.2-8.2 5.2-13.1 6.2.8 1.8 1.5 3.7 2.3 5.5 3-2 6.2-3.3 9.7-4.2-1-1.7-1.9-3.3-2.9-5-4.7 4.5-10.1 7.5-16.4 9.2 1 1.7 1.9 3.3 2.9 5 3.3-3.1 6.7-4.8 11.1-5.7-.5-1.9-1.1-3.9-1.6-5.8-5.3 2.1-10.7 3.5-16.4 4.1.3 2 .5 3.9.8 5.9 4.3-1.4 8.5-2.9 12.8-4.3-.8-1.8-1.5-3.7-2.3-5.5-3.9 1.7-7.9 2.6-12.2 2.9.3 2 .5 3.9.8 5.9 4.6-1.4 9.1-2.8 13.7-4.3 3.7-1.2 2.2-6.5-1.6-5.8l-19.8 3.6c-3.3.6-2.6 6.2.8 5.9 5.3-.4 10.4-1.3 15.5-2.7 3.3-.9 2.6-5.9-.8-5.9-7.2-.1-14.2.9-21.1 2.9-3.3 1-2.6 5.8.8 5.9 5.6.1 11.1-.5 16.6-2 3.2-.8 2.6-6.3-.8-5.9-4.9.6-9.6 1.6-14.2 3.1-3.3 1-2.6 5.7.8 5.9 4.6.3 9.1.2 13.7-.4-.3-2-.5-3.9-.8-5.9-4.5 1.5-9 2.7-13.7 3.3.3 2 .5 3.9.8 5.9 5.6-1.8 11.1-2.6 17-2.6-.5-1.9-1-3.7-1.5-5.6-8.5 4.4-17.7 4.9-26.7 1.7-3.3-1.2-5.1 3.8-2.3 5.5 4 2.5 14.4 5.7 15.6-1.5.4-2.5-1-5.1-3.3-6.1-3.1-1.5-6.3.3-8.6 2.4-1.5 1.4-.9 3.6.6 4.7 4.2 3 12.7 3.5 12.7-3.8 0-5.3-6.6-7.4-10.5-4.6-4.1 2.9-3.2 9.1 1.8 10.5 5.4 1.4 8.2-4.5 4.9-8.5-3.2-3.8-10.7-1.4-9.3 4 1.1 4.6 8.3 5.2 8.9 0 .6-4.7-5.3-7.5-8.8-4.6-3.8 3.1-.7 9.8 4.1 7.8 5.7-2.5.8-10.3-4.5-9.1-5.9 1.4-4.5 9.1.4 10.7 2.1.7 3.6-1.1 3.8-2.9.8-6.7-7.4-12.4-11.4-5.4-.8 1.5-.3 3.2 1.1 4.1 1.6 1.1 3.2 1.8 5 2.3 2.3.7 4.1-1.5 3.7-3.7-.7-4-5.3-7.9-9.2-4.8-3.4 2.7-2 7.4 1.6 8.8 2.1.9 4.4-1.7 3.7-3.7-1.1-3.1-3.1-5.2-6.3-5.9-2.2-.5-4.4 1.4-3.7 3.7.6 2.1 1.5 3.6 2.9 5.3 2 2.6 5.5-.3 5-2.9-.6-2.8-2.5-6.3-5.8-6.1-1.4.1-2.5.9-2.9 2.2-.4 1.1-.2 2.1.4 3 .8 1.2 2 1.6 3.4 1.4.1 0 .2 0 .3-.1 3.6-.5 2-6.3-1.8-5.6z"/><path class="prefix__st2" d="M1223.2 525.6c.3 1.8.7 3.5 1 5.3.5-1.1.9-2.3 1.4-3.4-2.3 1.7-4.8 3.3-7.4 4.6-3.4 1.8-.4 7 3 5.2 2.6-1.3 5-2.9 7.4-4.6 1.2-.9 1.6-1.9 1.4-3.4-.3-1.8-.7-3.5-1-5.3-.7-3.8-6.5-2.2-5.8 1.6zM1032.4 374.1c4.5-1.7 9-3.3 13.6-5 5.3-2 10.4-5.1 14 1 2 3.3 7.2.3 5.2-3-2.7-4.6-6.2-8.1-11.9-6.9-7.6 1.5-15.2 5.5-22.5 8.1-3.6 1.4-2 7.2 1.6 5.8z"/><path class="prefix__st2" d="M1040.7 371.9c5.6-1.7 11.2-2.7 17-3-.5-1.9-1-3.7-1.5-5.6-2.3 1.5-4.3 1.6-6.8.6.2 1.8.5 3.7.7 5.5 2.6-1.2 8.2-2.4 10 .8 1.8 3.4 7 .4 5.2-3-3.4-6.5-12.5-5.5-18.2-3-2.6 1.2-1.4 4.7.7 5.5 3.9 1.5 7.9 1 11.4-1.3 2.4-1.5 1.6-5.7-1.5-5.6-6.3.3-12.5 1.3-18.5 3.2-3.7 1.3-2.2 7.1 1.5 5.9zM1091.4 396.9c10.7-12.1 24.5-20.4 40.2-24.3 3.7-.9 2.2-6.7-1.6-5.8-16.6 4.1-31.5 13.1-42.8 25.8-2.6 3 1.6 7.2 4.2 4.3zM1116.8 429.1c4.7-6.2 11.5-10 19.1-11.3 3.8-.7 2.2-6.4-1.6-5.8-9.3 1.6-17.1 6.6-22.7 14-2.4 3.1 2.8 6.1 5.2 3.1zM1123.7 445.7c6.9-6 15.2-9.3 24.4-9.6 3.9-.1 3.9-6.1 0-6-10.7.3-20.5 4.2-28.6 11.3-2.9 2.6 1.3 6.8 4.2 4.3zM1127.2 515.5c9.9 1.1 19.7.5 29.4-1.4 3.8-.8 2.2-6.5-1.6-5.8-9.2 1.8-18.4 2.2-27.8 1.2-3.9-.4-3.8 5.6 0 6zM1133.3 524.3c6.5 2.7 13.4 2.4 19.7-.4 3.5-1.5.5-6.7-3-5.2-4.9 2.1-10.2 1.9-15.1-.2-3.5-1.5-5.1 4.3-1.6 5.8zM1166.3 617.5c-6.2-3.6-10.6 3.5-11.5 8.9-1.8 10.6-2.1 21.6-3.2 32.3-2.3 22-4.7 44-7.3 66-5.3 44.7-11.2 89.2-17.9 133.7-3.7 24.8-7.6 49.6-11.7 74.4-.6 3.8 5.2 5.4 5.8 1.6 13.4-80.7 24.7-161.8 33.7-243.1 1.3-11.5 2.5-23 3.7-34.5l1.8-17.7c.1-1.3 1.5-17.7 3.8-16.4 3.1 1.9 6.2-3.3 2.8-5.2zM1239.6 596.4c8.4 4.1 6.3 17.8 6.2 25.4 0 11.6-.1 23.2-.1 34.8-.1 23.2-.3 46.4-.4 69.6-.4 46.1-.9 92.1-1.5 138.2-.4 26.2-.8 52.4-1.2 78.5-.1 3.9 5.9 3.9 6 0 1.7-96.8 2.8-193.5 3.2-290.3.1-13.3.3-26.5.1-39.8-.1-8.1-1.1-17.7-9.2-21.6-3.5-1.7-6.5 3.5-3.1 5.2zM1115.2 945.7c39.2 22 87.5 24.1 128.5 5.9 3.5-1.6.5-6.7-3-5.2-39 17.3-85.3 14.9-122.5-5.9-3.4-1.9-6.4 3.3-3 5.2z"/><path class="prefix__st2" d="M1120.9 843.1c-1.6 13-3.3 26-4.9 39.1-.5 3.8 5.5 3.8 6 0 1.6-13 3.3-26 4.9-39.1.4-3.8-5.6-3.8-6 0zM1073.7 954.8c-.1.2-.2.4-.3.5l-5.1-2.1c-1.2 11.9-1.5 23.9-1.1 35.9.1 3.8 6.1 3.9 6 0-.4-12-.1-23.9 1.1-35.9.2-2.5-3.5-4.1-5.1-2.1-1 1.3-1.4 2-1.4 3.7 0 3.8 6 3.8 5.9 0z"/><path class="prefix__st2" d="M1064.1 985.5c-8 1-15.9 2.5-23.7 4.7-3.7 1-2.1 6.8 1.6 5.8 7.3-2 14.6-3.5 22.1-4.5 3.8-.5 3.8-6.5 0-6zM1035.1 999.7c-1.9 12.2-2.4 24.5-1.2 36.8.4 3.8 6.4 3.8 6 0-1.1-11.8-.8-23.5 1-35.2.6-3.8-5.2-5.4-5.8-1.6z"/><path class="prefix__st2" d="M1035.5 1040c71.2 30.2 151.7 36.7 226.8 18 19.9-5 42.3-10.6 58.7-23.5 3-2.4-1.2-6.6-4.2-4.2-14.4 11.4-34.4 16.3-51.8 20.9-18.1 4.7-36.5 8-55.1 9.8-36.9 3.5-74.3 1.3-110.5-6.7-20.8-4.6-41.2-11.1-60.8-19.4-3.6-1.6-6.7 3.6-3.1 5.1zM1070.9 954.2c12-8.1 25.6-13.4 40-15.3 3.8-.5 3.8-6.5 0-6-15.5 2-30.1 7.4-43.1 16.1-3.1 2.2-.1 7.4 3.1 5.2zM1246.9 939.9c20 2.8 40 6.6 58.3 15.4 3.5 1.7 6.5-3.5 3-5.2-18.8-9-39.2-13.2-59.7-16-3.8-.6-5.4 5.2-1.6 5.8zM1303.8 960.8c1 8.6 1.9 17.2 2.9 25.8.4 3.8 6.4 3.8 6 0-1-8.6-1.9-17.2-2.9-25.8-.5-3.8-6.5-3.8-6 0z"/><path class="prefix__st2" d="M1312.8 989.4l8.7.9c1.4.2 2.9.3 4.3.5.5.1 3.2.2 3.1.1-.2-1.2-.3-2.4-.5-3.6-.1.1-.1.2-.2.2.9-.5 1.7-1 2.6-1.5h-.3c1 .7 1.9 1.5 2.9 2.2v-.2c-.5-3.8-6.3-2.2-5.8 1.6v.2c.2 1.3 1.7 2.1 2.9 2.2 1.4.1 2.3-.6 3.1-1.7.8-1.1.3-2.7-.5-3.6-1.7-2.1-5.7-1.7-8.1-2-4.1-.4-8.2-.9-12.3-1.3-3.8-.4-3.7 5.6.1 6z"/><path class="prefix__st2" d="M1327.7 990.8c.8 13 1.5 26 2.3 39.1.2 3.8 6.2 3.9 6 0-.8-13-1.5-26-2.3-39.1-.3-3.8-6.3-3.8-6 0zM1040.6 1000c16.1 8.4 34.4 12.3 52.1 15.9 18 3.6 36.2 6.1 54.5 7.4 36.7 2.7 73.6.7 109.8-5.8 20.8-3.7 41.4-9 61.4-15.6 3.6-1.2 2.1-7-1.6-5.8-68.8 22.9-143.1 28.4-214.5 15.5-19.8-3.6-40.9-7.4-58.8-16.8-3.3-1.8-6.3 3.4-2.9 5.2zM1072.2 957.3c15.3 9.1 35.3 11 52.6 13.5 18.8 2.7 37.8 4.4 56.8 4.8 38.8.9 77.5-3.1 115.3-11.7 3.8-.9 2.2-6.6-1.6-5.8-36.7 8.4-74.2 12.3-111.8 11.6-18.8-.4-37.6-1.8-56.2-4.5-9.1-1.3-18.2-2.9-27.2-4.8-8.6-1.8-17.2-3.7-24.8-8.3-3.4-1.9-6.4 3.2-3.1 5.2z"/><path class="prefix__st2" d="M1073.6 997c23.1 8.8 47.4 14 72.1 15.4 3.9.2 3.8-5.8 0-6-24.2-1.4-47.9-6.6-70.5-15.2-3.6-1.3-5.2 4.5-1.6 5.8zM1266.1 1008.3c16.7-2.5 32.7-8.3 47.1-17.2 3.3-2 .3-7.2-3-5.2-14 8.6-29.4 14.1-45.7 16.5-3.8.7-2.2 6.5 1.6 5.9z"/><path class="prefix__st2" d="M1079.7 983.6v13.2c0 3.9 6 3.9 6 0v-13.2c0-3.8-6-3.8-6 0zM1040.8 1001.8c.2-2.5.4-6.2 3.5-6.7 3.8-.7 2.2-6.5-1.6-5.8-6 1.1-7.4 7.4-7.9 12.5-.3 3.9 5.7 3.8 6 0z"/><path class="prefix__st2" d="M1038.4 998.8c1.1.8 2.2 1.5 3.2 2.3 1.3.9 3.4.3 4.1-1.1.8-1.5.3-3.1-1.1-4.1-1.1-.8-2.2-1.5-3.2-2.3-1.3-.9-3.4-.3-4.1 1.1-.8 1.6-.3 3.2 1.1 4.1zM1062.5 992.1c2.3-.3 4.7-.5 7-.6 3.9-.1 3.9-6.1 0-6-2.9.1-5.8.4-8.6.8-1.6.2-2.5 2.3-2.1 3.7.5 1.7 2.1 2.3 3.7 2.1z"/><path class="prefix__st2" d="M1066.4 951.4c.2 12.1.3 24.2.5 36.3.1 3.9 6.1 3.9 6 0-.2-12.1-.3-24.2-.5-36.3 0-3.8-6-3.8-6 0z"/><path class="prefix__st2" d="M1069.5 952.7c3.4 4.6 8.1 7.2 13.2 9.5 3.5 1.6 6.5-3.5 3-5.2-4-1.8-8.3-3.8-11-7.4-2.3-3-7.5 0-5.2 3.1zM1115.6 926.9c-.8 5.1-1.7 10.3-2.5 15.4-.6 3.8 5.2 5.4 5.8 1.6.8-5.1 1.7-10.3 2.5-15.4.6-3.8-5.1-5.4-5.8-1.6z"/><path class="prefix__st2" d="M1108.6 939.1c2.6-.5 5.3-.8 8-.8 3.9 0 3.9-6 0-6-3.2 0-6.4.3-9.6 1-3.8.8-2.2 6.6 1.6 5.8zM1242.6 941.5c.2 2.2-.7 4-2.8 5-1.5.7-1.8 2.8-1.1 4.1.9 1.5 2.6 1.8 4.1 1.1 3.8-1.7 6.2-6 5.8-10.2-.2-1.6-1.3-3-3-3-1.5 0-3.2 1.3-3 3zM1302.7 953.4c.5 3.8 1 7.5 1.5 11.3.5 3.4 6 2.5 5.9-.8-.2-3.7-.3-7.5-.5-11.2h-6c.7 11.9 2.2 23.6 4.4 35.3.7 3.8 6.5 2.2 5.8-1.6-2.2-11.1-3.6-22.4-4.2-33.7-.2-3.8-6.2-3.9-6 0 .2 3.7.3 7.5.5 11.2 2-.3 3.9-.5 5.9-.8-.5-3.8-1-7.5-1.5-11.3-.6-3.8-6.3-2.2-5.8 1.6zM1327.1 987.6c-4.2 4.3-9.2 7.8-14.9 10 .8 1.8 1.5 3.7 2.3 5.5 6.1-2.7 12.1-5.7 16.6-10.7 2.6-2.9-1.7-7.1-4.2-4.2-4.2 4.7-9.8 7.3-15.4 9.8-3.1 1.4-.9 6.7 2.3 5.5 6.6-2.6 12.5-6.4 17.5-11.5 2.8-2.9-1.5-7.2-4.2-4.4zM1333 1033c3.9 0 3.9-6 0-6s-3.9 6 0 6z"/><path class="prefix__st2" d="M1305.6 1044.4c9.6-3.6 20.6-6.4 28.9-12.6 3.1-2.3.5-6.8-3-5.2-10.7 4.8-21.5 9.5-32.2 14.3 1 1.7 2 3.5 3 5.2 10.7-5.1 21.4-10.3 31-17.4 3-2.2.4-7.1-3-5.2-5.4 3-10.9 5.8-16.6 8.4-3.5 1.6-.5 6.7 3 5.2 6.4-2.8 12.6-5.8 17.3-11.1 2.2-2.4-.6-6.6-3.6-4.7-3.6 2.3-7.1 4.5-10.7 6.8-3.3 2.1-.4 7 3 5.2 4-2.1 7.5-4.7 10.6-8 2.2-2.4-.7-6.7-3.6-4.7-12.3 8.1-24.6 18.3-38.9 22.5-3.7 1.1-2.1 6.9 1.6 5.8 14.9-4.4 27.6-14.6 40.3-23.1-1.2-1.6-2.4-3.1-3.6-4.7-2.8 3-5.8 5.2-9.4 7.1 1 1.7 2 3.5 3 5.2 3.6-2.3 7.1-4.5 10.7-6.8-1.2-1.6-2.4-3.1-3.6-4.7-4.4 4.9-10.2 7.6-16.1 10.2 1 1.7 2 3.5 3 5.2 5.6-2.6 11.1-5.4 16.6-8.4-1-1.7-2-3.5-3-5.2-9.6 7.1-20.3 12.3-31 17.4-3.5 1.7-.4 6.7 3 5.2 10.7-4.8 21.5-9.5 32.2-14.3-1-1.7-2-3.5-3-5.2-7.9 5.9-18.3 8.5-27.5 12-3.5 1.1-2 7 1.6 5.6zM925.1 374.1c1.2-.5 2.1-1.3 2.5-2.6.5-1.5-1.5-2.5-2.5-1.5-.3.3-.6.6-1 .9-.6.6-.6 1.6 0 2.1.6.6 1.5.6 2.1 0 .3-.3.6-.6 1-.9-.8-.5-1.7-1-2.5-1.5-.1.3.1-.1-.1.2l-.1.1s-.3.2-.1.1c0 0-.4.2-.1.1-.7.3-1.3 1-1 1.8.2.9 1.1 1.5 1.8 1.2zM1150 904.9c15.2 7.1 32.4 7.7 48.9 7.7 15.7 0 31.8-1.9 45.3-10.6 3.2-2.1.2-7.3-3-5.2-12.6 8.1-27.6 9.8-42.3 9.8-15.4 0-31.7-.2-45.9-6.9-3.4-1.6-6.5 3.6-3 5.2z"/><path class="prefix__st2" d="M1171.9 893.9c24 6.5 49.3 4.2 71.9-6.2 3.5-1.6.5-6.8-3-5.2-21 9.7-44.9 11.6-67.2 5.6-3.9-1-5.5 4.8-1.7 5.8zM1146.8 851.4c17.5 5.3 35.9 7.6 54.1 6.3 16.7-1.2 33.7-4.9 47.3-15 3.1-2.3.1-7.5-3-5.2-13.3 9.8-29.9 13.3-46.1 14.3-17.2 1-34.3-1.2-50.7-6.2-3.7-1.1-5.3 4.7-1.6 5.8zM1181.4 600.9c3.1 1.2 2.9 9.5 2.7 12-.4 3.5-2.1 11-6.5 11.8-3.8.7-2.2 6.5 1.6 5.8 12.6-2.4 15.7-30.5 3.8-35.4-3.5-1.4-5.1 4.4-1.6 5.8z"/><path class="prefix__st2" d="M1184.7 604.1c4.5 7.4-1.1 16.4-7 21.1-3 2.4 1.2 6.6 4.2 4.2 8.1-6.4 13.7-18.7 7.9-28.3-1.9-3.3-7.1-.3-5.1 3zM1057.4 305.8c-10.1 19.2-11.3 42.1-3.1 62.2 1.5 3.5 7.3 2 5.8-1.6-7.7-18.6-6.9-39.7 2.4-57.5 1.8-3.4-3.3-6.5-5.1-3.1zM935.2 366c-3.3 13.1.4 26.9 9.8 36.6 1.4 1.4 3.5-.7 2.1-2.1-8.7-8.9-12.1-21.6-9.1-33.7.5-1.9-2.4-2.7-2.8-.8zM1159.9 617c-5.6 5.8-7.6 13.3-8.5 21.1-1.2 10.5-1.7 21.1-2.6 31.7-1.8 22-3.8 44-6.1 65.9-4.6 44.6-10.1 89.2-16.5 133.5-3.6 24.8-7.5 49.5-11.6 74.2-.6 3.8 5.1 5.4 5.8 1.6 14.3-85.4 25.3-171.3 32.9-257.5 1-11.8 2-23.6 2.9-35.5.8-10.3.2-22.9 7.9-30.8 2.8-2.7-1.5-6.9-4.2-4.2z"/><path class="prefix__st2" d="M1116.4 948c40.6 19.3 88.7 19.1 129.1-.5 3.5-1.7.4-6.9-3-5.2-38.4 18.7-84.5 18.9-123 .5-3.6-1.6-6.6 3.5-3.1 5.2zM1071.4 954.6c14.5-5.9 29.5-10.7 44.7-14.4 3.8-.9 2.2-6.7-1.6-5.8-15.3 3.7-30.2 8.5-44.7 14.4-3.6 1.5-2 7.3 1.6 5.8z"/><path class="prefix__st2" d="M1070.5 956.1c14.2 10 31.7 12.2 48.5 14.4 19.9 2.7 39.9 4.6 59.9 5.4 39.5 1.6 79.4-1.6 117.5-12.7 3.7-1.1 2.1-6.9-1.6-5.8-37 10.8-75.6 13.9-114 12.5-18.8-.7-37.6-2.4-56.2-4.7-17.4-2.2-36.2-4-51-14.4-3.3-2.1-6.3 3.1-3.1 5.3zM323.5 406.9c-36.7 39.8-64.5 87.1-81.4 138.5-1.2 3.7 4.6 5.3 5.8 1.6 16.6-50.4 43.9-96.9 79.9-135.9 2.5-2.8-1.7-7.1-4.3-4.2zM360.8 455.9c-22.8 29-39.9 61.9-50.4 97.3-1.1 3.7 4.7 5.3 5.8 1.6 10.1-34.3 26.7-66.5 48.8-94.7 2.4-3-1.8-7.2-4.2-4.2z"/><path class="prefix__st2" d="M244.6 544.9c-12.6-2-13.1 16.3-14.8 24.5-1.2 5.6-4 13-2.3 18.7 1.5 5.1 6.4 7.7 10.9 9.7 3.5 1.6 6.6-3.6 3-5.2-2.9-1.3-7-2.9-8.1-6.2-1.3-3.8 1.3-10.7 2.1-14.6.7-3.4 2.5-22.2 7.6-21.3 3.8.8 5.4-5 1.6-5.6zM312.2 558.1c7.5 2.2 4.4 14.2 3.9 19.8-.3 2.7.1 7.4-1 9.9-1.1 2.3-4.8 2.9-6.8 4.5-3 2.4 1.2 6.6 4.2 4.2 2.9-2.3 6.5-1.2 8-5.5 1.7-4.7 1.4-10.8 1.9-15.8.9-8.6 1.9-19.9-8.5-22.9-3.8-1-5.4 4.8-1.7 5.8z"/><path class="prefix__st2" d="M235.3 595c-7.8 51.7-12 104.5-10.1 156.8.9 25.6 6.3 50.5 11.7 75.5 5.5 25.6 11.5 51 17.9 76.4 7.3 29.2 15.1 58.2 23.5 87.1 1.1 3.7 6.9 2.1 5.8-1.6-14.3-49.6-27.2-99.7-38.4-150.2-5.7-25.5-12.2-51.4-14-77.6-1.7-25.3-.9-50.9.5-76.3 1.5-29.7 4.5-59.3 9-88.7.4-3.5-5.4-5.2-5.9-1.4zM306.4 599.1c-4.1 51.9-4.3 104.2-.3 156.2 2 25.3 6.9 49.5 14.4 73.8 7.4 23.9 15.5 47.5 24.3 70.9 10 26.7 20.8 53.1 32.4 79.1 1.6 3.5 6.7.5 5.2-3-20.5-46.1-38.5-93.3-53.8-141.4-7.6-23.8-13.6-47.6-15.9-72.6-2.3-25.2-3.2-50.6-3.4-76-.2-29 .9-58.1 3.1-87 .3-3.8-5.7-3.8-6 0z"/><path class="prefix__st2" d="M233.9 596.1c10.2 8.6 23.9 8.8 36.6 9.2 14.3.5 28.7-.2 41.6-6.8 3.4-1.8.4-7-3-5.2-11.4 5.9-24.3 6.5-36.9 6.1-11.3-.3-24.9.2-34-7.5-3-2.5-7.2 1.7-4.3 4.2zM240.6 552.4c23.7 11.3 50.8 13.2 75.7 5 3.6-1.2 2.1-7-1.6-5.8-23.4 7.7-48.9 6.3-71.1-4.4-3.4-1.6-6.5 3.5-3 5.2zM241.9 626.9c9.3-1.3 18.6-1.2 27.8 0 3.8.5 3.8-5.5 0-6-9.8-1.3-19.6-1.2-29.4.2-3.8.5-2.2 6.3 1.6 5.8zM273.8 976.6c-7.8 1.7-15.4 4-22.9 6.9-6.5 2.5-14 4.7-19.9 8.3-4.7 2.8-3.1 10.1-3 14.7.1 8.3.6 16.5 1.4 24.8.4 3.8 6.4 3.8 6 0-.7-6.6-1.1-13.3-1.3-20-.1-3.2-.1-6.4-.1-9.5 0-.9-.5-4 .1-4.8.5-.6 3.3-1.4 3.8-1.6 12.2-5.2 24.6-10.1 37.6-12.9 3.6-.9 2-6.7-1.7-5.9z"/><path class="prefix__st2" d="M231.3 1028.3c-5.3 2.2-10.4 3-16 3.5-3.2.3-6.6 1.1-8 4.3-1.8 4-1.2 9.9-1.3 14.2-.2 6.2-.3 12.4-.2 18.5 0 3.9 6 3.9 6 0-.1-8.7-1-18.7.7-27.3.5-2.7.4-3 2.9-3.7 1.7-.5 3.8-.2 5.6-.5 4.2-.6 8.1-1.7 12-3.3 3.4-1.4 1.8-7.2-1.7-5.7zM377 972c18.2 6.6 36.7 11.9 55.7 15.9-.7-1-1.5-1.9-2.2-2.9 1.3 11.8 3.4 23.4 6.3 34.9 1 3.7 6.8 2.2 5.8-1.6-2.8-11-4.9-22.1-6.1-33.3-.1-1.3-.8-2.6-2.2-2.9-18.9-4-37.5-9.3-55.7-15.9-3.7-1.3-5.2 4.5-1.6 5.8z"/><path class="prefix__st2" d="M438.5 1021.5c6.2 1.5 12.4 2.2 18.8 2.2-1-.7-1.9-1.5-2.9-2.2 4.8 14 8.3 28.3 10.5 42.9.6 3.8 6.3 2.2 5.8-1.6-2.2-14.6-5.7-29-10.5-42.9-.4-1.3-1.5-2.2-2.9-2.2-5.8 0-11.5-.6-17.2-2-3.8-.9-5.4 4.9-1.6 5.8z"/><path class="prefix__st2" d="M205.5 1068.2c-5.1 16.7 23.5 19.4 33.7 20.8 19.1 2.7 38.3 4.8 57.6 6.2 37.7 2.9 76 2.6 113-6.1 19.7-4.6 38.8-11.7 56.6-21.5 3.4-1.9.4-7-3-5.2-60.6 33.4-132 31.2-198.7 23.7-7.8-.9-57.3-3.3-53.4-16.3 1.2-3.7-4.6-5.3-5.8-1.6zM214.1 1045c62.3 14.2 127.8 13.5 189.8-1.9 17.8-4.4 35.2-10.1 52.2-16.9 3.5-1.4 2-7.2-1.6-5.8-58.7 23.4-122.5 32.8-185.4 27.2-18-1.6-35.8-4.4-53.4-8.5-3.7-.7-5.3 5.1-1.6 5.9zM230 999.5c13.2 8.5 30.1 8.2 45.2 9.3 18.7 1.3 37.4 2.2 56.1 1.7 33.7-1 67.4-6.7 97.9-21.3 3.5-1.7.4-6.8-3-5.2-29.6 14.1-62.4 19.6-94.9 20.5-17.1.5-34.1-.2-51.2-1.3-15.3-1-33.7-.2-47.1-8.8-3.2-2.2-6.2 3-3 5.1z"/><path class="prefix__st2" d="M279.4 993.3c17.5 4.9 35.7 5.2 53.7 2.3 9.2-1.5 18.3-3.8 27.2-6.7 4.6-1.5 9.1-3.1 13.6-4.9 3-1.2 6.6-2 8.2-5.1.5-.9.6-2.1 0-3-.1-.2-.3-.4-.4-.6-2.1-3.2-7.3-.2-5.2 3 .1.2.3.4.4.6v-3c-1.2 2.3-8.9 4-11.4 4.9-4 1.4-8 2.8-12 4-7.5 2.2-15.1 4-22.9 5.2-16.6 2.5-33.4 2.1-49.6-2.5-3.7-1-5.3 4.8-1.6 5.8zM269.1 955.6c7.6 3.3 15.7 2.6 23.8 1.6 8.2-1.1 16.2-2.9 24.1-5.6 15.6-5.4 30-13.8 42.4-24.7 2.9-2.6-1.4-6.8-4.2-4.2-11.2 9.8-24.1 17.6-38.2 22.6-6.7 2.4-13.7 4.3-20.7 5.5-7.5 1.3-16.9 2.9-24.1-.2-3.5-1.7-6.6 3.5-3.1 5zM246.5 865.2c15 2.1 29.6-1.2 43.6-6.4 12.8-4.7 25.9-9.9 36.2-19.1 2.9-2.6-1.4-6.8-4.2-4.2-9.4 8.5-21.8 13.2-33.5 17.6-12.9 4.8-26.6 8.4-40.4 6.4-3.9-.6-5.5 5.1-1.7 5.7zM256 900.3c6.8 5 17.7 2.5 25.3 1.1 10.1-1.8 19.7-5.2 28.8-9.9 3.4-1.8.4-6.9-3-5.2-7.6 3.9-15.5 6.8-23.8 8.6-6.6 1.4-18.3 4.6-24.2.2-3.1-2.3-6.1 2.9-3.1 5.2zM228 768.9c27.9 7.7 58.2 3.4 82.9-11.9 3.3-2 .3-7.2-3-5.2-23.3 14.5-51.8 18.6-78.2 11.3-3.8-1-5.4 4.8-1.7 5.8zM251.9 804.8c10 2.2 21.3.1 31.2-2.2 10.8-2.5 21.1-6.5 30.9-11.7 3.4-1.8.4-7-3-5.2-8.8 4.7-18 8.3-27.7 10.7-9.2 2.3-20.3 4.7-29.7 2.6-3.9-.8-5.5 5-1.7 5.8zM238.4 693.2c11.3 4.8 24.6 4.7 36.7 3.8 6.5-.5 13-1.4 19.3-2.8 4-.9 11.1-1.3 13.6-5 .7-1.1.4-2.7-.5-3.6l-.4-.4c-.9-.9-2.6-1.2-3.6-.5-.1.1-.2.2-.3.2-3.1 2.2-.1 7.4 3 5.2.1-.1.2-.2.3-.2-1.2-.2-2.4-.3-3.6-.5l.4.4c-.2-1.2-.3-2.4-.5-3.6-.3.4-5.5 1.2-6.3 1.4-2.4.6-4.9 1.1-7.3 1.6-5.6 1-11.2 1.7-16.9 2-10 .5-21.5.8-30.8-3.2-3.6-1.5-6.7 3.7-3.1 5.2zM328.4 407.6c-.5-11.5.3-22.9 2.4-34.2.9-4.5 1.8-14.6 6-16.8 2.2-1.1 6.4-.8 8.9-1.1 2.9-.3 5.8-.7 8.7-1 5.5-.6 11-1.3 16.5-1.9 2.8-.3 5.9-1 8.8-.6 3.1.5 5.2 2.6 7.4 4.7 7.6 7.2 13.2 16.2 16.6 26.1 1.2 3.6 7 2.1 5.8-1.6-3.9-11.4-10.4-21.8-19.3-29.8-4.8-4.3-8.9-5.9-15.4-5.3-7.4.8-14.9 1.8-22.3 2.6-5.9.7-13.6.3-19 2.7-4.9 2.2-5.6 8.4-6.8 13-3.5 14.1-4.9 28.7-4.3 43.3.2 3.7 6.2 3.7 6-.1z"/><path class="prefix__st2" d="M330.7 414.5c4.6 5.7 17 13.4 21.3 3.3 2.5-5.9 3.6-12.9 5.3-19.1 1.9-7.1 3.9-14.1 5.8-21.2-1 .7-1.9 1.5-2.9 2.2 14.1.7 27.9 3.2 41.4 7.6 3.7 1.2 5.3-4.6 1.6-5.8-13.9-4.5-28.3-7.1-43-7.8-1.3-.1-2.6 1-2.9 2.2-2.5 9-4.9 18-7.4 27-.7 2.6-2.1 13.1-4.8 13.9-3.4 1-8.4-4.3-10.2-6.5-2.4-3-6.6 1.2-4.2 4.2zM361.3 460.5c7.2 4.6 18.7 9 27.4 6.5 3.8-1.1 5.7-5.3 7.8-8.4 3.7-5.4 7.4-10.8 11.1-16.1 2.2-3.2-3-6.2-5.2-3-2.6 3.8-5.2 7.5-7.8 11.3l-3.3 4.8c-1 1.5-2.3 4.3-3.8 5.2-2.6 1.6-8.7.3-11.5-.4-4.2-1-8-2.8-11.7-5.1-3.2-2-6.2 3.2-3 5.2z"/><path class="prefix__st2" d="M351.8 419.8c5.3-5.8 12.9.3 17.7 3.7 5.6 4.1 11.7 7.6 18.3 9.8 11.3 3.8 23.1-7.9 30.2-15.4-1.6-1.2-3.1-2.4-4.7-3.6-3.9 8.9-7.7 17.8-11.6 26.8-1.5 3.5 3.6 6.6 5.2 3 3.9-8.9 7.7-17.8 11.6-26.8 1.3-2.9-2.2-6.3-4.7-3.6-4.8 5.1-10.3 9.9-16.6 13.1-6.9 3.6-15.3-2.1-21.2-6-8.1-5.3-19.5-15-28.4-5.2-2.6 2.8 1.6 7 4.2 4.2z"/><path class="prefix__st2" d="M399.6 366.8c7.6 1 15.2 1.9 22.8 2.9 2 .2 4.5.2 6.4.8 2.6 1 3.1 2.9 4 5.2 1.3 3.6 2.2 7.4 2.7 11.2 1.9 14.7-1.8 29.5-5.3 43.7 2 .3 3.9.5 5.9.8-1.7-18.9-14.6-33.8-31.6-41.4-16.4-7.2-38-9.5-50 6.4-2.3 3.1 2.9 6.1 5.2 3 10.5-13.9 31.4-9.6 44.7-2.9 13.6 6.8 24.3 19.2 25.7 34.8.3 3.2 5 4.3 5.9.8 4.2-16.9 8.5-35 4.3-52.3-1.6-6.9-3.7-14-11.4-15.3-9.7-1.6-19.5-2.5-29.2-3.7-3.9-.5-3.9 5.5-.1 6zM317.7 419.1c4.2 20.2 11.7 45.8 35.5 49.6 3.8.6 5.4-5.2 1.6-5.8-21.6-3.4-27.6-27.2-31.3-45.4-.8-3.8-6.6-2.2-5.8 1.6zM265.1 494.4c13.4 17.9 35 28.3 57.5 27.1 3.8-.2 3.9-6.2 0-6-20.2 1.1-40.1-7.9-52.3-24.1-2.3-3.1-7.5-.1-5.2 3z"/><path d="M929.3 396.4c15.7-10.4 35-21.4 57.9-31.4 31-13.4 59.4-20.9 82.4-25.1 20.3 21.3 42.8 48.7 63.5 83 43 71.3 58.5 139.7 64.6 184.9 12.2-2.6 24.3-5.2 36.5-7.8-3.3 5.1-7.9 11.2-14.3 17-15.2 13.7-31.8 18.5-40.8 20.3-8.8 78.4-17.6 156.9-26.4 235.3l2.1 79.7c9.3 3.3 28.7 8.7 53.1 4.8 21.4-3.4 36.7-12.6 44.6-18.1 40.3 6.9 49.5 12.1 49.4 15.7-.2 9.6-66.2 15-74.8 15.7-47.3 3.7-86.9.7-114.8-3-4.1 11.4-8.3 22.8-12.4 34.2 42.8 11.2 108.4 20.7 180.2-.8 12.8-3.8 24.7-8.3 35.7-13.2 5.2.5 10.4 1 15.5 1.6-25.8 11.8-64.2 25.9-112.6 31.8-47 5.8-86.7 1.8-114.2-3.1 1.3 13.7 2.6 27.4 3.9 41.2-7.7-.6-16.5-1.8-26-4.2-19.3-4.8-34.6-12.4-45.5-19.1 1.1-14.5 2.2-29.1 3.2-43.6 9.8-.2 19.6-.4 29.4-.7-.3-13.2-.5-26.4-.8-39.6 15.3-5.2 30.5-10.4 45.8-15.5 12.9-64.8 24.1-134 32.6-207.3 3.8-32.9 6.9-65 9.3-96.3 2.8-8.3 5.7-16.6 8.5-24.9-6-19.4-11.9-38.8-17.9-58.2-8-1-16-2.1-24.1-3.1-6-19.2-11.9-38.3-17.9-57.5 5.2-2.6 10.4-5.2 15.5-7.8-22-38.8-44-77.7-66-116.5-17.6 4.1-37.9 9.9-59.8 18.6-21 8.4-39.2 17.6-54.4 26.4-3.4-4.4-7.2-8.9-11-13.4z" opacity=".18" fill="#666"/><path d="M1143.7 548.1c-.3 2.2 16.5 7.4 90.5 20.1-3-12.5-6-25-8.9-37.4-8.5 4.5-20.8 10-36.3 13.4-25.9 5.7-45.1 2.2-45.3 3.9z" opacity=".29" fill="#666"/><path class="prefix__st5" d="M1197.3 619.6c-1.1 4.9-5.6 10.5-12.3 11.7-8.7 1.6-14.8-5.3-15.1-5.6 2-2 5.8-6.3 7.8-12.8 2.4-7.5 1.2-14 .6-16.8 13.6 3.9 20.9 15 19 23.5z"/><path class="prefix__st6" d="M976.1 388.5c12.7-12.1 32.4-27.1 59.5-35.5 6.1-1.9 11.9-3.2 17.4-4.2l1.8 18.6c-26.2 7.1-52.5 14.1-78.7 21.1z"/><path class="prefix__st7" d="M1147.5 756c-5.4 33.8-9.2 72.9-9.1 116.2 0 23.9 1.3 46.4 3.2 67.2 20.3 6.1 40.5 12.2 60.8 18.3-9.5 2.3-27.4 5.4-48.9.5-16.4-3.7-28.6-10.6-36-15.6 3-37.7 8.1-78.4 16.1-121.5 4.1-22.7 8.8-44.4 13.9-65.1z"/><path class="prefix__st8" d="M1097.5 964.7c-3.9 8.1-7.9 16.1-11.8 24.2 8.6 4.7 18.8 9.5 30.7 13.4 26.1 8.7 49.4 10.2 66.1 9.7-19.1.7-43.5-.4-71-6.5-16.6-3.7-31.2-8.5-43.6-13.4 2-12.5 3.9-25.1 5.9-37.6l23.7 10.2z"/><path class="prefix__st6" d="M408 429.9c-13.3 2.9-26.6 5.7-39.9 8.6-13.4 11.6-31.6 30-47.3 56.5-13.1 22-20.4 42.6-24.5 58.2-12.2 1.1-24.3 2.3-36.5 3.4-4.2.8-8.5 1.6-12.7 2.5 4.2 1.5 10.3 3.5 17.9 5.5 13.4 3.5 16.9 3.5 20.1 6.5 3.4 3.1 7.5 10.5 2.1 31.2-11.2-.4-22.4-.8-33.7-1.1 10.6 9.7 21.3 19.4 31.9 29.1-4.4 61.5-1.9 113.1 1.7 151.2 10.9 114.6 37.7 162.3 49.6 181.4 6.7 10.7 12.9 19 17.1 24.5-15 3.4-33.6 6-54.8 5.1-6.9-.3-13.3-.9-19.4-1.7-1.3-3-2.7-6.1-4-9.1-19.4 3.2-44.6 8.4-44.5 14.3.1 6.8 35.2 11.2 46.2 12.5 0 0 58.9 7.3 111.8-6.8 17.8-4.8 16.5-7.7 37.6-14.3 2-.6 6.3-1.9 6.3-3.4-.1-2.2-10.2-3.2-19.4-4.6-8.7-1.3-21.2-3.7-36.5-8.6-22-44.9-50.6-113.6-62.2-190.5-6.2-41.3-7.8-87.2-8-93.5-1.1-32.8-.1-60.8 1.1-82.1 2.6-3.2 5.9-7.9 8-14.3 5.2-15.7-.4-29.5-2.3-33.7 3.3-11.9 7.9-25.2 14.3-39.4 10.6-23.7 23.1-42.7 34.2-57 2.7 2 11.1 7.5 21.1 5.7 13.6-2.5 24.8-17.3 24.7-36.1z"/><path class="prefix__st9" d="M239.8 597.6c17.7 6.8 35.4 13.7 53 20.5 4 19.6 8 39.2 12 58.7-.8-18.7-.5-38.9 1.7-60.5.5-4.8 1.1-9.6 1.7-14.3-8.3.7-17.5.9-27.4.6-15.6-.4-29.4-2.5-41-5z"/><path class="prefix__st10" d="M330.4 861.9c9.3 37.9 18.7 75.9 28 113.8-9.5 6.7-19.1 13.5-28.6 20.2 27.3-4.1 54.6-8.2 81.8-12.3-10.8-3.9-21.7-7.8-32.5-11.8-16.2-36.6-32.4-73.2-48.7-109.9z"/><path d="M235.1 1032.9l123.3 13.5c-15.7 3.5-34.9 6.4-56.6 6.7-37.9.7-69.3-6.5-91.4-13.5 8.3-2.2 16.5-4.4 24.7-6.7z" opacity=".35" fill="#666"/><path class="prefix__st9" d="M332 412.5c-8.9-10.7-1-33.7 12.2-42.8 15-10.3 40.9-5.7 59.6 14.9-13.9-1.6-27.7-3.1-41.6-4.7-5.1 12.9-10.2 25.9-15.3 38.8-9.3-.6-13.3-4.3-14.9-6.2z"/></g><g id="prefix__head"><path class="prefix__st12" d="M568.3 347.7l30.6 22.8 219.9-7.8c4.6-39.7 9.1-79.4 13.7-119.1-8.2-6.5-16.5-13-24.7-19.5-26.4-1.2-100-1.2-169.2 48.1-35.5 25.3-57.5 54.8-70.3 75.5z"/><path class="prefix__st13" d="M669.6 357.7c-2 10.6-4 23.3-5.5 37.8-2 19.2-1.3 24.1 2 27.3 8.5 8.4 29-.7 31.2-1.7-1-7.8-1.5-17.2-.9-27.8.8-13.5 3.4-25 6.1-33.8-1.4-1.3-8.6-7.6-19.1-6.9-6.9.3-11.8 3.6-13.8 5.1z"/><path class="prefix__st2" d="M665.1 406.3c9.2-4.8 19.3-5.8 29.3-3 1.9.5 2.7-2.4.8-2.9-10.7-3-21.7-1.8-31.6 3.3-1.7.9-.2 3.4 1.5 2.6zM666.1 388.7c9.2-6 20.1-7 30.3-2.9 1.8.7 2.6-2.2.8-2.9-10.8-4.4-22.8-3.2-32.6 3.2-1.6 1-.1 3.6 1.5 2.6zM669.4 371.8c8.7-6.4 19.2-4.2 28.9-1.8 1.9.5 2.7-2.4.8-2.9-10.4-2.6-21.9-4.8-31.2 2.1-1.6 1.1-.1 3.7 1.5 2.6z"/><path class="prefix__st13" d="M795.4 339.2c-76.3 2.6-152.7 5.2-229 7.8 4.1-37.3 8.2-74.6 12.4-111.9 76.8-4.1 153.6-8.2 230.3-12.4-4.6 38.9-9.1 77.7-13.7 116.5z"/><path class="prefix__st12" d="M670.5 229.4c0-1.1.4-8.8 6.8-13.6 5.4-4 13.5-4.8 19.4-.5 5.9 4.4 6.3 11.6 6.3 12.6-10.9.5-21.7 1-32.5 1.5z"/><path class="prefix__st2" d="M684.6 214.7c-.9-2.8-1.9-8.8 3.1-7.3.6.2 3.3.6 3.5 1.1.7 1.1-.3 4.1-.5 5.2l1-1c-1.5.5-3.4.9-4.9.1-1.1-.6-1.9-2-1.3-3.2h-2.6c.5.6.6 1.1.4 1.9h2.9c-.2-.6-.3-1.2-.3-1.9.2-.8.1-1-.5-.6.3.5.5 1 .6 1.5 0 .5 0 1-.2 1.4h2.9c-.4-.9-.7-3.1-1.3-1.2-.3.8 0 2 .2 2.8 1-.3 1.9-.5 2.9-.8-.5-1.3-1.7-4-.3-5.1-.6-.1-1.2-.2-1.8-.2.9 1.1 1.2 2.4.9 3.8.8-.2 1.7-.4 2.5-.7-.7-.8-.4-1.7.2-2.3h-2.1c.5.6.6 1.3.2 2-.9 1.7 1.7 3.2 2.6 1.5 1-2 .8-3.9-.6-5.6-.5-.6-1.6-.5-2.1 0-1.9 1.8-1.9 4.6-.2 6.6.7.8 2.3.4 2.5-.7.5-2.5-.1-4.7-1.7-6.7-.4-.5-1.3-.6-1.8-.2-2.8 2.1-2.3 5.6-1.1 8.5.7 1.7 3.4 1.1 2.9-.8-.5-1.6.4-3.2-.7-4.7-.6-.8-1.6-1.5-2.6-1.4-3.3 0-2.1 4.2-1.4 6.1.5 1.3 2.5 1.6 2.9 0 .6-2.4 0-6.4-2.9-7-3.6-.7-2.9 4.5-2.5 6.5.4 1.5 2.5 1.4 2.9 0 .4-1.5.2-2.9-.7-4.2-.6-.8-2-1.1-2.6 0-1.7 3.5.6 7.3 4.3 8 1.6.3 4.6.3 5.9-.9 1.3-1.3 1.3-5.3 1.1-7-.2-1.9-1.4-2.6-3.1-3-2.1-.4-4.2-1.6-6.4-1-4.9 1.5-4.2 7.5-3 11.2.5 1.9 3.4 1.1 2.8-.7z"/><path class="prefix__st13" d="M770.2 320.3c-60.5 1.9-121.1 3.8-181.6 5.7 1.9-24.8 3.8-49.7 5.7-74.5 60.5-2.5 121.1-5.1 181.6-7.6-1.9 25.4-3.8 50.9-5.7 76.4z"/><path class="prefix__st12" d="M626.9 269.7c0 1.5 0 3-.8 3.9-1.3 1.4-3.5.1-8.3 0-5.2 0-7.6 1.5-9 0-.8-.9-.8-2.4-.8-3.9 0-5.3 4.2-9.6 9.5-9.6 5.1 0 9.4 4.3 9.4 9.6zM744 266.8c0 1.5 0 3-.8 3.9-1.3 1.4-3.5.1-8.3 0-5.2 0-7.6 1.5-9 0-.8-.9-.8-2.4-.8-3.9 0-5.3 4.2-9.6 9.5-9.6 5.2 0 9.4 4.3 9.4 9.6z"/><path class="prefix__st2" d="M662.1 283.9c1.3 6.2 4.9 13.4 12.5 12.4 6.6-.9 9.7-7.1 10.3-13.1.2-1.9-2.8-1.9-3 0-.4 4.7-3 10.1-8.5 10.2-5.5.1-7.5-6-8.4-10.3-.4-1.9-3.3-1.1-2.9.8zM605.2 283.6c6.8-2.1 13.6-2.5 20.6-1.1 1.4.3 2-1.9.6-2.2-7.4-1.5-14.6-1.1-21.8 1.1-1.4.4-.8 2.6.6 2.2zM606.5 288.5c5.2-1.4 10.5-1.7 15.9-1 1.4.2 1.4-2.1 0-2.3-5.6-.7-11-.4-16.5 1.1-1.4.4-.8 2.6.6 2.2zM723.8 279.6c7.5-2.1 14.9-1.1 22.4.5 1.4.3 2-1.9.6-2.2-7.9-1.6-15.7-2.7-23.6-.5-1.4.4-.8 2.6.6 2.2zM726.6 284.4c6.4-.6 12.8-.5 19.1.3 1.4.2 1.4-2.1 0-2.3-6.4-.8-12.7-.9-19.1-.3-1.5.2-1.5 2.5 0 2.3zM759 315c-.9-.9-.5-2.3.6-2.8 1.2-.6 2.7-.1 3.4.9.7 1 .4 2.1-.8 2.4-1.1.3-2.2 0-3.3-.3-1.4-.4-2 1.8-.6 2.2 1.9.6 4.5.9 6.1-.6 1.9-1.6 1.4-4.3-.3-5.8s-4.5-1.8-6.4-.3c-1.8 1.5-2 4.3-.4 5.9 1.2 1.1 2.8-.5 1.7-1.6zM594.3 320.7c0-1.1.1-2.3 1.3-2.7.9-.3 1.8.1 2.1.9.8 2-1.9 3.4-3.1 1.7-.8-1.2-2.8-.1-1.9 1.1 1.1 1.6 3.2 2.3 5.1 1.6 1.9-.8 2.8-3 2.2-5-.6-2-2.7-3-4.7-2.6-2.4.5-3.3 2.7-3.2 4.9 0 1.5 2.3 1.5 2.2.1z"/><path class="prefix__st14" d="M602.1 234.3c57.6 3.9 115.2 7.7 172.8 11.6-2.2 24.2-4.4 48.5-6.6 72.7-59.5 2.9-119 5.8-178.6 8.7-2.1 6.2-4.1 12.4-6.2 18.6 70.5-2.2 141.1-4.4 211.6-6.6 4.4-38.4 8.8-76.9 13.2-115.3-68.7 3.4-137.4 6.9-206.2 10.3z"/><path class="prefix__st5" d="M776.1 242.2l-5.4 77.7c-95.3 2.6-143 5.1-143 7.4 0 2.5 52.1 4.8 156.2 7-2.5-30.7-5.1-61.4-7.8-92.1z"/><path d="M605 324.8c56.8-26.7 113.5-53.5 170.3-80.2-2.1 24.8-4.1 49.6-6.2 74.4-54.7 2-109.4 3.9-164.1 5.8z" opacity=".11" fill="#666"/></g><g id="prefix__torso"><path class="prefix__st12" d="M769.4 406.4c12 14.7 24 29.3 36 44l-19.8 298.8-200.8 1.2-38.4-18.6c74.2-108.4 148.6-216.9 223-325.4z"/><path class="prefix__st13" d="M567.3 428c-7.1 101.5-14.3 203-21.4 304.4h206.9c5.5-108.6 11.1-217.2 16.6-325.8-67.3 7.1-134.7 14.2-202.1 21.4z"/><path class="prefix__st13" d="M728.8 535.9c-46 2.4-91.9 4.8-137.9 7.2 2-28.6 4-57.3 6-85.9 46.1-3.6 92.3-7.2 138.4-10.7-2.1 29.8-4.3 59.6-6.5 89.4z"/><path class="prefix__st2" d="M595.9 536.7c41.5-1.2 83-3.2 124.5-6.1 1-.1 1-1.6 0-1.5-41.4 2.9-82.9 4.9-124.5 6.1-1 0-1 1.5 0 1.5zM601.4 460.5c-.8 7.8-1.4 15.7-1.8 23.6-.1 1 1.4 1 1.5 0 .4-7.9 1-15.7 1.8-23.6.1-.9-1.5-.9-1.5 0zM606.4 469.4c-1.3.2-.4-3.7-.3-4.1.5-1.4 2.5-3.1 3.8-1.4 1.9 2.4-.5 7.2-3.7 5.8-.9-.4-1.3 1.1-.4 1.4 2.4 1 5-.5 5.8-2.9.7-2.1.5-5.6-2-6.4-5.6-1.8-7 9.5-3.2 9.1.9-.1.9-1.6 0-1.5zM617.6 467c-1.2-.7-1.6-2.3-1.1-3.6.6-1.7 2.6-2 4-1 3.2 2.4-.5 6.5-3.5 4.7-.8-.5-1.6.8-.8 1.3 2 1.2 4.7.6 6.2-1.2 1.6-2 .9-4.8-1.2-6.2-2-1.3-4.8-.9-5.9 1.3-1 2-.4 4.7 1.6 5.8.8.7 1.5-.6.7-1.1zM628.3 466c.1-.4-.4-1.2-.4-1.7 0-.6.3-1.2.7-1.7.9-1.1 2.4-1.1 3.4-.1s1.2 2.6.1 3.5c-.9.8-2.4.9-3.4.2-.7-.6-1.8.4-1.1 1.1 1.8 1.5 4.6 1.2 6-.7 1.6-2.1.2-5.3-2.2-6.1-2.4-.8-4.7 1.1-5 3.5-.1 1 .1 2.3 1 3 .8.6 2 .6 2.4-.5.2-1-1.2-1.4-1.5-.5zM665.2 505.1c-.3 8.2-.7 16.3-1 24.5 0 1 1.5 1 1.5 0 .3-8.2.7-16.3 1-24.5 0-1-1.5-1-1.5 0z"/><path class="prefix__st2" d="M665.8 505.6c17.6-1.5 35.3-2.5 53-3.1 1 0 1-1.5 0-1.5-17.7.5-35.4 1.6-53 3.1-1 0-1 1.5 0 1.5z"/><path class="prefix__st2" d="M717.9 502.2c-.3 7.5-.5 15-.8 22.5 0 1 1.5 1 1.5 0 .3-7.5.5-15 .8-22.5 0-.9-1.5-.9-1.5 0z"/><path class="prefix__st2" d="M665 530.6c17.5-2.8 35.1-4.1 52.8-3.7 1 0 1-1.5 0-1.5-17.8-.4-35.6.9-53.2 3.8-.9.1-.5 1.5.4 1.4zM670.8 512.8c-1-.6-1.5-2-.8-3 .6-.9 2-1.1 2.9-.5 1 .7 1.2 2.2.6 3.1-.7 1.1-2.3 1.2-3.4.5-.8-.5-1.6.8-.8 1.3 1.7 1.1 4.2.8 5.3-.9 1.1-1.7.7-4.2-1-5.3-1.6-1-4-.5-5 1.1-1.1 1.7-.4 4.1 1.3 5.1.9.4 1.7-.9.9-1.4zM673.9 523.2c14.3-1.7 28.6-2.6 43-2.7 1 0 1-1.5 0-1.5-14.4.1-28.7 1-43 2.7-1 .1-1 1.6 0 1.5zM682.5 518c11.3-1.8 22.6-2.4 34-1.8 1 0 1-1.5 0-1.5-11.5-.5-23 .1-34.4 1.9-.9.1-.5 1.6.4 1.4z"/><path class="prefix__st2" d="M701.1 502.6c0 4.1-.1 8.2-.3 12.4-.1 1 1.4 1 1.5 0 .3-4.1.4-8.2.3-12.4-.1-1-1.6-1-1.5 0z"/><path class="prefix__st2" d="M701.9 507.3l15.6-.3c1 0 1-1.5 0-1.5l-15.6.3c-1 0-1 1.5 0 1.5zM659.6 505.9v6.7c0 1 1.5 1 1.5 0v-6.7c0-.9-1.5-.9-1.5 0zM659.2 517.1c0 3-.1 6-.5 9-.1 1 1.4.9 1.5 0 .3-3 .5-6 .5-9 0-.9-1.5-.9-1.5 0zM675.5 464.3c2.2-.6 4.4-1.1 6.6-1.7.3.2.8.3 1.1 0 2.5-3.1 5.1-2.7 8.3-1.6.5.2.6.6 1.3.5.2 0 .4 0 .6-.1.6-.4 1.2-.8 1.7-1.2 2.4-1.3 4.7-1 6.9.8.3.3.7.3 1.1 0 2.3-2.1 6.5-4.9 9.1-1.2.6.8 1.9 0 1.3-.8-.9-1.3-1.8-2.1-3.4-2.5-3.2-.7-4.2 1.6-6.8 2.2-1.7.4-2.2-.4-3.9-.7-2.9-.5-4.2 1.5-6.6 1.6-1.7.1-3.4-1.4-5.4-1.2-2 .2-3.2 1.9-4.9 2.2-1.3.2-2.7-1.1-4.4-.7-1.9.4-3.1 1.8-3.9 3.5-.4 1 .9 1.8 1.3.9z"/><path class="prefix__st2" d="M674 463.6c-.5 6.6-.9 13.3-1.4 19.9-.1 1 1.4 1 1.5 0 .5-6.6.9-13.3 1.4-19.9.1-1-1.4-1-1.5 0zM682.9 462.5c-.6 7-.9 14-1 21 0 1 1.5 1 1.5 0 .1-7 .4-14 1-21 .1-1-1.4-1-1.5 0zM692 461.4c0 6.9-.5 13.8-1.4 20.6-.1 1 1.4.9 1.5 0 .9-6.8 1.3-13.7 1.4-20.6 0-1-1.5-1-1.5 0zM701.8 460.6c0 6.5-.1 13-.3 19.5 0 1 1.5 1 1.5 0 .3-6.5.4-13 .3-19.5 0-.9-1.5-.9-1.5 0zM712.1 460.3c-.1 6.1-.3 12.3-.6 18.4 0 1 1.5 1 1.5 0 .3-6.1.5-12.3.6-18.4 0-1-1.5-1-1.5 0z"/><path class="prefix__st2" d="M674.1 485.1c1-.8 2.1-1.4 3.4-1.7.3-.1 4-.4 3.8.3-.2.9 1.2 1.3 1.4.4.4-1.9-1.9-2.3-3.3-2.4-2.4-.1-4.6.8-6.4 2.3-.7.7.3 1.7 1.1 1.1z"/><path class="prefix__st2" d="M683.1 483.5c1.8-2.2 5.2-2.6 7.3-.6.7.7 1.8-.4 1.1-1.1-2.7-2.5-7.1-2.3-9.4.6-.7.8.4 1.9 1 1.1z"/><path class="prefix__st2" d="M691.6 482.7c1.5-.8 8.1-3.8 9.3-1.4.4.9 1.7.1 1.3-.8-1.8-3.6-9-.4-11.4.9-.8.4 0 1.7.8 1.3z"/><path class="prefix__st2" d="M702.3 481.2c2.6-1.9 5.6-2.7 8.8-2.4 1 .1.9-1.4 0-1.5-3.4-.4-6.8.5-9.6 2.6-.7.6.1 1.9.8 1.3z"/><path class="prefix__st2" d="M674 485.6c12.7-.6 25.3-2.3 37.7-5.1.9-.2.5-1.7-.4-1.4-12.3 2.8-24.7 4.5-37.3 5.1-1-.1-1 1.4 0 1.4z"/><path class="prefix__st2" d="M677.4 484.7c0-.4 5.4-.5 5.6-.5.8-.1 1.7-.2 2.5-.4 2.1-.4 3.2 0 .5-1.8v1.3c.9.1 1.8.2 2.7.2.2-.4.4-.9.5-1.3-1-.2-2-.5-3-.7-.1.5-.3.9-.4 1.4.9.1 1.8.2 2.7.4-.1-.5-.1-.9-.2-1.4-1.1-.1-2.2-.1-3.3-.2-.1.5-.1.9-.2 1.4 4.7-1.2 9.4 1 13.7-1.6.8-.5.1-1.8-.8-1.3l-2.7.3v1.4c1.2.1 2.5.2 3.7.3.1-.5.1-1 .2-1.5-.6-.1-1.2-.1-1.8-.2v1.5c4.6-.2 8.9-1 13.2-2.6.9-.3.5-1.6-.4-1.4-4.3.6-8.6 1.2-12.8 1.9.1.5.3 1 .4 1.4 4.3-1.1 8.7-1.8 13.1-2.1 1-.1 1-1.6 0-1.5-4.6.3-9.1 1-13.5 2.2-1 .2-.5 1.6.4 1.4 4.3-.7 8.5-1.3 12.8-1.9-.1-.5-.3-1-.4-1.4-4.2 1.5-8.3 2.4-12.8 2.5-1 0-1 1.4 0 1.5.6.1 1.2.1 1.8.2.9.1.9-1.2.2-1.5-1.7-.6-2.8-.7-4.5-.3-.7.2-.7 1.3 0 1.4 1.6.4 2.4.3 3.8-.5-.3-.4-.5-.9-.8-1.3-4 2.4-9 .4-13.3 1.5-.7.2-.7 1-.2 1.4 1.7 1.2 3.1 1.2 4.8.2.5-.3.5-1.2-.2-1.4-1.8-.5-1.3-.4-3.1-.4-.7 0-1 1-.4 1.4 1.3.7 2.3 1 3.8.9.6 0 1-.8.5-1.3-1.4-1.5-2.9-1.7-4.6-.5-.5.3-.5 1 0 1.3 1.9 1.3 4.5 1.5 4.7-1.3 0-.5-.5-.9-.9-.7-2.5.9-5 1.5-7.7 1.7-1 .1-3.6-.5-4.5.1-.7.5-1.1.8-1 1.7.5 1 2 1 1.9.1zM600.9 497.8c-.4 8.6-.8 17.3-1.2 25.9 0 1 1.5 1 1.5 0 .4-8.6.8-17.3 1.2-25.9.1-1-1.4-1-1.5 0z"/><path class="prefix__st2" d="M601.6 498.2c4.3-.4 8.6-.4 13-.3 1 0 1-1.5 0-1.5-4.3-.2-8.6-.1-13 .3-.9.1-1 1.6 0 1.5z"/><path class="prefix__st2" d="M613.6 498.4c0 3.5-.2 7-.4 10.5-.1 1 1.4 1 1.5 0 .2-3.5.4-7 .4-10.5 0-1-1.5-1-1.5 0z"/><path class="prefix__st2" d="M614 509.8c7.8-.8 15.6-1 23.5-.5 1 .1 1-1.4 0-1.5-7.8-.5-15.7-.3-23.5.5-1 .1-1 1.6 0 1.5zM616.4 506.9c6.5-.3 13.1-.3 19.6-.1 1 0 1-1.5 0-1.5-6.5-.2-13.1-.2-19.6.1-1 0-1 1.5 0 1.5zM616.7 503.8c2.5-.1 5-.3 7.5-.4 1-.1 1-1.6 0-1.5-2.5.1-5 .3-7.5.4-1 .1-1 1.6 0 1.5zM628.5 496.9c.1 2 .2 4 .4 6 .1 1 1.6 1 1.5 0-.1-2-.2-4-.4-6 0-1-1.5-1-1.5 0z"/><path class="prefix__st2" d="M629.2 496.9c2.1.5 4.3.8 6.5.8l-.8-.8v6c0 1 1.5 1 1.5 0v-6c0-.4-.3-.8-.8-.8-2.1 0-4.1-.2-6.1-.7-.9-.2-1.3 1.2-.3 1.5z"/><path class="prefix__st2" d="M629.6 504c1.9-.1 3.8-.1 5.7-.2 1 0 1-1.5 0-1.5-1.9.1-3.8.1-5.7.2-.9 0-.9 1.5 0 1.5zM600.7 525c11.6 0 23.1-.4 34.7-1.3 1-.1 1-1.6 0-1.5-11.5.9-23.1 1.4-34.7 1.3-1 0-1 1.5 0 1.5zM636.6 509.8c.5 3.9.6 7.8.4 11.8 0 1 1.5 1 1.5 0 .2-3.9 0-7.9-.4-11.8-.2-.9-1.7-.9-1.5 0z"/><path class="prefix__st2" d="M604.5 499.9c-.4 7.8-.7 15.7-1.1 23.5 0 1 1.5 1 1.5 0 .4-7.8.7-15.7 1.1-23.5 0-1-1.5-1-1.5 0zM639.1 511.1c.3 3.3.4 6.6.4 9.9 0 1 1.5 1 1.5 0 .1-3.3 0-6.6-.4-9.9-.1-1-1.6-1-1.5 0zM630.3 480c1.6-1.8 2.6-1.9 3.2-.4 0 .1.1.1.1.2.4.1.6.7 1.1.8 1.3.4 1.8-.3 2.8-.8 2-1-.5-3.9 4.5-2.4.6.2 1.5 1.7 2 2.1.9.7 1.6 1.2 2.8.9 1.3-.3 1.1-1.1 2-1.8.1-.3.3-.7.4-1 2.6-1.2 4.4-.9 5.5 1 .5.1.9.7 1.4.8.9.1 1.4-.1 2.1-.7.4-.3.6-1 1-1.3.2-.4.5-.8.7-1.3 2.1-.3 3.1.3 3 1.9.1 1 1.6.5 1.4-.4-.6-4.3-3-5-5.8-2.2-.3.3-.5 1.5-.9 1.7-1.3.6-2.7-1.1-3.6-1.6-1-.5-1.7-1.2-2.9-1.2-2.7.1-1.9 2.3-3.5 3.5-2.2 1.5-3.7-1.3-5.2-2.2-.4-.2-.8-.5-1.3-.6-3-.4-3.9 3.6-7.2 2.4-1.3-.4-1.5-1.7-3.2-1.2-1.9.5-2.3 2.3-1.8 4 .2 1.1 1.6.7 1.4-.2z"/><path class="prefix__st2" d="M632.2 484.5c1-.1 2.1-.2 3.1-.3.3.2.7.4 1.1.6.5.1.9.4 1.4.4 1.4.1 1.3-.1 2.6-.6.4-.2.5-1 .8-1.1 1.1-.1 2.3-.1 3.4-.2l1 1c1.4.5 1.3 1.4 2.9.9.5-.2.9-.7 1.3-.9.1-.2.2-.3.3-.5.9-1.6 2.6-1.7 5-.3.4.1.7.8 1.1.9 1.7.3.7.7 2.6.4 1.3-.3 1.6-2.6 3.2-2.4.9.1 1.4-1.3.4-1.4-1.9-.3-1.4.2-2.9.9-4.4 2-3.5-1.3-7-1.3-1.4 0-1.7 1-2.8 1.3-.7 1.5-2.1 1.6-4 .3-.3-.4-.7-.8-1.2-1.1-.6-.1-1-.7-1.6-.7-1.9-.1-1.6.8-2.8 1.8-3.3 2.7-4.7-1-7.7-.4-2.1.4-3.4 3-1 4 .9.3 1.7-.9.8-1.3zM663 545.2c.1 3.1.1 6.2.1 9.3 0 .5.5.8.9.7 9.4-2.1 19.9-.2 29.5-.5 4.8-.2 9.6-.5 14.4-1 2-.2 3.9-.4 5.9-.7 1.3-.2 2.5-.4 3.8-.5 1.6-.1 3-.5 4.4-1.4-.9-.2-1.3 1.2-.4 1.4.1 0 .3.1.4.1.4.1.8-.1.9-.5.1-.2.1-.3.2-.5.1-.3-.1-.7-.3-.8-.8-.5-.8-.2-1.7-.3-3.3-.3-7.9 1.2-11.2 1.6-6.4.7-12.8 1.2-19.1 1.3-5.9.1-11.8-.2-17.6-.3-1.9 0-5.2.8-6.9.3-2.5-.7-1.5-5.5-1.6-8.1-.3-1-1.8-1-1.7-.1z"/><path class="prefix__st2" d="M663.9 545.9c10.6-.7 21.2-1.5 31.9-2.2 5.2-.3 10.5-.6 15.7-.9 2.7-.1 6.7-1 9.2.1 1.9.9 1.4 1.1 1.4 3.2v4.7c0 1 1.5 1 1.5 0 0-2.3 1.4-7.9-.9-9.5-1.6-1.2-5.5-.2-7.3-.2-3.6.1-7.2.3-10.8.5-13.6.7-27.1 1.8-40.7 2.7-1 .2-1 1.7 0 1.6zM667.3 548.5v2.3c0 1 1.5 1 1.5 0v-2.3c0-.9-1.5-.9-1.5 0z"/><path class="prefix__st2" d="M668 548.7c15.8.2 31.6-.6 47.3-2.4.9-.1 1-1.6 0-1.5-15.7 1.7-31.5 2.5-47.3 2.4-1 0-1 1.5 0 1.5zM711.6 549.8c.3-.4 1.1-1.1 1.5-.4.1.2.1.2 0 .3-.1.2-.2-.1-.2 0-.3-.9-1.7-.5-1.4.4.6 1.8 3.4 1.1 3.2-.7-.1-.9-1-1.7-1.9-1.8-1-.1-1.9.6-2.5 1.4-.6.8.7 1.6 1.3.8zM737.9 722.9c-.6-2.9 2.5-6.2 5.1-3.6 1.3 1.2.8 3.1-.7 4-1.6 1-3.5.3-4.8-.8-.7-.6-1.8.4-1.1 1.1 1.9 1.7 4.7 2.4 7 .8 1.8-1.3 2.4-3.8 1.1-5.6-1.3-1.7-3.8-2.4-5.7-1.2-2 1.2-2.8 3.6-2.3 5.8.2.8 1.6.4 1.4-.5zM553.2 726.2c-1.4-.3-.6-1.9.3-2.4 1-.5 2.8-.6 3.6.4.6.8.2 2.1-.6 2.6-1 .8-2.5.5-3.6-.1-.9-.5-1.6.8-.8 1.3 1.8 1 4.4 1.2 5.8-.6 1.2-1.4 1.2-3.8-.5-4.9-1.7-1.1-4.6-.8-5.9.9-1.1 1.4-.6 3.8 1.3 4.1.9.4 1.3-1.1.4-1.3zM572.2 437.2c-1.5-.2-1.6-2-.5-2.8 1.2-.9 2.7-.5 3.6.5.7.9.9 2.2-.1 2.9-.7.5-1.9.6-2.5-.2-.6-.8-1.9 0-1.3.8 1.1 1.5 3.2 1.7 4.7.6 1.8-1.4 1.5-3.9-.1-5.4-1.7-1.5-4.4-1.6-5.9.3-1.4 1.7-.6 4.5 1.7 4.8 1 .1 1.4-1.4.4-1.5zM758.2 419.6c-2.1-1.3-.9-4.9 1.7-4.2 1 .3 2 1.2 1.8 2.4-.2 1.4-1.7 2.4-3.1 2-.9-.2-1.3 1.2-.4 1.4 2 .5 4.2-.8 4.8-2.8.6-2-.7-3.8-2.6-4.5-1.8-.6-3.8.1-4.6 2-.7 1.8-.1 3.9 1.5 4.9 1 .6 1.8-.7.9-1.2zM569.5 721.4c9 .1 18 .1 27 .2 1 0 1-1.5 0-1.5-9-.1-18-.1-27-.2-1 0-1 1.5 0 1.5zM608 720.9c21.5.3 43 .2 64.5-.3 1 0 1-1.5 0-1.5-21.5.5-43 .6-64.5.3-1-.1-1 1.4 0 1.5zM566.9 595.6c-1 17.8-2 35.7-3 53.5-.1 1 1.4 1 1.5 0 1-17.8 2-35.7 3-53.5.1-1-1.4-1-1.5 0zM562.1 670.1l-1.2 33.6c0 1 1.5 1 1.5 0l1.2-33.6c0-.9-1.5-.9-1.5 0z"/><path class="prefix__st2" d="M662.5 718.8c1.6-15.4 3.2-30.8 4.8-46.3.1-1-1.4-1-1.5 0-1.6 15.4-3.2 30.8-4.8 46.3-.1.9 1.4.9 1.5 0z"/><path class="prefix__st2" d="M667.6 673.3c24.2.6 48.3 1.3 72.5 1.9 1 0 1-1.5 0-1.5-24.2-.6-48.3-1.3-72.5-1.9-1-.1-1 1.4 0 1.5z"/><path class="prefix__st2" d="M739.3 674.8v28.7c0 1 1.5 1 1.5 0v-28.7c0-.9-1.5-.9-1.5 0zM685.4 680.6h48.3c1 0 1-1.5 0-1.5h-48.3c-1 0-1 1.5 0 1.5zM733.4 684.9v26.9c0 1 1.5 1 1.5 0v-26.9c0-1-1.5-1-1.5 0zM738.7 453.4c-2 21.2-3.6 42.4-4.8 63.7-.1 1 1.4 1 1.5 0 1.2-21.3 2.8-42.5 4.8-63.7.1-.9-1.4-.9-1.5 0zM590.6 483.4c-2.1 20-3.9 40-5.3 60.1-.1 1 1.4 1 1.5 0 1.4-20.1 3.2-40.1 5.3-60.1.1-.9-1.4-.9-1.5 0zM751.2 414.8c-1.9 4.5 1.4 9.7 6.2 10.2 1 .1.9-1.4 0-1.5-3.8-.5-6.1-4.8-4.7-8.3.3-.9-1.2-1.2-1.5-.4zM746.3 420.6c-.2 2.4 1.2 4.5 3.4 5.4.9.4 1.3-1.1.4-1.4-1.6-.6-2.4-2.3-2.3-3.9 0-1-1.5-1-1.5-.1z"/><path class="prefix__st16" d="M648.9 420.4c14.2 6.4 28.4 12.8 42.5 19.3-2.7 84.8-5.3 169.7-8 254.5-40.3 12.6-80.6 25.3-120.9 37.9 63.1-.2 126.3-.4 189.4-.7 5.8-108.1 11.5-216.2 17.3-324.3-40.1 4.4-80.2 8.8-120.3 13.3z"/><path d="M591.8 545.3c45.5-.4 91-.9 136.5-1.3.1-2.8.3-5.7.4-8.5-45.6 3.3-91.2 6.6-136.9 9.8z" opacity=".14" fill="#666"/><path class="prefix__st16" d="M735.5 445.1c-1.8 30.1-3.6 60.3-5.4 90.4 3.1-27.5 6.3-54.9 9.4-82.4-1.3-2.7-2.7-5.3-4-8z"/><path d="M597.2 456.3l137.4-8.1c-1.8 28.9-3.6 57.9-5.4 86.8-46.1 2.5-92.2 5.1-138.3 7.6 2.1-28.7 4.2-57.5 6.3-86.3z" opacity=".1" fill="#666"/><path class="prefix__st19" d="M637.8 455.8l95.8-1.8c.1-2.4.2-4.7.4-7.1-32.1 3-64.2 6-96.2 8.9z"/><path class="prefix__st6" d="M665 554.5c18.6 1.5 37.3 3.1 55.9 4.6.2-1.8.5-3.5.7-5.3-18.9.2-37.7.4-56.6.7z"/><path class="prefix__st19" d="M572.1 719.3c51.6.1 103.1.3 154.7.4-17.4 2.4-36.4 4.2-56.9 4.9-36.7 1.3-69.7-1.2-97.8-5.3z"/><path d="M739.3 673.9c-.1 7.1-.1 17.1.8 29.2.5 7.9 1.1 15.5 1.9 15.5.8 0 2.1-6.9 4.2-38.3-2.3-2.1-4.6-4.3-6.9-6.4z" opacity=".16" fill="#666"/></g><g id="prefix__cololrs"><path d="M717.2 524.6c-15.6.8-31.2 1.5-46.8 2.3v-21c15.7-1.4 31.4-2.8 47.2-4.2-.2 7.6-.3 15.3-.4 22.9z" opacity=".29" fill="#141414"/><path fill="#4b4b4c" d="M582.9 569.5h63.7v8.3h-63.7z"/><path fill="#848383" d="M616.7 581.2h56.7v5.2h-56.7z"/><ellipse class="prefix__st24" cx="607.3" cy="465.3" rx="2.6" ry="4.2"/><ellipse class="prefix__st24" cx="619" cy="462.2" rx="3.5" ry="2.9"/><ellipse class="prefix__st24" cx="630.3" cy="462.7" rx="3.2" ry="2.5"/></g><g id="prefix__hand_l_1_"><path class="prefix__st12" d="M720.1 1037.5c8 1.6 16 3.2 23.9 4.8.9 9.8 1.8 19.5 2.7 29.3-8.4 8.4-22.2 20.2-42 28.7-16.4 7-40.2 13.3-42.6 8.5-1.6-3.3 6.2-12.9 50-41.5 3.4-3.5 6.7-7.1 10.1-10.6l-2.1-19.2z"/><path class="prefix__st13" d="M677.5 746.9c5.6 40.3 11.2 80.5 17 120.7 8.9 62.4 17.9 124.8 27.1 187.2 1.2 1.2 4.9 4.6 10.9 5.4 7.7 1 13.2-3.3 14.2-4.1-2-35.7-4.4-71.9-7.2-108.6-5.3-69.1-11.8-136.2-19.3-201.4-1.8-1.5-11.6-9.2-25.1-7.5-9.1 1.3-15.2 6.2-17.6 8.3z"/><path class="prefix__st2" d="M686 775.2c10.2-7 22.6-9 34.4-5.3 1.8.6 2.6-2.3.8-2.9-12.5-3.9-25.9-1.9-36.7 5.6-1.6 1.1-.1 3.7 1.5 2.6zM680.6 760.7c8.9-9.4 23.1-12.2 34.9-6.6 1.7.8 3.3-1.8 1.5-2.6-13-6.2-28.6-3.4-38.5 7.1-1.3 1.4.8 3.5 2.1 2.1zM697.8 873.5c3.5-5 10.7-7.1 16.4-8.4 5.5-1.3 12.5-2.4 16.9 1.9 1.4 1.3 3.5-.8 2.1-2.1-4.9-4.7-11.8-4.3-18.1-3-7.1 1.4-15.6 4-20 10.2-1 1.5 1.6 3 2.7 1.4zM693 844.6c8.8-10.5 23.3-14.1 35.9-9 1.8.7 2.6-2.2.8-2.9-13.5-5.5-29.5-1.4-38.9 9.8-1.1 1.4 1 3.6 2.2 2.1zM707.7 947.8c6.6-6.1 21.6-12.1 29.8-6.1 1.6 1.1 3.1-1.5 1.5-2.6-9.4-6.9-25.8-.5-33.4 6.5-1.4 1.4.7 3.5 2.1 2.2zM703.4 918.9c4.5-3.4 9.7-5.3 15.1-6.6 5.3-1.3 11.3-2.8 16.3.1 1.7 1 3.2-1.6 1.5-2.6-5.4-3.1-11.3-2.1-17.1-.8-6.5 1.5-12.6 3.6-18 7.7-1.4 1.2.7 3.4 2.2 2.2zM688.5 812.1c5.8-5.8 13.4-8.5 21.5-7.7 1.9.2 1.9-2.8 0-3-8.9-.9-17.4 2.2-23.7 8.6-1.3 1.3.8 3.4 2.2 2.1zM717.3 1016.8c5.3-5.3 17.5-8.2 24.4-4.6 1.7.9 3.2-1.7 1.5-2.6-8.2-4.3-21.7-1.3-28.1 5-1.3 1.4.8 3.6 2.2 2.2zM713 985.5c5.3-4.8 11.9-7.1 19.1-6.9 1.9 0 1.9-3 0-3-7.9-.2-15.3 2.5-21.2 7.8-1.4 1.3.7 3.4 2.1 2.1z"/><path class="prefix__st19" d="M693 740.9c3 15.5 7.5 39.4 12.6 68.6 13.1 73.8 19.8 112.3 24.2 161.4 1.8 20.3 3.9 50.3 4.4 87.3.8.4 3.4 1.3 6.6.5 3.1-.7 4.9-2.6 5.5-3.3-2.3-65.4-7-134.4-14.8-206.5-3.9-35.4-8.3-69.8-13.2-103.2-1.4-1.5-6-5.6-13.2-6.6-5.7-.7-10.2.9-12.1 1.8z"/><path class="prefix__st14" d="M719.3 744.7c.1 41.6 2.1 75.5 3.8 98.8 4 52 8.9 75.7 12.6 129 2.6 37.4 3.2 67.9 3.3 87.3 2.6-1.5 5.1-2.9 7.7-4.4-2.6-60-6.8-122.7-13.2-187.8-4-42.1-8.8-83.1-14.2-122.9z"/></g><g id="prefix__hand_r_1_"><path class="prefix__st12" d="M647.9 1040.3c8 1.6 16 3.2 23.9 4.8.9 9.8 1.8 19.5 2.7 29.3-8.4 8.4-22.2 20.2-42 28.7-16.4 7-40.2 13.3-42.6 8.5-1.6-3.3 6.2-12.9 50-41.5 3.4-3.5 6.7-7.1 10.1-10.6-.7-6.5-1.4-12.9-2.1-19.2z"/><path class="prefix__st13" d="M605.3 749.7c5.6 40.3 11.2 80.5 17 120.7 8.9 62.4 17.9 124.8 27.1 187.2 1.2 1.2 4.9 4.6 10.9 5.4 7.7 1 13.2-3.3 14.2-4.1-2-35.7-4.4-71.9-7.2-108.6-5.3-69.1-11.8-136.2-19.3-201.4-1.8-1.5-11.6-9.2-25.1-7.5-9.1 1.3-15.2 6.2-17.6 8.3z"/><path class="prefix__st2" d="M613.8 777.9c10.2-7 22.6-9 34.4-5.3 1.8.6 2.6-2.3.8-2.9-12.5-3.9-25.9-1.9-36.7 5.6-1.6 1.1-.1 3.7 1.5 2.6zM608.4 763.5c8.9-9.4 23.1-12.2 34.9-6.6 1.7.8 3.3-1.8 1.5-2.6-13-6.2-28.6-3.4-38.5 7.1-1.4 1.4.8 3.5 2.1 2.1zM625.6 876.3c3.5-5 10.7-7.1 16.4-8.4 5.5-1.3 12.5-2.4 16.9 1.9 1.4 1.3 3.5-.8 2.1-2.1-4.9-4.7-11.8-4.3-18.1-3-7.1 1.4-15.6 4-20 10.2-1 1.5 1.6 3 2.7 1.4zM620.8 847.3c8.8-10.5 23.3-14.1 35.9-9 1.8.7 2.6-2.2.8-2.9-13.5-5.5-29.5-1.4-38.9 9.8-1.2 1.5 1 3.6 2.2 2.1zM635.5 950.6c6.6-6.1 21.6-12.1 29.8-6.1 1.6 1.1 3.1-1.5 1.5-2.6-9.4-6.9-25.8-.5-33.4 6.5-1.4 1.3.7 3.5 2.1 2.2zM631.2 921.7c4.5-3.4 9.7-5.3 15.1-6.6 5.3-1.3 11.3-2.8 16.3.1 1.7 1 3.2-1.6 1.5-2.6-5.4-3.1-11.3-2.1-17.1-.8-6.5 1.5-12.6 3.6-18 7.7-1.4 1.2.7 3.3 2.2 2.2zM616.3 814.8c5.8-5.8 13.4-8.5 21.5-7.7 1.9.2 1.9-2.8 0-3-8.9-.9-17.4 2.2-23.7 8.6-1.3 1.4.8 3.5 2.2 2.1zM645 1019.6c5.3-5.3 17.5-8.2 24.4-4.6 1.7.9 3.2-1.7 1.5-2.6-8.2-4.3-21.7-1.3-28.1 5-1.2 1.4.9 3.5 2.2 2.2zM640.8 988.3c5.3-4.8 11.9-7.1 19.1-6.9 1.9 0 1.9-3 0-3-7.9-.2-15.3 2.5-21.2 7.8-1.4 1.3.7 3.4 2.1 2.1z"/><path class="prefix__st19" d="M620.7 743.6c3 15.5 7.5 39.4 12.6 68.6 13.1 73.8 19.8 112.3 24.2 161.4 1.8 20.3 3.9 50.3 4.4 87.3.8.4 3.4 1.3 6.6.5 3.1-.7 4.9-2.6 5.5-3.3-2.3-65.4-7-134.4-14.8-206.5-3.9-35.4-8.3-69.8-13.2-103.2-1.4-1.5-6-5.6-13.2-6.6-5.6-.6-10.1 1-12.1 1.8z"/><path class="prefix__st14" d="M647.1 747.5c.1 41.6 2.1 75.5 3.8 98.8 4 52 8.9 75.7 12.6 129 2.6 37.4 3.2 67.9 3.3 87.3 2.6-1.5 5.1-2.9 7.7-4.4-2.6-60-6.8-122.7-13.2-187.8-4.1-42.1-8.9-83.2-14.2-122.9z"/></g><g id="prefix__hand_l"><path class="prefix__st12" d="M883.6 667.1c-8 10-15.9 19.9-23.9 29.9 5.6 2.6 12.7 6.8 19.8 13.6 12.9 12.2 19 26.1 21.8 34.1 14.2-5.7 28.5-11.7 43.1-18.3l11.1-5.1c-1.9-5.3-16.8-46.1-51.3-53.8-5.1-1.2-12.1-1.9-20.6-.4z"/><path class="prefix__st13" d="M864.5 696.3c-2.7 1-10.3 4.4-14.9 12.8-5.4 10-4 22.3-2.3 22.7 1 .2 1.5-3.6 5.6-9.5 4.7-6.7 10.3-10.6 11.3-11.4 5.8-4 9.1-4.1 9.4-6.4.2-1.6-1.2-4.2-9.1-8.2zM899.6 737.9c.5-1.1 2-3.9 5.1-5.7 4.1-2.3 8.1-1.3 8.9-1 2.4 12.9 2.5 24.1 1.8 32.8-.1 1.7-2.2 24.7-6.6 24.9-2.8.2-5.2-8.3-5.5-9.4-2.6-9.4.4-14.8-.1-25.5-.3-3.6-1-9.3-3.6-16.1zM916.8 731.3c.1-.3 1.7-4.7 5.8-5.7 2.6-.6 4.7.5 5.3.9 2 7.7 3.2 14.2 3.9 19 .4 3.1 2.4 17.6.1 36.2-1.1 9.3-2.1 10-2.6 10.1-2.2.3-5.4-9.3-6.7-17.6-1.1-6.9-.5-10.6-.7-16.2-.2-6.5-1.3-15.6-5.1-26.7zM932.3 728.8c.1-.4 1.2-4.5 5-6.1 2.9-1.2 5.5-.1 6 .1 1.1 3 2.6 7.4 3.9 12.8 2.6 10.2 5.3 21.3 2.9 34-1.2 6.1-3.9 14.2-5.7 13.9-2.2-.3-2.7-11.6-2.9-21 .4-3.8.6-10.2-1.4-17.7-2.1-7.6-5.6-13-7.8-16zM946.4 722.1c.3-2.4 1.6-4.3 3.5-5 1.5-.6 2.9-.1 3.4.1 1.4 2.2 3.3 5.3 5.2 9.2 3.3 6.7 6.2 12.8 6.6 20.1.5 10.2-4.3 19.5-5.8 19.2-1.2-.2.2-6.1-2-16.4-1.3-6.3-3.3-11.1-4.7-14.6-2.2-5.3-4.4-9.5-6.2-12.6z"/><path class="prefix__st2" d="M847.7 715.2c2.2 1.2 3.4 3.2 3.9 5.6.3 1.9 3.2 1.1 2.9-.8-.6-3.1-2.5-5.9-5.2-7.4-1.8-.9-3.3 1.7-1.6 2.6zM853 706.3c2.3 1.8 3.4 4.4 3.4 7.3 0 1.9 3 1.9 3 0 .1-3.6-1.4-7.2-4.3-9.5-1.5-1.1-3.6 1-2.1 2.2zM861.3 700.5c2 1.9 3.2 4.4 3.5 7.2.2 1.9 3.2 1.9 3 0-.3-3.6-1.7-6.8-4.4-9.3-1.4-1.3-3.5.8-2.1 2.1zM905.4 748.6c2.3-2.5 5.6-3.5 8.8-2.4 1.8.6 2.6-2.3.8-2.9-4.2-1.4-8.7-.1-11.8 3.1-1.3 1.5.8 3.6 2.2 2.2zM904.8 762.6c1.8-3.4 5.8-1.6 8.3-.3 1.7.9 3.2-1.7 1.5-2.6-4.1-2.1-9.8-3.6-12.4 1.4-.8 1.7 1.7 3.2 2.6 1.5zM904.9 777.8c1.7-2.4 5-3 7.4-1.3 1.6 1.1 3.1-1.5 1.5-2.6-3.8-2.7-8.9-1.3-11.5 2.4-1.1 1.6 1.5 3.1 2.6 1.5zM921.1 741.5c1.4-2.8 4.4-4.5 7.6-3.5 1.8.6 2.6-2.3.8-2.9-4.3-1.3-8.9.9-11 4.9-.8 1.7 1.8 3.2 2.6 1.5zM923.6 754.6c1.4-2.8 4.5-4.6 7.6-3.6 1.9.5 2.7-2.4.8-2.9-4.4-1.3-9 1-11 5-.9 1.7 1.7 3.2 2.6 1.5zM924.4 767.6c1.4-2.8 4.4-4.3 7.5-3.1 1.8.7 2.6-2.2.8-2.9-4.2-1.7-8.9.6-10.9 4.5-.9 1.8 1.7 3.3 2.6 1.5zM926.2 780.3c.6-1.8 2.5-3 4.3-2.4 1.9.6 2.6-2.3.8-2.9-3.5-1-6.9 1.2-8 4.5-.6 1.9 2.3 2.6 2.9.8zM939.3 737.6c.8-2.5 3.5-3.8 5.9-2.8 1.8.7 2.6-2.2.8-2.9-4-1.7-8.3 1-9.6 4.9-.6 1.9 2.2 2.6 2.9.8zM943 750.3c.9-2.2 3.4-3.1 5.5-2.3 1.8.7 2.6-2.2.8-2.9-3.8-1.5-7.7.9-9.2 4.4-.7 1.8 2.2 2.6 2.9.8zM943.4 767.3c1.3-2.1 4-2.7 6-1.3 1.6 1.1 3.1-1.5 1.5-2.6-3.4-2.4-8-1-10.1 2.4-1 1.6 1.6 3.1 2.6 1.5zM953.7 731c.4-1.6 1.9-2.9 3.6-2.4 1.8.6 2.6-2.3.8-2.9-3.2-1.1-6.6 1.3-7.3 4.4-.4 2 2.5 2.8 2.9.9zM958.1 744.1c.7-1.9 2.4-3.4 4.4-3.5 1.9-.1 1.9-3.1 0-3-3.4.2-6.2 2.5-7.3 5.7-.7 1.8 2.2 2.6 2.9.8zM960.8 754.3c.4-.8 1.3-1.6 2.3-1.4.8.1 1.6-.2 1.8-1 .2-.7-.2-1.7-1-1.8-2.3-.4-4.6.7-5.7 2.8-.9 1.6 1.7 3.1 2.6 1.4z"/><path class="prefix__st13" d="M783.6 477.5c-6.2-5.7-8.7-14.5-6.3-22.3 2.6-8.5 9.9-11.9 11-12.4 35.5 21.7 55.7 46.8 66.8 63.5 25.1 37.8 35.1 80.3 45.9 126.3 3.3 14.1 5.6 25.8 7 33.9-2 7-7.4 12.2-13.9 13.4-9.7 1.8-16.1-6.3-16.4-6.6-3.2-22.9-9.3-51.5-21.5-82.6-21.4-54.4-51.6-91.4-72.6-113.2z"/><path class="prefix__st2" d="M789.3 480.4c-1.6-7.7 0-25.4 11-25.5 1.9 0 1.9-3 0-3-13.3.1-16 19.6-13.9 29.3.4 1.9 3.3 1.1 2.9-.8zM802 495.8c.1-11.9 5.8-23.2 16-29.4 1.6-1 .1-3.6-1.5-2.6-11.2 6.8-17.4 19.1-17.5 32 0 1.9 3 1.9 3 0zM824.7 526.6c3.5-12.5 11.9-23 23.9-28.3 1.8-.8.2-3.4-1.5-2.6-12.7 5.6-21.6 16.9-25.3 30.1-.5 1.8 2.4 2.6 2.9.8zM814.5 511.1c1.2-5.8 4.1-10.8 8.8-14.5 1.5-1.2-.6-3.3-2.1-2.1-5 4-8.2 9.5-9.5 15.8-.5 1.9 2.4 2.7 2.8.8zM841.8 555.6c5.2-8.9 16.8-22.1 28.4-18.4 1.8.6 2.6-2.3.8-2.9-13.1-4.1-25.9 9.6-31.8 19.8-1 1.6 1.6 3.1 2.6 1.5zM860.2 597.2c2.1-4.3 5.1-8 9-10.8 1.6-1.1.1-3.7-1.5-2.6-4.4 3.1-7.8 7.1-10.1 11.8-.8 1.8 1.7 3.3 2.6 1.6zM856.4 579c5.3-8.6 13-15.1 22.7-18.1 1.8-.6 1.1-3.5-.8-2.9-10.4 3.2-18.9 10.2-24.5 19.5-1 1.7 1.6 3.2 2.6 1.5zM870.8 630.8c2.8-3.6 5.9-6.9 9.4-9.8 3.7-3 10.5-8.7 15.6-7.3 1.9.5 2.7-2.4.8-2.9-5.3-1.5-10.3 2.1-14.4 5-5.1 3.6-9.6 7.9-13.4 12.9-1.3 1.5.8 3.7 2 2.1zM877.3 657.6c1.9-4.1 6-5.9 10-7.7 3.9-1.8 10.4-5.6 14.7-3.3 1.7.9 3.2-1.7 1.5-2.6-4.8-2.5-9.9 0-14.5 1.9-5.4 2.3-11.6 4.6-14.3 10.2-.9 1.7 1.7 3.2 2.6 1.5zM842.9 525.3c4.1-5.4 9.7-9 16.3-10.4 1.9-.4 1.1-3.3-.8-2.9-7.4 1.6-13.5 5.8-18.1 11.8-1.2 1.5 1.4 3 2.6 1.5z"/><path class="prefix__st8" d="M780.2 472.8c-1-1.6-3.5-6.1-2.9-12.2.5-5.1 2.9-8.6 4.1-10.1 28.9 31.1 65.1 77.9 91.4 141.1 13.1 31.5 21.2 60.8 26.2 86.3-1.1.7-4.7 2.8-9.7 2.3-6.5-.6-10.2-5.1-10.7-5.8-3.2-23.9-9.7-53.4-22.8-85.6-21.8-53.4-52.6-91.9-75.6-116z"/><path class="prefix__st25" d="M922.9 726.6c.9 4.3 2.1 10.7 3 18.5.9 7.2 1.3 12.9 2 24 .3 5.4.8 12.7 1.1 21.5-.6-.5-1.4-1.3-2.1-2.3-2.3-3.1-2.8-6.1-3.5-10.3-1.8-11.1-1.7-10.1-1.8-11-.8-9.1.5-9.5-.1-15.8-1.1-11.7-6.2-17.1-2.7-21.7 1.2-1.7 2.9-2.5 4.1-2.9z"/><path class="prefix__st26" d="M847.2 731.2c-1.1-.4.4-10 6.5-18 3.5-4.5 6.5-6.2 7.8-6.8 5.1-2.4 11.5-2.7 11.9-1.4.6 1.6-8 3.6-16.1 11.6-7.5 7.7-9.1 15-10.1 14.6z"/><path class="prefix__st19" d="M937 724.3c1.3.1 2.6 1.8 5.6 16.6 1.7 8.1 2.5 12.1 2.9 16.7.2 2.9.2 7.4.1 16.6-.1 6.6-.2 8.6-.7 8.7-.7.1-1.9-4.7-2.5-7.9-1.8-9.4-1.1-16.6-.9-19.5.3-6.2-.9-15.3-8.4-27.4 1.8-3.3 3.1-3.9 3.9-3.8z"/><path class="prefix__st7" d="M905.5 733.7c3.2.7 3 12.1 2.9 19.5-.1 6.8-.7 8.9-.9 14.9-.3 7.7.3 14.3 1 19.3-.8 0-2-.2-3.2-.9-5.4-3.2-2.3-13.9-2.2-26.3 0-5.4-.5-12.9-3-22 2.9-4.1 4.5-4.7 5.4-4.5z"/><path class="prefix__st10" d="M949.2 718.4c2.8-.4 7.3 13.1 8.5 16.8.7 2.3 2.1 6.8 3.1 12.6.9 5.7.9 9 .5 11.8-.1.4-.8 5.8-1.7 5.8-1.1 0-.7-9-2.6-18.2-1.2-5.9-3.7-14.2-9.8-23.8.5-3.9 1.3-4.9 2-5z"/><path class="prefix__st14" d="M779.5 456.7c6.1 6.7 13.9 15.7 22.6 26.7 6.8 8.6 27.5 35.4 45.6 68.8 26.8 49.3 39.3 97.1 45.3 125.9-.6.3-4.1 2-8.3.7-4.9-1.5-6.5-6-6.6-6.4-1.7-12.2-4.6-27.7-9.5-45.3-6.5-23.5-12.6-45.4-27-69-13.4-22-53.5-77.6-61.8-87.1-.7-.8-3.2-3.5-3.2-7.2.1-3.9 2.4-6.5 2.9-7.1z"/></g><g id="prefix__hand_r"><path class="prefix__st12" d="M408.4 590c-9.1 5.4-18.3 10.9-27.4 16.3 3.2 3.8 7.1 9.3 10.2 16.8 5.5 13.6 5.4 26.5 4.9 33.6 12.3-.1 24.9-.5 37.8-1.3 3.3-.2 6.6-.4 9.8-.6.4-4.8 2.7-41.6-20.1-58.2-3.5-2.5-8.4-5.1-15.2-6.6z"/><path class="prefix__st13" d="M384.7 607.3c-2.4 0-9 .3-15.2 5.6-7.3 6.2-10.3 16.4-9.1 17.2.7.5 2.3-2.4 7.2-5.8 5.6-3.9 11.1-5.3 12.1-5.5 5.6-1.4 8.1-.4 9-2.2.7-1.2.5-3.7-4-9.3zM397 650.9c.7-.7 2.7-2.5 5.6-2.9 3.8-.6 6.3 1.5 6.9 2-2.4 11-6.1 19.8-9.5 26.5-.7 1.3-9.7 18.8-13.1 17.7-2.1-.7-1.1-8.2-1-9.1 1.1-8.2 5.2-11.5 8.2-20.2 1.2-3.1 2.5-7.8 2.9-14zM411.9 650.9c.2-.2 2.8-3.2 6.2-2.7 2.1.3 3.3 1.8 3.6 2.3-1 6.7-2.3 12.2-3.4 16.2-.7 2.6-4 14.7-11.8 28.7-3.9 7-4.8 7.3-5.3 7.2-1.7-.4-.9-9 .8-15.9 1.4-5.8 3.1-8.5 4.8-13 2-5.3 4.1-12.9 5.1-22.8zM424 653.7c.2-.3 2.4-3.2 5.7-3.3 2.5-.1 4.1 1.6 4.4 1.9-.2 2.7-.5 6.6-1.3 11.3-1.4 8.8-3.1 18.5-9.1 27.8-2.9 4.5-7.5 10-8.8 9.2-1.5-.9 1.8-10 4.8-17.4 1.5-2.9 3.8-7.9 4.8-14.4 1-6.7.2-12.1-.5-15.1zM436.6 652.7c1-1.8 2.6-2.9 4.2-2.9 1.3 0 2.1.8 2.5 1.1.3 2.1.7 5.2.8 8.8.2 6.3.4 12-1.7 17.9-3 8.2-9.5 14.1-10.6 13.4-.8-.6 2.1-4.8 3.9-13.6 1.1-5.4 1.2-9.7 1.3-13 .2-4.7 0-8.7-.4-11.7z"/><path class="prefix__st2" d="M365.9 617c1.2 1.6 1.5 3.4 1.1 5.4-.4 1.9 2.5 2.7 2.9.8.6-2.6.3-5.5-1.4-7.7-1.2-1.5-3.8 0-2.6 1.5zM372.8 611.9c1 2 .9 4.3.1 6.3-.8 1.8 1.8 3.3 2.6 1.5 1.3-3.1 1.5-6.3-.1-9.3-.8-1.7-3.4-.2-2.6 1.5zM380.7 609.5c.9 2.3.9 4.6.2 6.9-.6 1.8 2.3 2.6 2.9.8.9-2.8.9-5.8-.2-8.5-.8-1.8-3.7-1-2.9.8zM398 661.2c2.2-1.1 4.8-1 6.7.7 1.4 1.3 3.6-.8 2.1-2.1-2.9-2.6-6.8-2.9-10.3-1.2-1.7.9-.2 3.5 1.5 2.6zM393.1 672.1c2.2-2 4.5.9 5.8 2.5 1.2 1.5 3.3-.6 2.1-2.1-1.3-1.6-2.8-3.3-4.9-3.8-1.9-.5-3.7.1-5.2 1.4-1.4 1.1.7 3.3 2.2 2zM387.8 684.3c1.8-1.2 4.3-1.1 5.5.9 1 1.7 3.6.2 2.6-1.5-2-3.4-6.4-4.2-9.6-2-1.6 1.1-.1 3.7 1.5 2.6zM412 660.4c1.7-1.5 4.3-2.1 6.1-.5 1.5 1.2 3.6-.9 2.1-2.1-3.1-2.7-7.4-2.2-10.3.5-1.5 1.2.7 3.4 2.1 2.1zM409.5 671.5c1.7-1.5 4.3-2.1 6.2-.6 1.5 1.2 3.6-.9 2.1-2.1-3.2-2.6-7.4-2.1-10.4.6-1.4 1.2.7 3.4 2.1 2.1zM405.8 682c1.7-1.5 4.2-1.9 5.9-.2 1.4 1.4 3.5-.7 2.1-2.1-2.9-2.9-7.3-2.4-10.1.2-1.4 1.3.7 3.4 2.1 2.1zM402.8 692.8c.8-1 2.4-1.8 3.6-.9 1.5 1.2 3.6-.9 2.1-2.1-2.4-2-5.8-1.5-7.8.9-1.3 1.5.8 3.6 2.1 2.1zM426.4 663.1c1.2-1.4 3.4-2.2 4.8-.6 1.3 1.4 3.4-.7 2.1-2.1-2.5-2.7-6.8-2-9.1.6-1.1 1.5 1 3.6 2.2 2.1zM425 674.3c1.2-1.2 3.1-1.7 4.4-.4 1.4 1.4 3.5-.7 2.1-2.1-2.4-2.5-6.3-2-8.6.4-1.4 1.4.7 3.5 2.1 2.1zM420 687.6c1.3-1 3.3-.8 4.2.7 1 1.7 3.6.1 2.6-1.5-2-3.3-6.1-3.5-8.9-1.3-1.6 1.1.5 3.2 2.1 2.1zM439.5 662c.5-.8 1.9-1.5 2.8-.7 1.4 1.3 3.6-.8 2.1-2.1-2.4-2.1-5.8-1.2-7.5 1.3-1.1 1.6 1.5 3.1 2.6 1.5zM438.1 674c1.1-1.3 2.7-2 4.4-1.5 1.8.6 2.6-2.3.8-2.9-2.6-.9-5.5.2-7.3 2.2-1.2 1.5.9 3.6 2.1 2.2zM437 682.6c.5-.5 1.2-.6 1.8-.2 1.6 1 3.1-1.6 1.5-2.6-1.8-1.1-4-.7-5.5.7-.6.5-.5 1.6 0 2.1.7.6 1.6.6 2.2 0z"/><path class="prefix__st13" d="M396.9 409.6c-2.7-6.4-1.6-14.1 2.6-19.5 4.7-5.9 11.2-6.4 12.2-6.5 19.1 28 25.7 54.1 28.4 70.6 6.1 37.6-.5 74.2-7.6 113.8-2.2 12.1-4.4 22.1-5.9 28.9-3.7 4.9-9.4 7.4-14.7 6.3-7.8-1.6-9.8-9.9-9.9-10.3 5.2-19.1 10-43.6 11.2-71.9 2.1-49.2-7.9-87.7-16.3-111.4z"/><path class="prefix__st2" d="M400.4 413.9c.8-4.1 2.5-8 5.1-11.3 2.5-3.2 6.9-7.3 11.3-5.5 1.8.7 2.6-2.2.8-2.9-10.1-4.2-18.5 11.2-20.1 18.9-.4 1.9 2.5 2.7 2.9.8zM404.7 430c3.9-9.2 11.5-16.6 21.5-18.4 1.9-.4 1.1-3.2-.8-2.9-10.7 2-19.2 10-23.3 19.8-.7 1.7 1.8 3.3 2.6 1.5zM411.5 461c6.4-8.4 15.8-14.2 26.4-14.8 1.9-.1 1.9-3.1 0-3-11.8.7-21.9 7-29 16.3-1.2 1.5 1.4 3 2.6 1.5zM409 445.6c2.6-3.9 6.3-7 10.8-8.5 1.8-.6 1-3.5-.8-2.9-5.3 1.7-9.6 5.2-12.6 9.8-1.1 1.8 1.5 3.3 2.6 1.6zM414.5 489.2c6.1-4.9 19.1-12.3 26.3-5.9 1.4 1.3 3.6-.8 2.1-2.1-8.8-7.7-23-.2-30.6 5.9-1.4 1.2.7 3.3 2.2 2.1zM414.4 527.7c2.9-2.7 6.3-4.6 10.1-5.6 1.9-.5 1.1-3.4-.8-2.9-4.3 1.1-8.1 3.4-11.4 6.4-1.4 1.3.7 3.4 2.1 2.1zM417.3 512.4c6.7-5.1 14.3-8 22.8-7.4 1.9.1 1.9-2.9 0-3-8.9-.6-17.3 2.4-24.3 7.8-1.5 1.2 0 3.8 1.5 2.6zM411.2 557.6c3.7-2.2 7.5-4.1 11.6-5.3 3.1-.9 9-3 11.8-.7 1.5 1.2 3.6-.9 2.1-2.1-3.1-2.5-6.8-1.9-10.5-1.1-5.9 1.2-11.4 3.6-16.5 6.6-1.7 1-.2 3.6 1.5 2.6zM407.2 580.6c3.1-2.9 7.5-2.8 11.5-3 3.1-.1 7.7-.8 9.8 2 1.2 1.5 3.3-.6 2.1-2.1-2.8-3.6-7.9-3-12-2.9-4.9.2-9.9.4-13.6 3.8-1.3 1.4.8 3.5 2.2 2.2zM425 465.8c4.6-2.9 9.7-4.3 15.1-3.4 1.9.3 2.7-2.6.8-2.9-6.2-1-12.1.4-17.5 3.7-1.6 1.1-.1 3.6 1.6 2.6z"/><path class="prefix__st8" d="M395.9 404.8c-.2-1.6-.6-5.9 1.9-10.5 2-3.9 5-5.9 6.4-6.8 11.1 33.4 22.4 81.4 21 139.5-.7 28.9-4.4 54.5-9 76.2-1 .2-4.4.7-7.9-1.1-4.6-2.5-5.8-7.1-6-7.9 5.4-19.8 10.3-45.1 11.3-74.6 1.5-48.8-8.6-88.6-17.7-114.8z"/><path class="prefix__st25" d="M417.9 649.1c-.8 3.6-2 9.1-3.8 15.6-1.7 6-3.3 10.6-6.4 19.5-1.5 4.3-3.6 10.3-6.2 17.3-.3-.6-.6-1.4-.8-2.5-.7-3.2-.1-5.7.8-9.2 2.4-9.3 2.1-8.5 2.3-9.2 2.4-7.5 3.5-7.3 5.1-12.5 3-9.6 1-15.4 5.1-18 1.3-.9 2.9-1.1 3.9-1z"/><path class="prefix__st26" d="M360.5 629.6c-.7-.6 3.6-7.7 10.7-12.2 4-2.5 6.8-2.9 8-3 4.6-.4 9.3 1.4 9.2 2.6-.1 1.4-7.1.4-15.7 4.3-8 3.6-11.5 8.8-12.2 8.3z"/><path class="prefix__st19" d="M429 651.6c.9.5 1.3 2.2-1.3 14.8-1.4 6.9-2.1 10.3-3.3 14.1-.8 2.4-2.3 5.9-5.4 13.1-2.2 5.2-3 6.8-3.3 6.7-.5-.2.2-4.3.7-7 1.7-8 4.6-13.4 5.7-15.7 2.3-4.8 4.4-12.4 2.8-24.2 2.4-2.1 3.5-2.1 4.1-1.8z"/><path class="prefix__st7" d="M402.7 649.4c2.1 1.6-1.8 10.5-4.3 16.3-2.3 5.3-3.4 6.8-5.5 11.5-2.7 6-4.4 11.4-5.5 15.5-.6-.3-1.4-.8-2-1.7-2.9-4.2 2.9-11.7 7-21.5 1.8-4.3 3.9-10.4 5-18.3 3.3-2.3 4.7-2.3 5.3-1.8z"/><path class="prefix__st10" d="M439.9 650.6c2.2.5 1.1 12.6.7 15.9-.2 2-.6 6-1.8 10.9-1.2 4.8-2.3 7.4-3.5 9.4-.2.3-2.5 4.3-3.1 4.1-.8-.4 2.4-7.4 4.1-15.2 1.1-5 1.9-12.4.6-21.8 1.5-2.9 2.5-3.4 3-3.3z"/><path class="prefix__st14" d="M400.7 392c2.3 7.1 5.1 16.7 7.9 28 2.2 8.8 8.6 36.4 11.1 68.3 3.6 47.1-2.9 88.7-7.9 113.4-.5.1-3.7.3-6.3-2-3.1-2.7-2.8-6.7-2.8-7.1 2.7-10.2 5.7-23.3 7.9-38.7 2.9-20.6 5.6-39.7 2.8-62.8-2.7-21.5-14-77.7-17-87.7-.3-.9-1.2-3.8 0-6.7 1.2-3.1 3.7-4.4 4.3-4.7z"/></g><g id="prefix__laser"><path class="prefix__st27" d="M916.4 400.5c-20.3 21.2-39.6 43.3-57.7 66.4-4.7 6 3.7 14.6 8.5 8.5 18.1-23.1 37.4-45.2 57.7-66.4 5.3-5.6-3.1-14.1-8.5-8.5zM830.6 445.5c4.7 5.7 7.6 12.3 8.8 19.6.3 1.9 3.2 1.1 2.9-.8-1.3-7.8-4.5-14.8-9.5-20.9-1.3-1.5-3.4.6-2.2 2.1zM831.1 426.4c5.8 3.4 9.6 9.2 10.1 16 .1 1.9 3.2 1.9 3 0-.6-7.8-4.8-14.6-11.6-18.5-1.6-1-3.1 1.6-1.5 2.5zM845.3 454.3c1.2 3.4 1.6 6.7 1.2 10.3-.2 1.9 2.8 1.9 3 0 .5-3.8 0-7.5-1.3-11.1-.6-1.8-3.5-1-2.9.8zM838.1 491.5c.2-2.6 1.5-5.4 4.2-6.3 3.8-1.3 4.9 3.1 3.9 5.9-1.6 4.6-7.4.4-4-2.5 2.9-2.5 8.8 2.7 5 4.3h1.5c-.7-.3-1.2-2.6-1.1-3.2 1.2-1.1 2.4-2.3 3.5-3.4 1.6.6 2.4 1.6 2.6 3.1.7 2.6-.4 5-1.5 7.3-.8 1.7 1.7 3.2 2.6 1.5 1.9-3.9 3.6-8.6.6-12.4-2.1-2.7-5.8-3.5-8.5-1.2-2.6 2.2-3.3 7.7-.7 10.3 2.2 2.2 4.7-.6 5-3 1.2-7.9-12.5-9.5-13.4-1.9-.4 3.1 3.1 6.5 6.1 6.6 3.7.2 5.4-4.1 5.8-7.2.5-4.3-2.2-7.9-6.8-7.4-4.7.6-7.5 5-7.7 9.4-.2 2 2.8 2 2.9.1zM800.1 509.7c5.2-6.9 12.3-11.6 20.7-13.7 1.9-.5 1.1-3.4-.8-2.9-9.1 2.3-16.8 7.6-22.4 15.1-1.3 1.5 1.3 3 2.5 1.5zM812.2 485.8c5.1-3.4 10.9-4.7 16.9-3.6 1.9.3 2.7-2.5.8-2.9-6.8-1.2-13.5 0-19.3 3.9-1.5 1.1 0 3.7 1.6 2.6zM846.1 504.4c5.1 5.5 5.1 13.3 5 20.4 0 1.9 3 1.9 3 0 .1-8-.2-16.3-5.9-22.5-1.2-1.4-3.4.7-2.1 2.1zM863.9 499.4c6.5 1 12.3 3.7 17.1 8.3 1.4 1.3 3.5-.8 2.1-2.1-5.1-4.9-11.4-8-18.4-9-1.9-.3-2.7 2.6-.8 2.8zM868.1 488.4c5.2-3.8 11-5.5 17.4-5 1.9.1 1.9-2.9 0-3-6.8-.5-13.4 1.4-19 5.4-1.4 1.2.1 3.8 1.6 2.6zM892.9 480.1c7.4-1 14.8-1.4 22.3-1.3 1.9 0 1.9-3 0-3-7.5-.1-14.9.3-22.3 1.3-1.8.2-1.9 3.2 0 3z"/></g></svg>